<svg xmlns="http://www.w3.org/2000/svg" width="920" height="540">
<rect width="100%" height="100%" fill="white"/>
<line x1="75.00" y1="35" x2="75.00" y2="475" stroke="#e5e7eb"/>
<text x="75.00" y="502" text-anchor="middle" font-size="12">0</text>
<line x1="174.39" y1="35" x2="174.39" y2="475" stroke="#e5e7eb"/>
<text x="174.39" y="502" text-anchor="middle" font-size="12">5</text>
<line x1="273.78" y1="35" x2="273.78" y2="475" stroke="#e5e7eb"/>
<text x="273.78" y="502" text-anchor="middle" font-size="12">10</text>
<line x1="373.17" y1="35" x2="373.17" y2="475" stroke="#e5e7eb"/>
<text x="373.17" y="502" text-anchor="middle" font-size="12">15</text>
<line x1="472.56" y1="35" x2="472.56" y2="475" stroke="#e5e7eb"/>
<text x="472.56" y="502" text-anchor="middle" font-size="12">20</text>
<line x1="571.95" y1="35" x2="571.95" y2="475" stroke="#e5e7eb"/>
<text x="571.95" y="502" text-anchor="middle" font-size="12">25</text>
<line x1="671.34" y1="35" x2="671.34" y2="475" stroke="#e5e7eb"/>
<text x="671.34" y="502" text-anchor="middle" font-size="12">30</text>
<line x1="770.73" y1="35" x2="770.73" y2="475" stroke="#e5e7eb"/>
<text x="770.73" y="502" text-anchor="middle" font-size="12">35</text>
<line x1="870.12" y1="35" x2="870.12" y2="475" stroke="#e5e7eb"/>
<text x="870.12" y="502" text-anchor="middle" font-size="12">40</text>
<line x1="75" y1="475.00" x2="890" y2="475.00" stroke="#e5e7eb"/>
<text x="66" y="479.00" text-anchor="end" font-size="12">0</text>
<line x1="75" y1="412.14" x2="890" y2="412.14" stroke="#e5e7eb"/>
<text x="66" y="416.14" text-anchor="end" font-size="12">5</text>
<line x1="75" y1="349.29" x2="890" y2="349.29" stroke="#e5e7eb"/>
<text x="66" y="353.29" text-anchor="end" font-size="12">10</text>
<line x1="75" y1="286.43" x2="890" y2="286.43" stroke="#e5e7eb"/>
<text x="66" y="290.43" text-anchor="end" font-size="12">15</text>
<line x1="75" y1="223.57" x2="890" y2="223.57" stroke="#e5e7eb"/>
<text x="66" y="227.57" text-anchor="end" font-size="12">20</text>
<line x1="75" y1="160.71" x2="890" y2="160.71" stroke="#e5e7eb"/>
<text x="66" y="164.71" text-anchor="end" font-size="12">25</text>
<line x1="75" y1="97.86" x2="890" y2="97.86" stroke="#e5e7eb"/>
<text x="66" y="101.86" text-anchor="end" font-size="12">30</text>
<line x1="75" y1="35.00" x2="890" y2="35.00" stroke="#e5e7eb"/>
<text x="66" y="39.00" text-anchor="end" font-size="12">35</text>
<line x1="75" y1="35" x2="75" y2="475" stroke="#111827"/>
<line x1="75" y1="475" x2="890" y2="475" stroke="#111827"/>
<polyline points="104.82,99.02 109.79,94.62 114.76,94.84 119.73,94.26 124.70,94.49 129.66,94.64 134.63,95.05 139.60,94.65 144.57,94.61 149.54,94.25 154.51,94.68 159.48,94.92 164.45,94.36 169.42,94.66 174.39,94.61 179.36,94.54 184.33,94.54 189.30,94.46 194.27,94.99 199.24,94.66 204.21,94.84 209.18,94.41 214.15,94.39 219.12,95.04 224.09,94.75 229.05,94.66 234.02,94.39 238.99,94.41 243.96,94.88 248.93,94.48 253.90,94.95 258.87,94.88 263.84,95.35 268.81,95.85 273.78,100.19 278.75,112.33 283.72,115.20 288.69,116.31 293.66,121.51 298.63,132.90 303.60,189.53 308.57,189.21 313.54,189.25 318.51,189.35 323.48,189.36 328.45,189.28 333.41,189.09 338.38,189.38 343.35,189.45 348.32,189.32 353.29,189.26 358.26,189.25 363.23,189.49 368.20,189.32 373.17,189.58 378.14,189.45 383.11,189.22 388.08,189.16 393.05,189.32 398.02,189.76 402.99,189.59 407.96,189.75 412.93,191.15 417.90,193.00 422.87,196.67 427.84,218.21 432.80,256.11 437.77,256.21 442.74,256.07 447.71,256.10 452.68,256.06 457.65,255.97 462.62,255.87 467.59,256.01 472.56,256.44 477.53,256.01 482.50,255.97 487.47,256.04 492.44,256.28 497.41,256.70 502.38,257.17 507.35,258.27 512.32,259.58 517.29,262.00 522.26,268.17 527.23,298.26 532.20,298.44 537.16,298.39 542.13,298.33 547.10,298.29 552.07,298.44 557.04,298.44 562.01,298.53 566.98,298.37 571.95,298.33 576.92,298.54 581.89,298.33 586.86,298.41 591.83,298.31 596.80,298.41 601.77,298.47 606.74,298.43 611.71,298.33 616.68,298.53 621.65,298.66 626.62,298.64 631.59,298.64 636.55,299.14 641.52,299.43 646.49,299.88 651.46,300.60 656.43,301.93 661.40,303.45 666.37,306.30 671.34,310.01 676.31,335.96 681.28,347.24 686.25,347.20 691.22,347.16 696.19,347.17 701.16,347.16 706.13,347.18 711.10,347.30 716.07,347.27 721.04,347.18 726.01,347.26 730.98,347.24 735.95,347.28 740.91,347.34 745.88,347.21 750.85,347.31 755.82,347.30 760.79,347.26 765.76,347.41 770.73,347.46 775.70,347.68 780.67,347.71 785.64,348.18 790.61,348.40 795.58,348.85 800.55,349.53 805.52,350.65 810.49,352.00 815.46,352.58 820.43,356.52 825.40,358.35 830.37,393.03 835.34,405.27 840.30,405.31 845.27,405.28 850.24,405.25 855.21,405.25 860.18,405.28 865.15,405.24 870.12,405.24 875.09,405.27 880.06,405.31 885.03,405.21" fill="none" stroke="#15803d" stroke-width="2"/>
<path d="M 101.82 96.02 L 107.82 102.02 M 101.82 102.02 L 107.82 96.02" stroke="#15803d" stroke-width="1.5"/>
<path d="M 121.70 91.49 L 127.70 97.49 M 121.70 97.49 L 127.70 91.49" stroke="#15803d" stroke-width="1.5"/>
<path d="M 141.57 91.61 L 147.57 97.61 M 141.57 97.61 L 147.57 91.61" stroke="#15803d" stroke-width="1.5"/>
<path d="M 161.45 91.36 L 167.45 97.36 M 161.45 97.36 L 167.45 91.36" stroke="#15803d" stroke-width="1.5"/>
<path d="M 181.33 91.54 L 187.33 97.54 M 181.33 97.54 L 187.33 91.54" stroke="#15803d" stroke-width="1.5"/>
<path d="M 201.21 91.84 L 207.21 97.84 M 201.21 97.84 L 207.21 91.84" stroke="#15803d" stroke-width="1.5"/>
<path d="M 221.09 91.75 L 227.09 97.75 M 221.09 97.75 L 227.09 91.75" stroke="#15803d" stroke-width="1.5"/>
<path d="M 240.96 91.88 L 246.96 97.88 M 240.96 97.88 L 246.96 91.88" stroke="#15803d" stroke-width="1.5"/>
<path d="M 260.84 92.35 L 266.84 98.35 M 260.84 98.35 L 266.84 92.35" stroke="#15803d" stroke-width="1.5"/>
<path d="M 280.72 112.20 L 286.72 118.20 M 280.72 118.20 L 286.72 112.20" stroke="#15803d" stroke-width="1.5"/>
<path d="M 300.60 186.53 L 306.60 192.53 M 300.60 192.53 L 306.60 186.53" stroke="#15803d" stroke-width="1.5"/>
<path d="M 320.48 186.36 L 326.48 192.36 M 320.48 192.36 L 326.48 186.36" stroke="#15803d" stroke-width="1.5"/>
<path d="M 340.35 186.45 L 346.35 192.45 M 340.35 192.45 L 346.35 186.45" stroke="#15803d" stroke-width="1.5"/>
<path d="M 360.23 186.49 L 366.23 192.49 M 360.23 192.49 L 366.23 186.49" stroke="#15803d" stroke-width="1.5"/>
<path d="M 380.11 186.22 L 386.11 192.22 M 380.11 192.22 L 386.11 186.22" stroke="#15803d" stroke-width="1.5"/>
<path d="M 399.99 186.59 L 405.99 192.59 M 399.99 192.59 L 405.99 186.59" stroke="#15803d" stroke-width="1.5"/>
<path d="M 419.87 193.67 L 425.87 199.67 M 419.87 199.67 L 425.87 193.67" stroke="#15803d" stroke-width="1.5"/>
<path d="M 439.74 253.07 L 445.74 259.07 M 439.74 259.07 L 445.74 253.07" stroke="#15803d" stroke-width="1.5"/>
<path d="M 459.62 252.87 L 465.62 258.87 M 459.62 258.87 L 465.62 252.87" stroke="#15803d" stroke-width="1.5"/>
<path d="M 479.50 252.97 L 485.50 258.97 M 479.50 258.97 L 485.50 252.97" stroke="#15803d" stroke-width="1.5"/>
<path d="M 499.38 254.17 L 505.38 260.17 M 499.38 260.17 L 505.38 254.17" stroke="#15803d" stroke-width="1.5"/>
<path d="M 519.26 265.17 L 525.26 271.17 M 519.26 271.17 L 525.26 265.17" stroke="#15803d" stroke-width="1.5"/>
<path d="M 539.13 295.33 L 545.13 301.33 M 539.13 301.33 L 545.13 295.33" stroke="#15803d" stroke-width="1.5"/>
<path d="M 559.01 295.53 L 565.01 301.53 M 559.01 301.53 L 565.01 295.53" stroke="#15803d" stroke-width="1.5"/>
<path d="M 578.89 295.33 L 584.89 301.33 M 578.89 301.33 L 584.89 295.33" stroke="#15803d" stroke-width="1.5"/>
<path d="M 598.77 295.47 L 604.77 301.47 M 598.77 301.47 L 604.77 295.47" stroke="#15803d" stroke-width="1.5"/>
<path d="M 618.65 295.66 L 624.65 301.66 M 618.65 301.66 L 624.65 295.66" stroke="#15803d" stroke-width="1.5"/>
<path d="M 638.52 296.43 L 644.52 302.43 M 638.52 302.43 L 644.52 296.43" stroke="#15803d" stroke-width="1.5"/>
<path d="M 658.40 300.45 L 664.40 306.45 M 658.40 306.45 L 664.40 300.45" stroke="#15803d" stroke-width="1.5"/>
<path d="M 678.28 344.24 L 684.28 350.24 M 678.28 350.24 L 684.28 344.24" stroke="#15803d" stroke-width="1.5"/>
<path d="M 698.16 344.16 L 704.16 350.16 M 698.16 350.16 L 704.16 344.16" stroke="#15803d" stroke-width="1.5"/>
<path d="M 718.04 344.18 L 724.04 350.18 M 718.04 350.18 L 724.04 344.18" stroke="#15803d" stroke-width="1.5"/>
<path d="M 737.91 344.34 L 743.91 350.34 M 737.91 350.34 L 743.91 344.34" stroke="#15803d" stroke-width="1.5"/>
<path d="M 757.79 344.26 L 763.79 350.26 M 757.79 350.26 L 763.79 344.26" stroke="#15803d" stroke-width="1.5"/>
<path d="M 777.67 344.71 L 783.67 350.71 M 777.67 350.71 L 783.67 344.71" stroke="#15803d" stroke-width="1.5"/>
<path d="M 797.55 346.53 L 803.55 352.53 M 797.55 352.53 L 803.55 346.53" stroke="#15803d" stroke-width="1.5"/>
<path d="M 817.43 353.52 L 823.43 359.52 M 817.43 359.52 L 823.43 353.52" stroke="#15803d" stroke-width="1.5"/>
<path d="M 837.30 402.31 L 843.30 408.31 M 837.30 408.31 L 843.30 402.31" stroke="#15803d" stroke-width="1.5"/>
<path d="M 857.18 402.28 L 863.18 408.28 M 857.18 408.28 L 863.18 402.28" stroke="#15803d" stroke-width="1.5"/>
<path d="M 877.06 402.31 L 883.06 408.31 M 877.06 408.31 L 883.06 402.31" stroke="#15803d" stroke-width="1.5"/>
<polyline points="104.82,99.02 109.79,94.62 114.76,94.84 119.73,94.26 124.70,94.49 129.66,94.64 134.63,95.05 139.60,94.65 144.57,94.61 149.54,94.25 154.51,94.68 159.48,94.92 164.45,94.36 169.42,94.66 174.39,94.61 179.36,94.54 184.33,94.54 189.30,94.46 194.27,94.99 199.24,94.66 204.21,94.84 209.18,94.41 214.15,94.39 219.12,95.04 224.09,94.75 229.05,94.66 234.02,94.39 238.99,94.41 243.96,94.88 248.93,94.48 253.90,94.95 258.87,94.88 263.84,95.35 268.81,95.85 273.78,106.65 278.75,114.53 283.72,115.27 288.69,116.24 293.66,135.18 298.63,138.16 303.60,138.89 308.57,139.36 313.54,158.33 318.51,189.51 323.48,189.29 328.45,189.32 333.41,189.16 338.38,189.16 343.35,189.53 348.32,189.49 353.29,189.12 358.26,189.26 363.23,189.58 368.20,189.23 373.17,189.76 378.14,189.31 383.11,189.11 388.08,189.21 393.05,189.45 398.02,189.61 402.99,189.73 407.96,189.95 412.93,190.92 417.90,217.33 422.87,256.10 427.84,255.78 432.80,255.98 437.77,256.08 442.74,256.16 447.71,256.16 452.68,256.06 457.65,255.91 462.62,255.96 467.59,255.96 472.56,256.40 477.53,255.94 482.50,256.10 487.47,256.07 492.44,256.33 497.41,256.73 502.38,257.23 507.35,258.35 512.32,292.16 517.29,298.28 522.26,298.67 527.23,298.43 532.20,298.29 537.16,298.41 542.13,298.49 547.10,298.27 552.07,298.29 557.04,298.44 562.01,298.47 566.98,298.53 571.95,298.34 576.92,298.34 581.89,298.51 586.86,298.37 591.83,298.34 596.80,298.40 601.77,298.36 606.74,298.59 611.71,298.43 616.68,298.43 621.65,298.69 626.62,298.78 631.59,298.77 636.55,298.94 641.52,299.61 646.49,299.96 651.46,327.85 656.43,347.18 661.40,347.18 666.37,347.17 671.34,347.21 676.31,347.20 681.28,347.21 686.25,347.28 691.22,347.23 696.19,347.21 701.16,347.21 706.13,347.18 711.10,347.16 716.07,347.13 721.04,347.20 726.01,347.23 730.98,347.38 735.95,347.23 740.91,347.23 745.88,347.21 750.85,347.37 755.82,347.36 760.79,347.41 765.76,347.33 770.73,347.44 775.70,347.77 780.67,347.77 785.64,348.03 790.61,348.54 795.58,375.72 800.55,405.24 805.52,405.31 810.49,405.27 815.46,405.28 820.43,405.28 825.40,405.28 830.37,405.28 835.34,405.24 840.30,405.24 845.27,405.24 850.24,405.29 855.21,405.29 860.18,405.21 865.15,405.32 870.12,405.31 875.09,405.27 880.06,405.25 885.03,405.25" fill="none" stroke="#1d4ed8" stroke-width="2"/>
<circle cx="104.82" cy="99.02" r="3" fill="white" stroke="#1d4ed8" stroke-width="1.5"/>
<circle cx="124.70" cy="94.49" r="3" fill="white" stroke="#1d4ed8" stroke-width="1.5"/>
<circle cx="144.57" cy="94.61" r="3" fill="white" stroke="#1d4ed8" stroke-width="1.5"/>
<circle cx="164.45" cy="94.36" r="3" fill="white" stroke="#1d4ed8" stroke-width="1.5"/>
<circle cx="184.33" cy="94.54" r="3" fill="white" stroke="#1d4ed8" stroke-width="1.5"/>
<circle cx="204.21" cy="94.84" r="3" fill="white" stroke="#1d4ed8" stroke-width="1.5"/>
<circle cx="224.09" cy="94.75" r="3" fill="white" stroke="#1d4ed8" stroke-width="1.5"/>
<circle cx="243.96" cy="94.88" r="3" fill="white" stroke="#1d4ed8" stroke-width="1.5"/>
<circle cx="263.84" cy="95.35" r="3" fill="white" stroke="#1d4ed8" stroke-width="1.5"/>
<circle cx="283.72" cy="115.27" r="3" fill="white" stroke="#1d4ed8" stroke-width="1.5"/>
<circle cx="303.60" cy="138.89" r="3" fill="white" stroke="#1d4ed8" stroke-width="1.5"/>
<circle cx="323.48" cy="189.29" r="3" fill="white" stroke="#1d4ed8" stroke-width="1.5"/>
<circle cx="343.35" cy="189.53" r="3" fill="white" stroke="#1d4ed8" stroke-width="1.5"/>
<circle cx="363.23" cy="189.58" r="3" fill="white" stroke="#1d4ed8" stroke-width="1.5"/>
<circle cx="383.11" cy="189.11" r="3" fill="white" stroke="#1d4ed8" stroke-width="1.5"/>
<circle cx="402.99" cy="189.73" r="3" fill="white" stroke="#1d4ed8" stroke-width="1.5"/>
<circle cx="422.87" cy="256.10" r="3" fill="white" stroke="#1d4ed8" stroke-width="1.5"/>
<circle cx="442.74" cy="256.16" r="3" fill="white" stroke="#1d4ed8" stroke-width="1.5"/>
<circle cx="462.62" cy="255.96" r="3" fill="white" stroke="#1d4ed8" stroke-width="1.5"/>
<circle cx="482.50" cy="256.10" r="3" fill="white" stroke="#1d4ed8" stroke-width="1.5"/>
<circle cx="502.38" cy="257.23" r="3" fill="white" stroke="#1d4ed8" stroke-width="1.5"/>
<circle cx="522.26" cy="298.67" r="3" fill="white" stroke="#1d4ed8" stroke-width="1.5"/>
<circle cx="542.13" cy="298.49" r="3" fill="white" stroke="#1d4ed8" stroke-width="1.5"/>
<circle cx="562.01" cy="298.47" r="3" fill="white" stroke="#1d4ed8" stroke-width="1.5"/>
<circle cx="581.89" cy="298.51" r="3" fill="white" stroke="#1d4ed8" stroke-width="1.5"/>
<circle cx="601.77" cy="298.36" r="3" fill="white" stroke="#1d4ed8" stroke-width="1.5"/>
<circle cx="621.65" cy="298.69" r="3" fill="white" stroke="#1d4ed8" stroke-width="1.5"/>
<circle cx="641.52" cy="299.61" r="3" fill="white" stroke="#1d4ed8" stroke-width="1.5"/>
<circle cx="661.40" cy="347.18" r="3" fill="white" stroke="#1d4ed8" stroke-width="1.5"/>
<circle cx="681.28" cy="347.21" r="3" fill="white" stroke="#1d4ed8" stroke-width="1.5"/>
<circle cx="701.16" cy="347.21" r="3" fill="white" stroke="#1d4ed8" stroke-width="1.5"/>
<circle cx="721.04" cy="347.20" r="3" fill="white" stroke="#1d4ed8" stroke-width="1.5"/>
<circle cx="740.91" cy="347.23" r="3" fill="white" stroke="#1d4ed8" stroke-width="1.5"/>
<circle cx="760.79" cy="347.41" r="3" fill="white" stroke="#1d4ed8" stroke-width="1.5"/>
<circle cx="780.67" cy="347.77" r="3" fill="white" stroke="#1d4ed8" stroke-width="1.5"/>
<circle cx="800.55" cy="405.24" r="3" fill="white" stroke="#1d4ed8" stroke-width="1.5"/>
<circle cx="820.43" cy="405.28" r="3" fill="white" stroke="#1d4ed8" stroke-width="1.5"/>
<circle cx="840.30" cy="405.24" r="3" fill="white" stroke="#1d4ed8" stroke-width="1.5"/>
<circle cx="860.18" cy="405.21" r="3" fill="white" stroke="#1d4ed8" stroke-width="1.5"/>
<circle cx="880.06" cy="405.25" r="3" fill="white" stroke="#1d4ed8" stroke-width="1.5"/>
<polyline points="104.82,116.44 109.79,95.16 114.76,94.99 119.73,94.96 124.70,94.55 129.66,94.52 134.63,94.41 139.60,94.49 144.57,94.14 149.54,94.35 154.51,94.54 159.48,94.78 164.45,94.76 169.42,94.06 174.39,94.94 179.36,95.01 184.33,94.71 189.30,94.86 194.27,94.69 199.24,94.82 204.21,94.96 209.18,95.12 214.15,94.98 219.12,94.51 224.09,94.65 229.05,94.64 234.02,94.64 238.99,94.68 243.96,94.59 248.93,94.91 253.90,94.58 258.87,95.06 263.84,95.44 268.81,96.58 273.78,100.45 278.75,112.27 283.72,140.59 288.69,150.02 293.66,121.14 298.63,133.34 303.60,184.72 308.57,202.59 313.54,177.80 318.51,164.84 323.48,177.40 328.45,205.30 333.41,254.57 338.38,230.59 343.35,213.27 348.32,205.31 353.29,205.17 358.26,205.46 363.23,205.41 368.20,205.46 373.17,205.53 378.14,206.06 383.11,205.61 388.08,205.76 393.05,205.76 398.02,205.81 402.99,205.84 407.96,206.49 412.93,207.43 417.90,208.51 422.87,211.57 427.84,217.21 432.80,225.34 437.77,242.70 442.74,266.98 447.71,308.01 452.68,300.46 457.65,281.19 462.62,270.62 467.59,266.07 472.56,266.55 477.53,266.50 482.50,267.08 487.47,266.58 492.44,266.80 497.41,267.05 502.38,267.52 507.35,268.35 512.32,269.99 517.29,271.89 522.26,275.05 527.23,281.22 532.20,287.83 537.16,300.78 542.13,318.44 547.10,332.79 552.07,323.48 557.04,317.15 562.01,314.21 566.98,308.44 571.95,307.35 576.92,307.35 581.89,307.51 586.86,307.33 591.83,307.40 596.80,307.38 601.77,307.50 606.74,307.31 611.71,307.50 616.68,307.61 621.65,307.35 626.62,307.50 631.59,307.91 636.55,307.88 641.52,308.30 646.49,309.00 651.46,309.44 656.43,310.28 661.40,312.20 666.37,313.92 671.34,316.76 676.31,322.02 681.28,327.12 686.25,335.57 691.22,345.24 696.19,360.34 701.16,373.33 706.13,368.49 711.10,367.28 716.07,362.54 721.04,358.11 726.01,355.98 730.98,356.30 735.95,355.68 740.91,355.75 745.88,355.70 750.85,355.68 755.82,355.80 760.79,355.65 765.76,355.85 770.73,355.91 775.70,355.95 780.67,356.12 785.64,356.02 790.61,356.44 795.58,357.24 800.55,357.78 805.52,358.12 810.49,359.37 815.46,360.44 820.43,362.99 825.40,365.32 830.37,368.23 835.34,373.12 840.30,378.53 845.27,385.56 850.24,395.41 855.21,405.79 860.18,416.70 865.15,412.65 870.12,410.01 875.09,407.49 880.06,406.72 885.03,406.39" fill="none" stroke="#dc2626" stroke-width="2"/>
<polygon points="104.82,112.94 101.32,119.44 108.32,119.44" fill="white" stroke="#dc2626" stroke-width="1.5"/>
<polygon points="124.70,91.05 121.20,97.55 128.20,97.55" fill="white" stroke="#dc2626" stroke-width="1.5"/>
<polygon points="144.57,90.64 141.07,97.14 148.07,97.14" fill="white" stroke="#dc2626" stroke-width="1.5"/>
<polygon points="164.45,91.26 160.95,97.76 167.95,97.76" fill="white" stroke="#dc2626" stroke-width="1.5"/>
<polygon points="184.33,91.21 180.83,97.71 187.83,97.71" fill="white" stroke="#dc2626" stroke-width="1.5"/>
<polygon points="204.21,91.46 200.71,97.96 207.71,97.96" fill="white" stroke="#dc2626" stroke-width="1.5"/>
<polygon points="224.09,91.15 220.59,97.65 227.59,97.65" fill="white" stroke="#dc2626" stroke-width="1.5"/>
<polygon points="243.96,91.09 240.46,97.59 247.46,97.59" fill="white" stroke="#dc2626" stroke-width="1.5"/>
<polygon points="263.84,91.94 260.34,98.44 267.34,98.44" fill="white" stroke="#dc2626" stroke-width="1.5"/>
<polygon points="283.72,137.09 280.22,143.59 287.22,143.59" fill="white" stroke="#dc2626" stroke-width="1.5"/>
<polygon points="303.60,181.22 300.10,187.72 307.10,187.72" fill="white" stroke="#dc2626" stroke-width="1.5"/>
<polygon points="323.48,173.90 319.98,180.40 326.98,180.40" fill="white" stroke="#dc2626" stroke-width="1.5"/>
<polygon points="343.35,209.77 339.85,216.27 346.85,216.27" fill="white" stroke="#dc2626" stroke-width="1.5"/>
<polygon points="363.23,201.91 359.73,208.41 366.73,208.41" fill="white" stroke="#dc2626" stroke-width="1.5"/>
<polygon points="383.11,202.11 379.61,208.61 386.61,208.61" fill="white" stroke="#dc2626" stroke-width="1.5"/>
<polygon points="402.99,202.34 399.49,208.84 406.49,208.84" fill="white" stroke="#dc2626" stroke-width="1.5"/>
<polygon points="422.87,208.07 419.37,214.57 426.37,214.57" fill="white" stroke="#dc2626" stroke-width="1.5"/>
<polygon points="442.74,263.48 439.24,269.98 446.24,269.98" fill="white" stroke="#dc2626" stroke-width="1.5"/>
<polygon points="462.62,267.12 459.12,273.62 466.12,273.62" fill="white" stroke="#dc2626" stroke-width="1.5"/>
<polygon points="482.50,263.58 479.00,270.08 486.00,270.08" fill="white" stroke="#dc2626" stroke-width="1.5"/>
<polygon points="502.38,264.02 498.88,270.52 505.88,270.52" fill="white" stroke="#dc2626" stroke-width="1.5"/>
<polygon points="522.26,271.55 518.76,278.05 525.76,278.05" fill="white" stroke="#dc2626" stroke-width="1.5"/>
<polygon points="542.13,314.94 538.63,321.44 545.63,321.44" fill="white" stroke="#dc2626" stroke-width="1.5"/>
<polygon points="562.01,310.71 558.51,317.21 565.51,317.21" fill="white" stroke="#dc2626" stroke-width="1.5"/>
<polygon points="581.89,304.01 578.39,310.51 585.39,310.51" fill="white" stroke="#dc2626" stroke-width="1.5"/>
<polygon points="601.77,304.00 598.27,310.50 605.27,310.50" fill="white" stroke="#dc2626" stroke-width="1.5"/>
<polygon points="621.65,303.85 618.15,310.35 625.15,310.35" fill="white" stroke="#dc2626" stroke-width="1.5"/>
<polygon points="641.52,304.80 638.02,311.30 645.02,311.30" fill="white" stroke="#dc2626" stroke-width="1.5"/>
<polygon points="661.40,308.70 657.90,315.20 664.90,315.20" fill="white" stroke="#dc2626" stroke-width="1.5"/>
<polygon points="681.28,323.62 677.78,330.12 684.78,330.12" fill="white" stroke="#dc2626" stroke-width="1.5"/>
<polygon points="701.16,369.83 697.66,376.33 704.66,376.33" fill="white" stroke="#dc2626" stroke-width="1.5"/>
<polygon points="721.04,354.61 717.54,361.11 724.54,361.11" fill="white" stroke="#dc2626" stroke-width="1.5"/>
<polygon points="740.91,352.25 737.41,358.75 744.41,358.75" fill="white" stroke="#dc2626" stroke-width="1.5"/>
<polygon points="760.79,352.15 757.29,358.65 764.29,358.65" fill="white" stroke="#dc2626" stroke-width="1.5"/>
<polygon points="780.67,352.62 777.17,359.12 784.17,359.12" fill="white" stroke="#dc2626" stroke-width="1.5"/>
<polygon points="800.55,354.28 797.05,360.78 804.05,360.78" fill="white" stroke="#dc2626" stroke-width="1.5"/>
<polygon points="820.43,359.49 816.93,365.99 823.93,365.99" fill="white" stroke="#dc2626" stroke-width="1.5"/>
<polygon points="840.30,375.03 836.80,381.53 843.80,381.53" fill="white" stroke="#dc2626" stroke-width="1.5"/>
<polygon points="860.18,413.20 856.68,419.70 863.68,419.70" fill="white" stroke="#dc2626" stroke-width="1.5"/>
<polygon points="880.06,403.22 876.56,409.72 883.56,409.72" fill="white" stroke="#dc2626" stroke-width="1.5"/>
<text x="460.0" y="23" text-anchor="middle" font-size="18" font-weight="bold">Scenario 1: 20-Run Average Throughput</text>
<text x="460.0" y="530" text-anchor="middle" font-size="14">Distance (m)</text>
<text x="20" y="270.0" text-anchor="middle" font-size="14" transform="rotate(-90 20 270.0)">Throughput (Mbps)</text>
<line x1="590" y1="52" x2="622" y2="52" stroke="#15803d" stroke-width="2"/>
<path d="M 603.00 49.00 L 609.00 55.00 M 603.00 55.00 L 609.00 49.00" stroke="#15803d" stroke-width="1.5"/>
<text x="630" y="56" font-size="13">Reinforce: mean 18.446 Mbps</text>
<line x1="590" y1="76" x2="622" y2="76" stroke="#1d4ed8" stroke-width="2"/>
<circle cx="606.00" cy="76.00" r="3" fill="white" stroke="#1d4ed8" stroke-width="1.5"/>
<text x="630" y="80" font-size="13">Ideal: mean 18.107 Mbps</text>
<line x1="590" y1="100" x2="622" y2="100" stroke="#dc2626" stroke-width="2"/>
<polygon points="606.00,96.50 602.50,103.00 609.50,103.00" fill="white" stroke="#dc2626" stroke-width="1.5"/>
<text x="630" y="104" font-size="13">Minstrel-HT: mean 17.895 Mbps</text>
</svg>