<svg xmlns="http://www.w3.org/2000/svg" width="960" height="560">
<rect width="100%" height="100%" fill="white"/>
<line x1="78.00" y1="42" x2="78.00" y2="494" stroke="#e5e7eb"/>
<text x="78.00" y="522" text-anchor="middle" font-size="12">0</text>
<line x1="184.75" y1="42" x2="184.75" y2="494" stroke="#e5e7eb"/>
<text x="184.75" y="522" text-anchor="middle" font-size="12">5</text>
<line x1="291.50" y1="42" x2="291.50" y2="494" stroke="#e5e7eb"/>
<text x="291.50" y="522" text-anchor="middle" font-size="12">10</text>
<line x1="398.25" y1="42" x2="398.25" y2="494" stroke="#e5e7eb"/>
<text x="398.25" y="522" text-anchor="middle" font-size="12">15</text>
<line x1="505.00" y1="42" x2="505.00" y2="494" stroke="#e5e7eb"/>
<text x="505.00" y="522" text-anchor="middle" font-size="12">20</text>
<line x1="611.75" y1="42" x2="611.75" y2="494" stroke="#e5e7eb"/>
<text x="611.75" y="522" text-anchor="middle" font-size="12">25</text>
<line x1="718.50" y1="42" x2="718.50" y2="494" stroke="#e5e7eb"/>
<text x="718.50" y="522" text-anchor="middle" font-size="12">30</text>
<line x1="825.25" y1="42" x2="825.25" y2="494" stroke="#e5e7eb"/>
<text x="825.25" y="522" text-anchor="middle" font-size="12">35</text>
<line x1="932.00" y1="42" x2="932.00" y2="494" stroke="#e5e7eb"/>
<text x="932.00" y="522" text-anchor="middle" font-size="12">40</text>
<line x1="78" y1="494.00" x2="932" y2="494.00" stroke="#e5e7eb"/>
<text x="69" y="498.00" text-anchor="end" font-size="12">0</text>
<line x1="78" y1="459.23" x2="932" y2="459.23" stroke="#e5e7eb"/>
<text x="69" y="463.23" text-anchor="end" font-size="12">5</text>
<line x1="78" y1="424.46" x2="932" y2="424.46" stroke="#e5e7eb"/>
<text x="69" y="428.46" text-anchor="end" font-size="12">10</text>
<line x1="78" y1="389.69" x2="932" y2="389.69" stroke="#e5e7eb"/>
<text x="69" y="393.69" text-anchor="end" font-size="12">15</text>
<line x1="78" y1="354.92" x2="932" y2="354.92" stroke="#e5e7eb"/>
<text x="69" y="358.92" text-anchor="end" font-size="12">20</text>
<line x1="78" y1="320.15" x2="932" y2="320.15" stroke="#e5e7eb"/>
<text x="69" y="324.15" text-anchor="end" font-size="12">25</text>
<line x1="78" y1="285.38" x2="932" y2="285.38" stroke="#e5e7eb"/>
<text x="69" y="289.38" text-anchor="end" font-size="12">30</text>
<line x1="78" y1="250.62" x2="932" y2="250.62" stroke="#e5e7eb"/>
<text x="69" y="254.62" text-anchor="end" font-size="12">35</text>
<line x1="78" y1="215.85" x2="932" y2="215.85" stroke="#e5e7eb"/>
<text x="69" y="219.85" text-anchor="end" font-size="12">40</text>
<line x1="78" y1="181.08" x2="932" y2="181.08" stroke="#e5e7eb"/>
<text x="69" y="185.08" text-anchor="end" font-size="12">45</text>
<line x1="78" y1="146.31" x2="932" y2="146.31" stroke="#e5e7eb"/>
<text x="69" y="150.31" text-anchor="end" font-size="12">50</text>
<line x1="78" y1="111.54" x2="932" y2="111.54" stroke="#e5e7eb"/>
<text x="69" y="115.54" text-anchor="end" font-size="12">55</text>
<line x1="78" y1="76.77" x2="932" y2="76.77" stroke="#e5e7eb"/>
<text x="69" y="80.77" text-anchor="end" font-size="12">60</text>
<line x1="78" y1="42.00" x2="932" y2="42.00" stroke="#e5e7eb"/>
<text x="69" y="46.00" text-anchor="end" font-size="12">65</text>
<line x1="78" y1="42" x2="78" y2="494" stroke="#111827"/>
<line x1="78" y1="494" x2="932" y2="494" stroke="#111827"/>
<polyline points="99.35,84.80 110.03,80.54 120.70,80.54 131.38,80.69 142.05,80.22 152.72,80.69 163.40,80.22 174.07,81.01 184.75,80.22 195.43,80.22 206.10,80.85 216.78,79.90 227.45,80.22 238.12,80.22 248.80,80.38 259.48,79.59 270.15,80.06 280.82,79.90 291.50,80.69 302.18,79.90 312.85,80.38 323.52,80.38 334.20,108.66 344.88,165.22 355.55,240.27 366.23,246.11 376.90,247.38 387.57,268.70 398.25,329.06 408.93,329.06 419.60,334.90 430.27,334.59 440.95,329.06 451.62,328.74 462.30,269.65 472.98,246.27 483.65,245.64 494.32,244.22 505.00,162.69 515.67,164.59 526.35,240.11 537.02,245.95 547.70,246.11 558.38,246.43 569.05,246.11 579.73,243.11 590.40,165.85 601.08,163.48 611.75,242.00 622.42,245.95 633.10,246.11 643.77,246.59 654.45,245.80 665.12,242.32 675.80,164.27 686.48,164.27 697.15,243.11 707.83,245.95 718.50,247.06 729.17,245.80 739.85,246.11 750.52,242.79 761.20,164.75 771.88,163.96 782.55,240.27 793.23,246.27 803.90,245.80 814.58,246.59 825.25,245.48 835.92,241.69 846.60,163.80 857.27,107.55 867.95,80.54 878.62,80.38 889.30,80.22 899.98,80.06 910.65,79.75 921.33,80.22" fill="none" stroke="#15803d" stroke-width="2"/>
<polyline points="99.35,103.13 110.03,79.59 120.70,83.38 131.38,83.38 142.05,80.38 152.72,80.06 163.40,80.06 174.07,80.22 184.75,80.54 195.43,79.90 206.10,80.38 216.78,79.59 227.45,80.22 238.12,80.06 248.80,80.06 259.48,80.38 270.15,80.54 280.82,80.38 291.50,80.38 302.18,79.59 312.85,80.38 323.52,79.90 334.20,125.09 344.88,210.41 355.55,304.09 366.23,251.80 376.90,248.64 387.57,273.29 398.25,387.67 408.93,374.72 419.60,372.03 430.27,374.72 440.95,375.03 451.62,372.03 462.30,374.87 472.98,370.61 483.65,373.14 494.32,367.92 505.00,369.98 515.67,370.92 526.35,368.24 537.02,374.08 547.70,376.30 558.38,372.19 569.05,372.03 579.73,372.19 590.40,368.71 601.08,368.55 611.75,370.92 622.42,365.39 633.10,251.96 643.77,252.59 654.45,249.59 665.12,247.53 675.80,250.22 686.48,245.80 697.15,251.64 707.83,248.80 718.50,251.96 729.17,249.59 739.85,249.43 750.52,251.80 761.20,246.59 771.88,249.75 782.55,250.22 793.23,247.22 803.90,252.27 814.58,248.48 825.25,249.59 835.92,251.64 846.60,247.06 857.27,243.11 867.95,248.64 878.62,245.64 889.30,244.22 899.98,248.48 910.65,243.11 921.33,245.32" fill="none" stroke="#dc2626" stroke-width="2"/>
<polyline points="99.35,84.80 110.03,80.54 120.70,80.54 131.38,80.69 142.05,80.22 152.72,80.69 163.40,80.22 174.07,81.01 184.75,80.22 195.43,80.22 206.10,80.85 216.78,79.90 227.45,80.22 238.12,80.22 248.80,80.38 259.48,79.59 270.15,80.06 280.82,79.90 291.50,80.69 302.18,79.90 312.85,80.38 323.52,80.38 334.20,116.87 344.88,194.92 355.55,245.95 366.23,246.27 376.90,246.74 387.57,319.58 398.25,328.90 408.93,329.69 419.60,362.08 430.27,363.03 440.95,329.21 451.62,328.74 462.30,321.79 472.98,245.80 483.65,245.64 494.32,245.95 505.00,197.29 515.67,195.08 526.35,245.80 537.02,245.80 547.70,246.11 558.38,246.27 569.05,245.95 579.73,245.80 590.40,198.24 601.08,195.24 611.75,245.64 622.42,245.95 633.10,246.59 643.77,246.43 654.45,245.80 665.12,245.48 675.80,197.13 686.48,195.71 697.15,245.95 707.83,245.95 718.50,245.80 729.17,246.59 739.85,245.80 750.52,246.27 761.20,197.77 771.88,195.08 782.55,245.95 793.23,246.11 803.90,246.11 814.58,246.11 825.25,245.48 835.92,245.95 846.60,197.77 857.27,119.72 867.95,80.85 878.62,80.22 889.30,80.22 899.98,79.90 910.65,79.59 921.33,80.54" fill="none" stroke="#1d4ed8" stroke-width="2"/>
<text x="480.0" y="25" text-anchor="middle" font-size="18" font-weight="bold">Scenario 2 Run 1: A-MPDU Enabled (seed 988104074)</text>
<text x="480.0" y="550" text-anchor="middle" font-size="14">Simulation time (s)</text>
<text x="20" y="280.0" text-anchor="middle" font-size="14" transform="rotate(-90 20 280.0)">Throughput (Mbps)</text>
<line x1="620" y1="58" x2="654" y2="58" stroke="#15803d" stroke-width="3"/>
<text x="662" y="62" font-size="13">reinforce (mean 45.267 Mbps)</text>
<line x1="620" y1="82" x2="654" y2="82" stroke="#dc2626" stroke-width="3"/>
<text x="662" y="86" font-size="13">Minstrel-HT (mean 37.190 Mbps)</text>
<line x1="620" y1="106" x2="654" y2="106" stroke="#1d4ed8" stroke-width="3"/>
<text x="662" y="110" font-size="13">Ideal (mean 44.276 Mbps)</text>
</svg>