<svg xmlns="http://www.w3.org/2000/svg" width="960" height="560">
<rect width="100%" height="100%" fill="white"/>
<line x1="78.00" y1="42" x2="78.00" y2="494" stroke="#e5e7eb"/>
<text x="78.00" y="522" text-anchor="middle" font-size="12">0</text>
<line x1="184.75" y1="42" x2="184.75" y2="494" stroke="#e5e7eb"/>
<text x="184.75" y="522" text-anchor="middle" font-size="12">5</text>
<line x1="291.50" y1="42" x2="291.50" y2="494" stroke="#e5e7eb"/>
<text x="291.50" y="522" text-anchor="middle" font-size="12">10</text>
<line x1="398.25" y1="42" x2="398.25" y2="494" stroke="#e5e7eb"/>
<text x="398.25" y="522" text-anchor="middle" font-size="12">15</text>
<line x1="505.00" y1="42" x2="505.00" y2="494" stroke="#e5e7eb"/>
<text x="505.00" y="522" text-anchor="middle" font-size="12">20</text>
<line x1="611.75" y1="42" x2="611.75" y2="494" stroke="#e5e7eb"/>
<text x="611.75" y="522" text-anchor="middle" font-size="12">25</text>
<line x1="718.50" y1="42" x2="718.50" y2="494" stroke="#e5e7eb"/>
<text x="718.50" y="522" text-anchor="middle" font-size="12">30</text>
<line x1="825.25" y1="42" x2="825.25" y2="494" stroke="#e5e7eb"/>
<text x="825.25" y="522" text-anchor="middle" font-size="12">35</text>
<line x1="932.00" y1="42" x2="932.00" y2="494" stroke="#e5e7eb"/>
<text x="932.00" y="522" text-anchor="middle" font-size="12">40</text>
<line x1="78" y1="494.00" x2="932" y2="494.00" stroke="#e5e7eb"/>
<text x="69" y="498.00" text-anchor="end" font-size="12">0</text>
<line x1="78" y1="459.23" x2="932" y2="459.23" stroke="#e5e7eb"/>
<text x="69" y="463.23" text-anchor="end" font-size="12">5</text>
<line x1="78" y1="424.46" x2="932" y2="424.46" stroke="#e5e7eb"/>
<text x="69" y="428.46" text-anchor="end" font-size="12">10</text>
<line x1="78" y1="389.69" x2="932" y2="389.69" stroke="#e5e7eb"/>
<text x="69" y="393.69" text-anchor="end" font-size="12">15</text>
<line x1="78" y1="354.92" x2="932" y2="354.92" stroke="#e5e7eb"/>
<text x="69" y="358.92" text-anchor="end" font-size="12">20</text>
<line x1="78" y1="320.15" x2="932" y2="320.15" stroke="#e5e7eb"/>
<text x="69" y="324.15" text-anchor="end" font-size="12">25</text>
<line x1="78" y1="285.38" x2="932" y2="285.38" stroke="#e5e7eb"/>
<text x="69" y="289.38" text-anchor="end" font-size="12">30</text>
<line x1="78" y1="250.62" x2="932" y2="250.62" stroke="#e5e7eb"/>
<text x="69" y="254.62" text-anchor="end" font-size="12">35</text>
<line x1="78" y1="215.85" x2="932" y2="215.85" stroke="#e5e7eb"/>
<text x="69" y="219.85" text-anchor="end" font-size="12">40</text>
<line x1="78" y1="181.08" x2="932" y2="181.08" stroke="#e5e7eb"/>
<text x="69" y="185.08" text-anchor="end" font-size="12">45</text>
<line x1="78" y1="146.31" x2="932" y2="146.31" stroke="#e5e7eb"/>
<text x="69" y="150.31" text-anchor="end" font-size="12">50</text>
<line x1="78" y1="111.54" x2="932" y2="111.54" stroke="#e5e7eb"/>
<text x="69" y="115.54" text-anchor="end" font-size="12">55</text>
<line x1="78" y1="76.77" x2="932" y2="76.77" stroke="#e5e7eb"/>
<text x="69" y="80.77" text-anchor="end" font-size="12">60</text>
<line x1="78" y1="42.00" x2="932" y2="42.00" stroke="#e5e7eb"/>
<text x="69" y="46.00" text-anchor="end" font-size="12">65</text>
<line x1="78" y1="42" x2="78" y2="494" stroke="#111827"/>
<line x1="78" y1="494" x2="932" y2="494" stroke="#111827"/>
<polyline points="99.35,83.54 110.03,80.85 120.70,80.06 131.38,80.38 142.05,80.85 152.72,80.06 163.40,79.90 174.07,80.38 184.75,80.38 195.43,79.43 206.10,80.06 216.78,80.54 227.45,80.69 238.12,80.22 248.80,105.34 259.48,166.96 270.15,238.05 280.82,245.80 291.50,246.74 302.18,266.02 312.85,328.90 323.52,329.21 334.20,334.11 344.88,386.88 355.55,342.17 366.23,329.53 376.90,329.21 387.57,328.58 398.25,329.85 408.93,345.65 419.60,388.30 430.27,334.11 440.95,329.21 451.62,328.90 462.30,268.70 472.98,267.12 483.65,328.74 494.32,329.21 505.00,336.32 515.67,381.83 526.35,346.12 537.02,330.00 547.70,328.90 558.38,328.90 569.05,329.69 579.73,345.96 590.40,384.99 601.08,381.04 611.75,347.54 622.42,329.37 633.10,328.90 643.77,329.06 654.45,330.00 665.12,345.33 675.80,386.25 686.48,382.93 697.15,346.12 707.83,329.37 718.50,328.74 729.17,297.14 739.85,246.43 750.52,245.95 761.20,245.80 771.88,246.11 782.55,245.80 793.23,247.38 803.90,293.83 814.58,296.35 825.25,248.32 835.92,245.80 846.60,246.11 857.27,193.97 867.95,130.30 878.62,78.32 889.30,80.85 899.98,80.06 910.65,81.80 921.33,127.46" fill="none" stroke="#15803d" stroke-width="2"/>
<polyline points="99.35,95.55 110.03,79.59 120.70,85.91 131.38,80.38 142.05,80.38 152.72,80.22 163.40,80.54 174.07,80.22 184.75,79.75 195.43,80.22 206.10,80.38 216.78,80.22 227.45,80.22 238.12,80.38 248.80,139.31 259.48,198.71 270.15,278.18 280.82,251.48 291.50,252.43 302.18,266.65 312.85,391.31 323.52,374.40 334.20,373.61 344.88,373.29 355.55,374.87 366.23,373.77 376.90,372.82 387.57,374.24 398.25,373.45 408.93,372.03 419.60,373.14 430.27,374.08 440.95,373.77 451.62,372.50 462.30,374.87 472.98,371.24 483.65,374.08 494.32,372.98 505.00,373.45 515.67,374.87 526.35,372.82 537.02,373.93 547.70,373.45 558.38,373.93 569.05,373.14 579.73,373.45 590.40,373.29 601.08,373.93 611.75,372.82 622.42,371.87 633.10,374.24 643.77,373.93 654.45,374.87 665.12,374.08 675.80,373.61 686.48,374.08 697.15,373.14 707.83,373.45 718.50,373.14 729.17,374.87 739.85,370.13 750.52,371.24 761.20,373.77 771.88,374.87 782.55,372.19 793.23,374.08 803.90,371.87 814.58,372.35 825.25,373.93 835.92,372.03 846.60,374.87 857.27,372.82 867.95,332.53 878.62,163.17 889.30,163.64 899.98,162.53 910.65,168.06 921.33,162.38" fill="none" stroke="#dc2626" stroke-width="2"/>
<polyline points="99.35,83.54 110.03,80.85 120.70,80.06 131.38,80.38 142.05,80.85 152.72,80.06 163.40,79.90 174.07,80.38 184.75,80.38 195.43,79.43 206.10,80.06 216.78,80.54 227.45,80.69 238.12,80.22 248.80,118.14 259.48,195.08 270.15,245.95 280.82,245.80 291.50,245.95 302.18,319.42 312.85,328.90 323.52,329.21 334.20,362.08 344.88,370.61 355.55,370.61 366.23,335.85 376.90,329.21 387.57,328.74 398.25,334.27 408.93,370.45 419.60,370.45 430.27,363.18 440.95,329.21 451.62,328.74 462.30,323.21 472.98,318.16 483.65,329.06 494.32,328.74 505.00,362.39 515.67,370.45 526.35,370.29 537.02,336.17 547.70,328.74 558.38,329.21 569.05,335.06 579.73,370.77 590.40,370.45 601.08,370.45 611.75,370.61 622.42,335.69 633.10,328.90 643.77,328.90 654.45,334.43 665.12,370.45 675.80,370.61 686.48,370.45 697.15,370.61 707.83,335.69 718.50,328.90 729.17,328.74 739.85,266.65 750.52,245.80 761.20,245.95 771.88,245.80 782.55,245.80 793.23,264.28 803.90,328.90 814.58,328.74 825.25,266.65 835.92,246.11 846.60,245.80 857.27,224.94 867.95,142.15 878.62,85.43 889.30,80.38 899.98,80.54 910.65,83.54 921.33,140.89" fill="none" stroke="#1d4ed8" stroke-width="2"/>
<text x="480.0" y="25" text-anchor="middle" font-size="18" font-weight="bold">Scenario 2 Run 5: A-MPDU Enabled (seed 1426703850)</text>
<text x="480.0" y="550" text-anchor="middle" font-size="14">Simulation time (s)</text>
<text x="20" y="280.0" text-anchor="middle" font-size="14" transform="rotate(-90 20 280.0)">Throughput (Mbps)</text>
<line x1="620" y1="58" x2="654" y2="58" stroke="#15803d" stroke-width="3"/>
<text x="662" y="62" font-size="13">reinforce (mean 35.070 Mbps)</text>
<line x1="620" y1="82" x2="654" y2="82" stroke="#dc2626" stroke-width="3"/>
<text x="662" y="86" font-size="13">Minstrel-HT (mean 28.418 Mbps)</text>
<line x1="620" y1="106" x2="654" y2="106" stroke="#1d4ed8" stroke-width="3"/>
<text x="662" y="110" font-size="13">Ideal (mean 33.918 Mbps)</text>
</svg>