<svg xmlns="http://www.w3.org/2000/svg" width="960" height="560">
<rect width="100%" height="100%" fill="white"/>
<line x1="78.00" y1="42" x2="78.00" y2="494" stroke="#e5e7eb"/>
<text x="78.00" y="522" text-anchor="middle" font-size="12">0</text>
<line x1="184.75" y1="42" x2="184.75" y2="494" stroke="#e5e7eb"/>
<text x="184.75" y="522" text-anchor="middle" font-size="12">5</text>
<line x1="291.50" y1="42" x2="291.50" y2="494" stroke="#e5e7eb"/>
<text x="291.50" y="522" text-anchor="middle" font-size="12">10</text>
<line x1="398.25" y1="42" x2="398.25" y2="494" stroke="#e5e7eb"/>
<text x="398.25" y="522" text-anchor="middle" font-size="12">15</text>
<line x1="505.00" y1="42" x2="505.00" y2="494" stroke="#e5e7eb"/>
<text x="505.00" y="522" text-anchor="middle" font-size="12">20</text>
<line x1="611.75" y1="42" x2="611.75" y2="494" stroke="#e5e7eb"/>
<text x="611.75" y="522" text-anchor="middle" font-size="12">25</text>
<line x1="718.50" y1="42" x2="718.50" y2="494" stroke="#e5e7eb"/>
<text x="718.50" y="522" text-anchor="middle" font-size="12">30</text>
<line x1="825.25" y1="42" x2="825.25" y2="494" stroke="#e5e7eb"/>
<text x="825.25" y="522" text-anchor="middle" font-size="12">35</text>
<line x1="932.00" y1="42" x2="932.00" y2="494" stroke="#e5e7eb"/>
<text x="932.00" y="522" text-anchor="middle" font-size="12">40</text>
<line x1="78" y1="494.00" x2="932" y2="494.00" stroke="#e5e7eb"/>
<text x="69" y="498.00" text-anchor="end" font-size="12">0</text>
<line x1="78" y1="459.23" x2="932" y2="459.23" stroke="#e5e7eb"/>
<text x="69" y="463.23" text-anchor="end" font-size="12">5</text>
<line x1="78" y1="424.46" x2="932" y2="424.46" stroke="#e5e7eb"/>
<text x="69" y="428.46" text-anchor="end" font-size="12">10</text>
<line x1="78" y1="389.69" x2="932" y2="389.69" stroke="#e5e7eb"/>
<text x="69" y="393.69" text-anchor="end" font-size="12">15</text>
<line x1="78" y1="354.92" x2="932" y2="354.92" stroke="#e5e7eb"/>
<text x="69" y="358.92" text-anchor="end" font-size="12">20</text>
<line x1="78" y1="320.15" x2="932" y2="320.15" stroke="#e5e7eb"/>
<text x="69" y="324.15" text-anchor="end" font-size="12">25</text>
<line x1="78" y1="285.38" x2="932" y2="285.38" stroke="#e5e7eb"/>
<text x="69" y="289.38" text-anchor="end" font-size="12">30</text>
<line x1="78" y1="250.62" x2="932" y2="250.62" stroke="#e5e7eb"/>
<text x="69" y="254.62" text-anchor="end" font-size="12">35</text>
<line x1="78" y1="215.85" x2="932" y2="215.85" stroke="#e5e7eb"/>
<text x="69" y="219.85" text-anchor="end" font-size="12">40</text>
<line x1="78" y1="181.08" x2="932" y2="181.08" stroke="#e5e7eb"/>
<text x="69" y="185.08" text-anchor="end" font-size="12">45</text>
<line x1="78" y1="146.31" x2="932" y2="146.31" stroke="#e5e7eb"/>
<text x="69" y="150.31" text-anchor="end" font-size="12">50</text>
<line x1="78" y1="111.54" x2="932" y2="111.54" stroke="#e5e7eb"/>
<text x="69" y="115.54" text-anchor="end" font-size="12">55</text>
<line x1="78" y1="76.77" x2="932" y2="76.77" stroke="#e5e7eb"/>
<text x="69" y="80.77" text-anchor="end" font-size="12">60</text>
<line x1="78" y1="42.00" x2="932" y2="42.00" stroke="#e5e7eb"/>
<text x="69" y="46.00" text-anchor="end" font-size="12">65</text>
<line x1="78" y1="42" x2="78" y2="494" stroke="#111827"/>
<line x1="78" y1="494" x2="932" y2="494" stroke="#111827"/>
<polyline points="99.35,85.43 110.03,80.54 120.70,80.38 131.38,80.69 142.05,80.22 152.72,81.01 163.40,104.08 174.07,163.64 184.75,241.69 195.43,245.64 206.10,246.74 216.78,268.55 227.45,328.58 238.12,329.69 248.80,334.27 259.48,379.93 270.15,343.28 280.82,329.85 291.50,328.90 302.18,328.90 312.85,329.69 323.52,346.59 334.20,382.30 344.88,335.22 355.55,329.06 366.23,328.74 376.90,268.39 387.57,268.86 398.25,328.90 408.93,328.90 419.60,336.96 430.27,381.04 440.95,345.65 451.62,330.79 462.30,328.74 472.98,328.90 483.65,330.16 494.32,350.54 505.00,380.25 515.67,335.06 526.35,328.74 537.02,328.74 547.70,269.49 558.38,246.11 569.05,246.11 579.73,242.48 590.40,162.69 601.08,103.29 611.75,80.38 622.42,79.90 633.10,80.69 643.77,80.38 654.45,80.54 665.12,79.90 675.80,80.22 686.48,80.38 697.15,80.38 707.83,79.75 718.50,80.38 729.17,80.22 739.85,80.69 750.52,80.54 761.20,79.90 771.88,80.38 782.55,79.75 793.23,80.06 803.90,79.59 814.58,80.38 825.25,80.06 835.92,80.22 846.60,105.18 857.27,105.50 867.95,80.22 878.62,80.54 889.30,80.22 899.98,80.06 910.65,79.43 921.33,80.69" fill="none" stroke="#15803d" stroke-width="2"/>
<polyline points="99.35,89.54 110.03,83.70 120.70,82.59 131.38,79.75 142.05,79.59 152.72,80.22 163.40,133.94 174.07,200.77 184.75,291.14 195.43,245.80 206.10,248.80 216.78,270.28 227.45,376.93 238.12,374.72 248.80,372.98 259.48,372.98 270.15,373.29 280.82,372.98 291.50,374.72 302.18,371.87 312.85,374.72 323.52,374.87 334.20,374.87 344.88,373.14 355.55,374.87 366.23,373.93 376.90,372.98 387.57,372.03 398.25,372.50 408.93,373.93 419.60,374.87 430.27,373.93 440.95,371.71 451.62,375.03 462.30,373.93 472.98,375.03 483.65,373.29 494.32,373.14 505.00,373.93 515.67,374.08 526.35,373.45 537.02,372.98 547.70,374.87 558.38,370.92 569.05,372.98 579.73,372.19 590.40,369.50 601.08,365.39 611.75,365.87 622.42,135.36 633.10,125.09 643.77,125.25 654.45,122.56 665.12,125.09 675.80,126.20 686.48,122.56 697.15,124.77 707.83,124.14 718.50,121.30 729.17,123.51 739.85,124.77 750.52,126.99 761.20,122.09 771.88,121.46 782.55,126.20 793.23,123.83 803.90,124.93 814.58,123.04 825.25,123.98 835.92,126.83 846.60,124.62 857.27,126.67 867.95,124.93 878.62,124.30 889.30,122.40 899.98,124.30 910.65,123.67 921.33,122.72" fill="none" stroke="#dc2626" stroke-width="2"/>
<polyline points="99.35,85.43 110.03,80.54 120.70,80.38 131.38,80.69 142.05,80.22 152.72,81.01 163.40,116.56 174.07,194.29 184.75,246.11 195.43,245.80 206.10,246.59 216.78,319.89 227.45,328.58 238.12,329.21 248.80,361.92 259.48,370.61 270.15,370.45 280.82,336.17 291.50,328.74 302.18,328.90 312.85,334.43 323.52,370.45 334.20,370.61 344.88,363.34 355.55,329.21 366.23,328.58 376.90,322.11 387.57,319.42 398.25,328.90 408.93,329.21 419.60,362.55 430.27,370.61 440.95,370.61 451.62,335.85 462.30,328.90 472.98,328.74 483.65,334.74 494.32,370.61 505.00,370.45 515.67,363.03 526.35,328.90 537.02,328.74 547.70,321.63 558.38,246.27 569.05,246.11 579.73,246.11 590.40,197.45 601.08,119.56 611.75,81.01 622.42,79.75 633.10,80.54 643.77,80.69 654.45,80.38 665.12,79.59 675.80,80.69 686.48,80.22 697.15,80.06 707.83,80.38 718.50,79.75 729.17,80.54 739.85,80.85 750.52,79.90 761.20,80.54 771.88,79.75 782.55,80.22 793.23,79.75 803.90,80.06 814.58,80.06 825.25,80.06 835.92,80.69 846.60,118.14 857.27,118.61 867.95,80.38 878.62,80.69 889.30,80.22 899.98,80.06 910.65,79.59 921.33,80.54" fill="none" stroke="#1d4ed8" stroke-width="2"/>
<text x="480.0" y="25" text-anchor="middle" font-size="18" font-weight="bold">Scenario 2 Run 3: A-MPDU Enabled (seed 1190136756)</text>
<text x="480.0" y="550" text-anchor="middle" font-size="14">Simulation time (s)</text>
<text x="20" y="280.0" text-anchor="middle" font-size="14" transform="rotate(-90 20 280.0)">Throughput (Mbps)</text>
<line x1="620" y1="58" x2="654" y2="58" stroke="#15803d" stroke-width="3"/>
<text x="662" y="62" font-size="13">reinforce (mean 42.388 Mbps)</text>
<line x1="620" y1="82" x2="654" y2="82" stroke="#dc2626" stroke-width="3"/>
<text x="662" y="86" font-size="13">Minstrel-HT (mean 35.448 Mbps)</text>
<line x1="620" y1="106" x2="654" y2="106" stroke="#1d4ed8" stroke-width="3"/>
<text x="662" y="110" font-size="13">Ideal (mean 41.425 Mbps)</text>
</svg>