<svg xmlns="http://www.w3.org/2000/svg" width="960" height="560">
<rect width="100%" height="100%" fill="white"/>
<line x1="78.00" y1="42" x2="78.00" y2="494" stroke="#e5e7eb"/>
<text x="78.00" y="522" text-anchor="middle" font-size="12">0</text>
<line x1="184.75" y1="42" x2="184.75" y2="494" stroke="#e5e7eb"/>
<text x="184.75" y="522" text-anchor="middle" font-size="12">5</text>
<line x1="291.50" y1="42" x2="291.50" y2="494" stroke="#e5e7eb"/>
<text x="291.50" y="522" text-anchor="middle" font-size="12">10</text>
<line x1="398.25" y1="42" x2="398.25" y2="494" stroke="#e5e7eb"/>
<text x="398.25" y="522" text-anchor="middle" font-size="12">15</text>
<line x1="505.00" y1="42" x2="505.00" y2="494" stroke="#e5e7eb"/>
<text x="505.00" y="522" text-anchor="middle" font-size="12">20</text>
<line x1="611.75" y1="42" x2="611.75" y2="494" stroke="#e5e7eb"/>
<text x="611.75" y="522" text-anchor="middle" font-size="12">25</text>
<line x1="718.50" y1="42" x2="718.50" y2="494" stroke="#e5e7eb"/>
<text x="718.50" y="522" text-anchor="middle" font-size="12">30</text>
<line x1="825.25" y1="42" x2="825.25" y2="494" stroke="#e5e7eb"/>
<text x="825.25" y="522" text-anchor="middle" font-size="12">35</text>
<line x1="932.00" y1="42" x2="932.00" y2="494" stroke="#e5e7eb"/>
<text x="932.00" y="522" text-anchor="middle" font-size="12">40</text>
<line x1="78" y1="494.00" x2="932" y2="494.00" stroke="#e5e7eb"/>
<text x="69" y="498.00" text-anchor="end" font-size="12">0</text>
<line x1="78" y1="459.23" x2="932" y2="459.23" stroke="#e5e7eb"/>
<text x="69" y="463.23" text-anchor="end" font-size="12">5</text>
<line x1="78" y1="424.46" x2="932" y2="424.46" stroke="#e5e7eb"/>
<text x="69" y="428.46" text-anchor="end" font-size="12">10</text>
<line x1="78" y1="389.69" x2="932" y2="389.69" stroke="#e5e7eb"/>
<text x="69" y="393.69" text-anchor="end" font-size="12">15</text>
<line x1="78" y1="354.92" x2="932" y2="354.92" stroke="#e5e7eb"/>
<text x="69" y="358.92" text-anchor="end" font-size="12">20</text>
<line x1="78" y1="320.15" x2="932" y2="320.15" stroke="#e5e7eb"/>
<text x="69" y="324.15" text-anchor="end" font-size="12">25</text>
<line x1="78" y1="285.38" x2="932" y2="285.38" stroke="#e5e7eb"/>
<text x="69" y="289.38" text-anchor="end" font-size="12">30</text>
<line x1="78" y1="250.62" x2="932" y2="250.62" stroke="#e5e7eb"/>
<text x="69" y="254.62" text-anchor="end" font-size="12">35</text>
<line x1="78" y1="215.85" x2="932" y2="215.85" stroke="#e5e7eb"/>
<text x="69" y="219.85" text-anchor="end" font-size="12">40</text>
<line x1="78" y1="181.08" x2="932" y2="181.08" stroke="#e5e7eb"/>
<text x="69" y="185.08" text-anchor="end" font-size="12">45</text>
<line x1="78" y1="146.31" x2="932" y2="146.31" stroke="#e5e7eb"/>
<text x="69" y="150.31" text-anchor="end" font-size="12">50</text>
<line x1="78" y1="111.54" x2="932" y2="111.54" stroke="#e5e7eb"/>
<text x="69" y="115.54" text-anchor="end" font-size="12">55</text>
<line x1="78" y1="76.77" x2="932" y2="76.77" stroke="#e5e7eb"/>
<text x="69" y="80.77" text-anchor="end" font-size="12">60</text>
<line x1="78" y1="42.00" x2="932" y2="42.00" stroke="#e5e7eb"/>
<text x="69" y="46.00" text-anchor="end" font-size="12">65</text>
<line x1="78" y1="42" x2="78" y2="494" stroke="#111827"/>
<line x1="78" y1="494" x2="932" y2="494" stroke="#111827"/>
<polyline points="99.35,91.12 110.03,80.38 120.70,80.38 131.38,80.06 142.05,81.48 152.72,128.72 163.40,190.02 174.07,245.80 184.75,245.95 195.43,247.53 206.10,294.14 216.78,328.90 227.45,329.37 238.12,345.33 248.80,381.98 259.48,335.69 270.15,329.21 280.82,328.74 291.50,269.02 302.18,270.13 312.85,329.06 323.52,328.90 334.20,335.22 344.88,337.11 355.55,329.21 366.23,328.90 376.90,267.28 387.57,267.91 398.25,329.06 408.93,329.21 419.60,336.01 430.27,383.41 440.95,347.86 451.62,328.90 462.30,328.90 472.98,294.77 483.65,247.85 494.32,245.80 505.00,245.80 515.67,245.95 526.35,245.95 537.02,247.69 547.70,295.09 558.38,328.90 569.05,329.37 579.73,349.91 590.40,380.72 601.08,331.90 611.75,328.74 622.42,328.58 633.10,266.02 643.77,266.65 654.45,328.74 665.12,328.74 675.80,337.27 686.48,383.72 697.15,346.12 707.83,329.53 718.50,328.74 729.17,294.30 739.85,247.69 750.52,246.11 761.20,246.11 771.88,245.64 782.55,245.80 793.23,248.17 803.90,295.88 814.58,296.04 825.25,247.38 835.92,245.95 846.60,245.80 857.27,245.95 867.95,246.11 878.62,247.06 889.30,294.30 899.98,328.90 910.65,329.69 921.33,346.59" fill="none" stroke="#15803d" stroke-width="2"/>
<polyline points="99.35,102.34 110.03,79.75 120.70,86.38 131.38,79.90 142.05,81.01 152.72,161.90 163.40,241.37 174.07,261.75 184.75,248.48 195.43,252.91 206.10,303.46 216.78,361.76 227.45,333.48 238.12,352.28 248.80,389.25 259.48,335.53 270.15,335.06 280.82,331.43 291.50,331.43 302.18,331.90 312.85,332.53 323.52,332.53 334.20,337.75 344.88,339.96 355.55,332.53 366.23,334.43 376.90,331.11 387.57,330.48 398.25,333.16 408.93,332.69 419.60,339.48 430.27,380.72 440.95,349.12 451.62,332.69 462.30,330.64 472.98,334.59 483.65,332.53 494.32,329.21 505.00,332.69 515.67,331.43 526.35,333.16 537.02,329.69 547.70,333.32 558.38,330.00 569.05,335.53 579.73,349.75 590.40,387.51 601.08,339.01 611.75,333.64 622.42,331.43 633.10,330.32 643.77,330.48 654.45,333.64 665.12,333.01 675.80,339.01 686.48,382.46 697.15,347.07 707.83,335.69 718.50,330.48 729.17,329.85 739.85,333.64 750.52,331.27 761.20,331.90 771.88,331.74 782.55,332.22 793.23,329.85 803.90,332.85 814.58,333.16 825.25,331.43 835.92,333.16 846.60,328.42 857.27,333.95 867.95,332.69 878.62,333.01 889.30,331.27 899.98,333.80 910.65,333.32 921.33,350.70" fill="none" stroke="#dc2626" stroke-width="2"/>
<polyline points="99.35,91.12 110.03,80.38 120.70,80.38 131.38,80.06 142.05,83.85 152.72,140.73 163.40,223.04 174.07,245.80 184.75,245.95 195.43,264.12 206.10,328.74 216.78,328.90 227.45,334.11 238.12,370.61 248.80,370.61 259.48,363.81 270.15,328.90 280.82,328.74 291.50,322.42 302.18,319.74 312.85,328.90 323.52,329.21 334.20,361.92 344.88,363.34 355.55,329.21 366.23,328.58 376.90,322.26 387.57,320.21 398.25,328.90 408.93,329.21 419.60,362.08 430.27,370.45 440.95,370.45 451.62,335.85 462.30,328.74 472.98,328.90 483.65,267.60 494.32,245.80 505.00,245.95 515.67,245.80 526.35,245.80 537.02,265.23 547.70,328.90 558.38,328.90 569.05,334.59 579.73,370.61 590.40,370.61 601.08,363.18 611.75,328.58 622.42,328.74 633.10,321.32 643.77,319.42 654.45,328.74 665.12,329.06 675.80,361.92 686.48,370.13 697.15,370.77 707.83,335.69 718.50,328.90 729.17,328.74 739.85,267.76 750.52,246.27 761.20,245.48 771.88,245.95 782.55,245.95 793.23,264.28 803.90,328.90 814.58,328.74 825.25,266.97 835.92,245.95 846.60,245.95 857.27,245.80 867.95,245.80 878.62,263.65 889.30,328.74 899.98,328.90 910.65,334.27 921.33,370.45" fill="none" stroke="#1d4ed8" stroke-width="2"/>
<text x="480.0" y="25" text-anchor="middle" font-size="18" font-weight="bold">Scenario 2 Run 4: A-MPDU Enabled (seed 47536117)</text>
<text x="480.0" y="550" text-anchor="middle" font-size="14">Simulation time (s)</text>
<text x="20" y="280.0" text-anchor="middle" font-size="14" transform="rotate(-90 20 280.0)">Throughput (Mbps)</text>
<line x1="620" y1="58" x2="654" y2="58" stroke="#15803d" stroke-width="3"/>
<text x="662" y="62" font-size="13">reinforce (mean 30.301 Mbps)</text>
<line x1="620" y1="82" x2="654" y2="82" stroke="#dc2626" stroke-width="3"/>
<text x="662" y="86" font-size="13">Minstrel-HT (mean 25.824 Mbps)</text>
<line x1="620" y1="106" x2="654" y2="106" stroke="#1d4ed8" stroke-width="3"/>
<text x="662" y="110" font-size="13">Ideal (mean 28.479 Mbps)</text>
</svg>