<svg xmlns="http://www.w3.org/2000/svg" width="960" height="560">
<rect width="100%" height="100%" fill="white"/>
<line x1="78.00" y1="42" x2="78.00" y2="494" stroke="#e5e7eb"/>
<text x="78.00" y="522" text-anchor="middle" font-size="12">0</text>
<line x1="184.75" y1="42" x2="184.75" y2="494" stroke="#e5e7eb"/>
<text x="184.75" y="522" text-anchor="middle" font-size="12">5</text>
<line x1="291.50" y1="42" x2="291.50" y2="494" stroke="#e5e7eb"/>
<text x="291.50" y="522" text-anchor="middle" font-size="12">10</text>
<line x1="398.25" y1="42" x2="398.25" y2="494" stroke="#e5e7eb"/>
<text x="398.25" y="522" text-anchor="middle" font-size="12">15</text>
<line x1="505.00" y1="42" x2="505.00" y2="494" stroke="#e5e7eb"/>
<text x="505.00" y="522" text-anchor="middle" font-size="12">20</text>
<line x1="611.75" y1="42" x2="611.75" y2="494" stroke="#e5e7eb"/>
<text x="611.75" y="522" text-anchor="middle" font-size="12">25</text>
<line x1="718.50" y1="42" x2="718.50" y2="494" stroke="#e5e7eb"/>
<text x="718.50" y="522" text-anchor="middle" font-size="12">30</text>
<line x1="825.25" y1="42" x2="825.25" y2="494" stroke="#e5e7eb"/>
<text x="825.25" y="522" text-anchor="middle" font-size="12">35</text>
<line x1="932.00" y1="42" x2="932.00" y2="494" stroke="#e5e7eb"/>
<text x="932.00" y="522" text-anchor="middle" font-size="12">40</text>
<line x1="78" y1="494.00" x2="932" y2="494.00" stroke="#e5e7eb"/>
<text x="69" y="498.00" text-anchor="end" font-size="12">0</text>
<line x1="78" y1="459.23" x2="932" y2="459.23" stroke="#e5e7eb"/>
<text x="69" y="463.23" text-anchor="end" font-size="12">5</text>
<line x1="78" y1="424.46" x2="932" y2="424.46" stroke="#e5e7eb"/>
<text x="69" y="428.46" text-anchor="end" font-size="12">10</text>
<line x1="78" y1="389.69" x2="932" y2="389.69" stroke="#e5e7eb"/>
<text x="69" y="393.69" text-anchor="end" font-size="12">15</text>
<line x1="78" y1="354.92" x2="932" y2="354.92" stroke="#e5e7eb"/>
<text x="69" y="358.92" text-anchor="end" font-size="12">20</text>
<line x1="78" y1="320.15" x2="932" y2="320.15" stroke="#e5e7eb"/>
<text x="69" y="324.15" text-anchor="end" font-size="12">25</text>
<line x1="78" y1="285.38" x2="932" y2="285.38" stroke="#e5e7eb"/>
<text x="69" y="289.38" text-anchor="end" font-size="12">30</text>
<line x1="78" y1="250.62" x2="932" y2="250.62" stroke="#e5e7eb"/>
<text x="69" y="254.62" text-anchor="end" font-size="12">35</text>
<line x1="78" y1="215.85" x2="932" y2="215.85" stroke="#e5e7eb"/>
<text x="69" y="219.85" text-anchor="end" font-size="12">40</text>
<line x1="78" y1="181.08" x2="932" y2="181.08" stroke="#e5e7eb"/>
<text x="69" y="185.08" text-anchor="end" font-size="12">45</text>
<line x1="78" y1="146.31" x2="932" y2="146.31" stroke="#e5e7eb"/>
<text x="69" y="150.31" text-anchor="end" font-size="12">50</text>
<line x1="78" y1="111.54" x2="932" y2="111.54" stroke="#e5e7eb"/>
<text x="69" y="115.54" text-anchor="end" font-size="12">55</text>
<line x1="78" y1="76.77" x2="932" y2="76.77" stroke="#e5e7eb"/>
<text x="69" y="80.77" text-anchor="end" font-size="12">60</text>
<line x1="78" y1="42.00" x2="932" y2="42.00" stroke="#e5e7eb"/>
<text x="69" y="46.00" text-anchor="end" font-size="12">65</text>
<line x1="78" y1="42" x2="78" y2="494" stroke="#111827"/>
<line x1="78" y1="494" x2="932" y2="494" stroke="#111827"/>
<polyline points="99.35,88.28 110.03,80.38 120.70,80.54 131.38,80.38 142.05,80.06 152.72,80.38 163.40,79.90 174.07,80.69 184.75,80.38 195.43,80.38 206.10,80.38 216.78,80.54 227.45,80.38 238.12,80.54 248.80,108.50 259.48,163.32 270.15,237.42 280.82,245.80 291.50,246.11 302.18,266.97 312.85,328.90 323.52,328.90 334.20,337.27 344.88,334.90 355.55,328.74 366.23,328.90 376.90,271.23 387.57,246.59 398.25,246.11 408.93,248.64 419.60,157.16 430.27,104.87 440.95,79.59 451.62,80.69 462.30,80.38 472.98,80.38 483.65,80.06 494.32,80.85 505.00,104.39 515.67,105.66 526.35,79.75 537.02,80.22 547.70,80.54 558.38,80.54 569.05,79.43 579.73,80.54 590.40,80.54 601.08,80.22 611.75,79.90 622.42,79.59 633.10,80.06 643.77,79.75 654.45,81.33 665.12,126.20 675.80,189.71 686.48,192.71 697.15,129.83 707.83,79.43 718.50,80.69 729.17,80.54 739.85,83.06 750.52,124.77 761.20,190.66 771.88,245.48 782.55,245.80 793.23,246.59 803.90,293.83 814.58,293.51 825.25,247.06 835.92,245.80 846.60,245.80 857.27,192.39 867.95,127.14 878.62,82.12 889.30,79.59 899.98,80.38 910.65,79.75 921.33,80.38" fill="none" stroke="#15803d" stroke-width="2"/>
<polyline points="99.35,87.33 110.03,83.38 120.70,81.64 131.38,79.90 142.05,79.59 152.72,80.22 163.40,79.59 174.07,80.22 184.75,80.06 195.43,81.01 206.10,80.38 216.78,80.38 227.45,80.22 238.12,79.90 248.80,125.09 259.48,197.61 270.15,319.89 280.82,251.80 291.50,250.85 302.18,273.13 312.85,387.83 323.52,333.01 334.20,338.38 344.88,339.01 355.55,331.90 366.23,333.48 376.90,331.74 387.57,333.01 398.25,332.53 408.93,331.11 419.60,323.84 430.27,303.46 440.95,86.54 451.62,80.38 462.30,82.91 472.98,82.91 483.65,83.22 494.32,81.80 505.00,145.47 515.67,135.83 526.35,83.38 537.02,83.38 547.70,82.12 558.38,81.17 569.05,83.22 579.73,84.17 590.40,83.54 601.08,81.96 611.75,83.70 622.42,83.06 633.10,82.91 643.77,81.01 654.45,86.38 665.12,193.18 675.80,276.45 686.48,248.01 697.15,245.95 707.83,189.55 718.50,83.85 729.17,80.54 739.85,85.12 750.52,191.76 761.20,200.61 771.88,259.54 782.55,250.38 793.23,246.74 803.90,297.46 814.58,297.62 825.25,249.75 835.92,251.17 846.60,248.64 857.27,249.90 867.95,247.85 878.62,245.32 889.30,243.58 899.98,244.22 910.65,247.85 921.33,243.58" fill="none" stroke="#dc2626" stroke-width="2"/>
<polyline points="99.35,88.28 110.03,80.38 120.70,80.54 131.38,80.38 142.05,80.06 152.72,80.38 163.40,79.90 174.07,80.69 184.75,80.38 195.43,80.38 206.10,80.38 216.78,80.54 227.45,80.38 238.12,80.54 248.80,117.98 259.48,194.29 270.15,245.80 280.82,245.80 291.50,245.95 302.18,319.42 312.85,328.90 323.52,328.90 334.20,361.92 344.88,363.18 355.55,328.90 366.23,328.90 376.90,323.53 387.57,245.01 398.25,246.11 408.93,245.80 419.60,197.13 430.27,119.88 440.95,79.75 451.62,80.69 462.30,80.54 472.98,80.06 483.65,80.38 494.32,80.69 505.00,117.98 515.67,120.19 526.35,79.43 537.02,80.38 547.70,80.38 558.38,80.38 569.05,79.75 579.73,80.38 590.40,80.38 601.08,80.38 611.75,79.59 622.42,79.90 633.10,80.06 643.77,79.59 654.45,83.85 665.12,140.73 675.80,222.25 686.48,224.47 697.15,142.47 707.83,85.43 718.50,80.22 729.17,80.69 739.85,83.70 750.52,141.52 761.20,222.89 771.88,245.64 782.55,245.80 793.23,264.12 803.90,328.42 814.58,328.90 825.25,267.12 835.92,245.80 846.60,245.80 857.27,224.62 867.95,142.78 878.62,84.96 889.30,79.90 899.98,80.38 910.65,79.59 921.33,80.22" fill="none" stroke="#1d4ed8" stroke-width="2"/>
<text x="480.0" y="25" text-anchor="middle" font-size="18" font-weight="bold">Scenario 2 Run 2: A-MPDU Enabled (seed 1775551026)</text>
<text x="480.0" y="550" text-anchor="middle" font-size="14">Simulation time (s)</text>
<text x="20" y="280.0" text-anchor="middle" font-size="14" transform="rotate(-90 20 280.0)">Throughput (Mbps)</text>
<line x1="620" y1="58" x2="654" y2="58" stroke="#15803d" stroke-width="3"/>
<text x="662" y="62" font-size="13">reinforce (mean 49.909 Mbps)</text>
<line x1="620" y1="82" x2="654" y2="82" stroke="#dc2626" stroke-width="3"/>
<text x="662" y="86" font-size="13">Minstrel-HT (mean 45.138 Mbps)</text>
<line x1="620" y1="106" x2="654" y2="106" stroke="#1d4ed8" stroke-width="3"/>
<text x="662" y="110" font-size="13">Ideal (mean 48.817 Mbps)</text>
</svg>