<svg xmlns="http://www.w3.org/2000/svg" width="960" height="700">
<rect width="100%" height="100%" fill="white"/>
<text x="480.0" y="24" text-anchor="middle" font-size="18" font-weight="bold">Window-20 Episodic Training Statistics</text>
<line x1="75" y1="45" x2="75" y2="317.5" stroke="black"/>
<line x1="75" y1="317.5" x2="930" y2="317.5" stroke="black"/>
<line x1="75" y1="372.5" x2="75" y2="645.0" stroke="black"/>
<line x1="75" y1="645.0" x2="930" y2="645.0" stroke="black"/>
<line x1="75.00" y1="45" x2="75.00" y2="317.5" stroke="#e5e5e5"/>
<line x1="75.00" y1="372.5" x2="75.00" y2="645.0" stroke="#e5e5e5"/>
<text x="75.00" y="672" text-anchor="middle" font-size="11">0</text>
<line x1="105.51" y1="45" x2="105.51" y2="317.5" stroke="#e5e5e5"/>
<line x1="105.51" y1="372.5" x2="105.51" y2="645.0" stroke="#e5e5e5"/>
<text x="105.51" y="672" text-anchor="middle" font-size="11">50</text>
<line x1="136.03" y1="45" x2="136.03" y2="317.5" stroke="#e5e5e5"/>
<line x1="136.03" y1="372.5" x2="136.03" y2="645.0" stroke="#e5e5e5"/>
<text x="136.03" y="672" text-anchor="middle" font-size="11">100</text>
<line x1="166.54" y1="45" x2="166.54" y2="317.5" stroke="#e5e5e5"/>
<line x1="166.54" y1="372.5" x2="166.54" y2="645.0" stroke="#e5e5e5"/>
<text x="166.54" y="672" text-anchor="middle" font-size="11">150</text>
<line x1="197.06" y1="45" x2="197.06" y2="317.5" stroke="#e5e5e5"/>
<line x1="197.06" y1="372.5" x2="197.06" y2="645.0" stroke="#e5e5e5"/>
<text x="197.06" y="672" text-anchor="middle" font-size="11">200</text>
<line x1="227.57" y1="45" x2="227.57" y2="317.5" stroke="#e5e5e5"/>
<line x1="227.57" y1="372.5" x2="227.57" y2="645.0" stroke="#e5e5e5"/>
<text x="227.57" y="672" text-anchor="middle" font-size="11">250</text>
<line x1="258.08" y1="45" x2="258.08" y2="317.5" stroke="#e5e5e5"/>
<line x1="258.08" y1="372.5" x2="258.08" y2="645.0" stroke="#e5e5e5"/>
<text x="258.08" y="672" text-anchor="middle" font-size="11">300</text>
<line x1="288.60" y1="45" x2="288.60" y2="317.5" stroke="#e5e5e5"/>
<line x1="288.60" y1="372.5" x2="288.60" y2="645.0" stroke="#e5e5e5"/>
<text x="288.60" y="672" text-anchor="middle" font-size="11">350</text>
<line x1="319.11" y1="45" x2="319.11" y2="317.5" stroke="#e5e5e5"/>
<line x1="319.11" y1="372.5" x2="319.11" y2="645.0" stroke="#e5e5e5"/>
<text x="319.11" y="672" text-anchor="middle" font-size="11">400</text>
<line x1="349.63" y1="45" x2="349.63" y2="317.5" stroke="#e5e5e5"/>
<line x1="349.63" y1="372.5" x2="349.63" y2="645.0" stroke="#e5e5e5"/>
<text x="349.63" y="672" text-anchor="middle" font-size="11">450</text>
<line x1="380.14" y1="45" x2="380.14" y2="317.5" stroke="#e5e5e5"/>
<line x1="380.14" y1="372.5" x2="380.14" y2="645.0" stroke="#e5e5e5"/>
<text x="380.14" y="672" text-anchor="middle" font-size="11">500</text>
<line x1="410.65" y1="45" x2="410.65" y2="317.5" stroke="#e5e5e5"/>
<line x1="410.65" y1="372.5" x2="410.65" y2="645.0" stroke="#e5e5e5"/>
<text x="410.65" y="672" text-anchor="middle" font-size="11">550</text>
<line x1="441.17" y1="45" x2="441.17" y2="317.5" stroke="#e5e5e5"/>
<line x1="441.17" y1="372.5" x2="441.17" y2="645.0" stroke="#e5e5e5"/>
<text x="441.17" y="672" text-anchor="middle" font-size="11">600</text>
<line x1="471.68" y1="45" x2="471.68" y2="317.5" stroke="#e5e5e5"/>
<line x1="471.68" y1="372.5" x2="471.68" y2="645.0" stroke="#e5e5e5"/>
<text x="471.68" y="672" text-anchor="middle" font-size="11">650</text>
<line x1="502.19" y1="45" x2="502.19" y2="317.5" stroke="#e5e5e5"/>
<line x1="502.19" y1="372.5" x2="502.19" y2="645.0" stroke="#e5e5e5"/>
<text x="502.19" y="672" text-anchor="middle" font-size="11">700</text>
<line x1="532.71" y1="45" x2="532.71" y2="317.5" stroke="#e5e5e5"/>
<line x1="532.71" y1="372.5" x2="532.71" y2="645.0" stroke="#e5e5e5"/>
<text x="532.71" y="672" text-anchor="middle" font-size="11">750</text>
<line x1="563.22" y1="45" x2="563.22" y2="317.5" stroke="#e5e5e5"/>
<line x1="563.22" y1="372.5" x2="563.22" y2="645.0" stroke="#e5e5e5"/>
<text x="563.22" y="672" text-anchor="middle" font-size="11">800</text>
<line x1="593.74" y1="45" x2="593.74" y2="317.5" stroke="#e5e5e5"/>
<line x1="593.74" y1="372.5" x2="593.74" y2="645.0" stroke="#e5e5e5"/>
<text x="593.74" y="672" text-anchor="middle" font-size="11">850</text>
<line x1="624.25" y1="45" x2="624.25" y2="317.5" stroke="#e5e5e5"/>
<line x1="624.25" y1="372.5" x2="624.25" y2="645.0" stroke="#e5e5e5"/>
<text x="624.25" y="672" text-anchor="middle" font-size="11">900</text>
<line x1="654.76" y1="45" x2="654.76" y2="317.5" stroke="#e5e5e5"/>
<line x1="654.76" y1="372.5" x2="654.76" y2="645.0" stroke="#e5e5e5"/>
<text x="654.76" y="672" text-anchor="middle" font-size="11">950</text>
<line x1="685.28" y1="45" x2="685.28" y2="317.5" stroke="#e5e5e5"/>
<line x1="685.28" y1="372.5" x2="685.28" y2="645.0" stroke="#e5e5e5"/>
<text x="685.28" y="672" text-anchor="middle" font-size="11">1000</text>
<line x1="715.79" y1="45" x2="715.79" y2="317.5" stroke="#e5e5e5"/>
<line x1="715.79" y1="372.5" x2="715.79" y2="645.0" stroke="#e5e5e5"/>
<text x="715.79" y="672" text-anchor="middle" font-size="11">1050</text>
<line x1="746.31" y1="45" x2="746.31" y2="317.5" stroke="#e5e5e5"/>
<line x1="746.31" y1="372.5" x2="746.31" y2="645.0" stroke="#e5e5e5"/>
<text x="746.31" y="672" text-anchor="middle" font-size="11">1100</text>
<line x1="776.82" y1="45" x2="776.82" y2="317.5" stroke="#e5e5e5"/>
<line x1="776.82" y1="372.5" x2="776.82" y2="645.0" stroke="#e5e5e5"/>
<text x="776.82" y="672" text-anchor="middle" font-size="11">1150</text>
<line x1="807.33" y1="45" x2="807.33" y2="317.5" stroke="#e5e5e5"/>
<line x1="807.33" y1="372.5" x2="807.33" y2="645.0" stroke="#e5e5e5"/>
<text x="807.33" y="672" text-anchor="middle" font-size="11">1200</text>
<line x1="837.85" y1="45" x2="837.85" y2="317.5" stroke="#e5e5e5"/>
<line x1="837.85" y1="372.5" x2="837.85" y2="645.0" stroke="#e5e5e5"/>
<text x="837.85" y="672" text-anchor="middle" font-size="11">1250</text>
<line x1="868.36" y1="45" x2="868.36" y2="317.5" stroke="#e5e5e5"/>
<line x1="868.36" y1="372.5" x2="868.36" y2="645.0" stroke="#e5e5e5"/>
<text x="868.36" y="672" text-anchor="middle" font-size="11">1300</text>
<line x1="898.88" y1="45" x2="898.88" y2="317.5" stroke="#e5e5e5"/>
<line x1="898.88" y1="372.5" x2="898.88" y2="645.0" stroke="#e5e5e5"/>
<text x="898.88" y="672" text-anchor="middle" font-size="11">1350</text>
<line x1="929.39" y1="45" x2="929.39" y2="317.5" stroke="#e5e5e5"/>
<line x1="929.39" y1="372.5" x2="929.39" y2="645.0" stroke="#e5e5e5"/>
<text x="929.39" y="672" text-anchor="middle" font-size="11">1400</text>
<polyline points="75.61,195.69 76.22,173.41 76.83,230.94 77.44,210.27 78.05,189.71 78.66,184.57 79.27,161.44 79.88,220.53 80.49,204.11 81.10,199.74 81.71,198.44 82.32,167.73 82.93,215.82 83.54,216.55 84.15,210.69 84.76,167.13 85.37,239.43 85.99,210.27 86.60,173.79 87.21,198.78 87.82,156.02 88.43,193.37 89.04,178.86 89.65,232.19 90.26,194.51 90.87,251.53 91.48,246.74 92.09,241.48 92.70,162.64 93.31,160.37 93.92,190.85 94.53,225.94 95.14,227.91 95.75,164.37 96.36,210.23 96.97,182.01 97.58,201.12 98.19,235.42 98.80,188.69 99.41,243.46 100.02,208.49 100.63,191.42 101.24,191.72 101.85,189.73 102.46,174.34 103.07,185.45 103.68,195.18 104.29,193.43 104.90,205.10 105.51,151.26 106.12,178.95 106.73,215.99 107.34,233.92 107.96,256.56 108.57,204.38 109.18,196.59 109.79,226.61 110.40,169.73 111.01,153.03 111.62,106.34 112.23,198.18 112.84,191.40 113.45,152.85 114.06,225.64 114.67,248.99 115.28,176.38 115.89,221.84 116.50,131.28 117.11,137.57 117.72,110.53 118.33,257.01 118.94,228.13 119.55,159.34 120.16,143.89 120.77,86.92 121.38,107.80 121.99,203.52 122.60,171.49 123.21,203.71 123.82,222.82 124.43,212.83 125.04,129.11 125.65,132.28 126.26,208.20 126.87,232.33 127.48,222.06 128.09,218.34 128.70,103.47 129.31,83.96 129.93,124.99 130.54,272.03 131.15,209.50 131.76,283.59 132.37,257.94 132.98,148.29 133.59,91.89 134.20,123.74 134.81,173.24 135.42,237.35 136.03,255.72 136.64,222.35 137.25,166.38 137.86,115.80 138.47,124.74 139.08,124.21 139.69,234.40 140.30,248.44 140.91,95.71 141.52,139.26 142.13,210.55 142.74,86.58 143.35,191.16 143.96,183.67 144.57,188.76 145.18,208.69 145.79,162.25 146.40,142.15 147.01,110.16 147.62,128.70 148.23,259.05 148.84,84.21 149.45,187.05 150.06,126.81 150.67,148.10 151.28,181.57 151.90,136.84 152.51,210.40 153.12,207.76 153.73,193.63 154.34,236.84 154.95,167.76 155.56,163.60 156.17,256.87 156.78,147.64 157.39,173.56 158.00,108.04 158.61,87.62 159.22,159.30 159.83,206.81 160.44,164.26 161.05,158.66 161.66,138.77 162.27,178.66 162.88,176.20 163.49,182.87 164.10,188.17 164.71,191.40 165.32,185.92 165.93,136.24 166.54,94.05 167.15,125.59 167.76,134.73 168.37,185.86 168.98,171.36 169.59,147.16 170.20,154.46 170.81,193.45 171.42,147.58 172.03,194.96 172.64,127.78 173.25,214.32 173.87,178.12 174.48,158.80 175.09,118.01 175.70,103.46 176.31,131.03 176.92,189.66 177.53,167.70 178.14,196.65 178.75,168.17 179.36,120.22 179.97,124.46 180.58,220.26 181.19,152.18 181.80,114.03 182.41,147.48 183.02,141.75 183.63,201.01 184.24,129.75 184.85,143.72 185.46,145.25 186.07,141.75 186.68,174.81 187.29,107.15 187.90,122.44 188.51,233.59 189.12,126.27 189.73,206.00 190.34,144.68 190.95,165.11 191.56,179.18 192.17,106.67 192.78,111.73 193.39,95.77 194.00,117.93 194.61,188.41 195.22,128.66 195.84,184.61 196.45,133.26 197.06,133.90 197.67,128.18 198.28,152.33 198.89,140.86 199.50,171.21 200.11,155.36 200.72,110.59 201.33,136.38 201.94,138.29 202.55,157.82 203.16,212.04 203.77,129.71 204.38,126.66 204.99,146.68 205.60,126.31 206.21,111.04 206.82,147.91 207.43,208.80 208.04,170.11 208.65,82.55 209.26,154.38 209.87,96.70 210.48,111.69 211.09,134.97 211.70,147.83 212.31,166.90 212.92,165.10 213.53,147.40 214.14,86.47 214.75,122.89 215.36,192.08 215.97,152.66 216.58,92.97 217.19,132.34 217.81,135.50 218.42,120.69 219.03,149.71 219.64,190.49 220.25,94.19 220.86,204.14 221.47,164.18 222.08,84.55 222.69,116.69 223.30,138.53 223.91,144.89 224.52,156.23 225.13,172.63 225.74,128.12 226.35,89.22 226.96,195.40 227.57,89.66 228.18,85.11 228.79,162.75 229.40,150.40 230.01,119.76 230.62,157.57 231.23,149.77 231.84,112.37 232.45,125.56 233.06,180.34 233.67,164.64 234.28,150.37 234.89,173.17 235.50,160.58 236.11,157.33 236.72,152.56 237.33,108.67 237.94,81.45 238.55,141.08 239.16,147.65 239.78,127.95 240.39,152.32 241.00,113.33 241.61,133.98 242.22,149.57 242.83,154.81 243.44,161.68 244.05,102.95 244.66,172.72 245.27,129.73 245.88,110.62 246.49,137.37 247.10,108.58 247.71,187.80 248.32,148.44 248.93,89.54 249.54,198.79 250.15,153.51 250.76,158.29 251.37,126.41 251.98,96.16 252.59,110.61 253.20,175.42 253.81,166.36 254.42,126.68 255.03,129.61 255.64,146.17 256.25,82.19 256.86,90.64 257.47,107.38 258.08,128.93 258.69,177.93 259.30,202.81 259.91,110.30 260.52,116.97 261.13,156.10 261.75,122.91 262.36,148.94 262.97,184.78 263.58,120.57 264.19,119.85 264.80,91.64 265.41,117.31 266.02,184.13 266.63,175.73 267.24,172.17 267.85,94.85 268.46,93.06 269.07,116.81 269.68,93.47 270.29,146.45 270.90,180.76 271.51,195.29 272.12,106.29 272.73,94.11 273.34,111.05 273.95,103.42 274.56,172.67 275.17,161.79 275.78,153.10 276.39,129.01 277.00,124.81 277.61,87.55 278.22,106.24 278.83,138.98 279.44,161.90 280.05,181.05 280.66,160.99 281.27,95.30 281.88,111.49 282.49,162.08 283.10,170.69 283.72,174.75 284.33,185.39 284.94,106.72 285.55,91.01 286.16,107.95 286.77,138.98 287.38,87.87 287.99,194.19 288.60,127.55 289.21,129.12 289.82,119.62 290.43,102.10 291.04,113.26 291.65,154.16 292.26,145.16 292.87,137.35 293.48,84.72 294.09,171.32 294.70,155.82 295.31,154.16 295.92,209.81 296.53,129.30 297.14,124.43 297.75,134.92 298.36,97.53 298.97,108.29 299.58,182.44 300.19,191.27 300.80,159.62 301.41,109.43 302.02,88.24 302.63,93.13 303.24,138.92 303.85,148.83 304.46,177.96 305.07,119.00 305.69,126.84 306.30,181.34 306.91,124.51 307.52,205.49 308.13,180.32 308.74,134.35 309.35,136.20 309.96,128.79 310.57,106.30 311.18,92.87 311.79,156.72 312.40,188.64 313.01,169.59 313.62,166.43 314.23,138.75 314.84,84.25 315.45,119.39 316.06,184.38 316.67,115.93 317.28,125.44 317.89,188.89 318.50,189.05 319.11,164.28 319.72,100.76 320.33,139.41 320.94,144.06 321.55,148.86 322.16,128.67 322.77,88.32 323.38,95.72 323.99,221.52 324.60,125.80 325.21,179.15 325.82,128.88 326.43,108.46 327.04,117.67 327.66,101.38 328.27,108.31 328.88,154.19 329.49,154.86 330.10,165.72 330.71,136.11 331.32,163.74 331.93,102.18 332.54,113.97 333.15,123.40 333.76,135.83 334.37,125.39 334.98,107.86 335.59,136.42 336.20,154.17 336.81,136.49 337.42,113.12 338.03,167.95 338.64,147.43 339.25,153.49 339.86,128.77 340.47,109.66 341.08,106.66 341.69,154.82 342.30,174.28 342.91,179.08 343.52,94.67 344.13,106.92 344.74,123.47 345.35,129.28 345.96,113.69 346.57,155.78 347.18,123.75 347.79,165.24 348.40,123.78 349.01,118.36 349.63,100.73 350.24,165.38 350.85,184.12 351.46,139.11 352.07,154.69 352.68,125.34 353.29,106.97 353.90,182.64 354.51,159.31 355.12,154.23 355.73,160.66 356.34,157.58 356.95,86.89 357.56,103.94 358.17,127.94 358.78,149.03 359.39,172.40 360.00,165.12 360.61,128.85 361.22,124.17 361.83,89.46 362.44,161.71 363.05,101.29 363.66,127.60 364.27,176.18 364.88,91.39 365.49,169.62 366.10,153.05 366.71,150.66 367.32,114.62 367.93,123.44 368.54,91.53 369.15,129.64 369.76,150.01 370.37,133.23 370.99,117.16 371.60,181.88 372.21,140.64 372.82,92.43 373.43,133.83 374.04,129.56 374.65,153.26 375.26,175.71 375.87,108.50 376.48,109.16 377.09,153.05 377.70,151.54 378.31,114.76 378.92,153.05 379.53,126.57 380.14,157.87 380.75,101.99 381.36,83.26 381.97,131.06 382.58,162.21 383.19,200.16 383.80,163.68 384.41,84.90 385.02,144.01 385.63,126.79 386.24,121.43 386.85,82.14 387.46,179.24 388.07,161.85 388.68,160.98 389.29,187.21 389.90,97.73 390.51,127.10 391.12,157.05 391.73,107.52 392.34,140.51 392.96,151.05 393.57,131.19 394.18,136.51 394.79,181.84 395.40,157.47 396.01,111.77 396.62,133.07 397.23,114.70 397.84,89.29 398.45,120.12 399.06,158.28 399.67,136.19 400.28,144.87 400.89,159.01 401.50,180.17 402.11,141.78 402.72,171.02 403.33,104.38 403.94,136.30 404.55,96.91 405.16,136.80 405.77,86.61 406.38,163.40 406.99,214.27 407.60,151.22 408.21,82.19 408.82,117.18 409.43,91.41 410.04,138.18 410.65,171.88 411.26,153.79 411.87,156.43 412.48,116.64 413.09,101.56 413.70,106.30 414.31,82.55 414.93,161.91 415.54,186.52 416.15,141.98 416.76,111.56 417.37,113.78 417.98,101.72 418.59,154.26 419.20,140.78 419.81,152.90 420.42,131.12 421.03,119.25 421.64,117.69 422.25,87.01 422.86,151.82 423.47,183.69 424.08,171.26 424.69,104.01 425.30,148.78 425.91,97.12 426.52,140.91 427.13,100.01 427.74,146.74 428.35,125.33 428.96,134.51 429.57,162.15 430.18,134.69 430.79,145.61 431.40,174.00 432.01,130.88 432.62,121.42 433.23,96.39 433.84,148.35 434.45,90.00 435.06,182.93 435.67,125.07 436.28,136.83 436.90,145.80 437.51,86.35 438.12,81.50 438.73,151.09 439.34,179.33 439.95,132.15 440.56,109.78 441.17,165.29 441.78,86.64 442.39,126.46 443.00,192.49 443.61,98.14 444.22,101.69 444.83,139.30 445.44,103.25 446.05,106.83 446.66,135.59 447.27,214.96 447.88,188.58 448.49,160.22 449.10,164.50 449.71,84.87 450.32,128.88 450.93,128.89 451.54,112.22 452.15,123.29 452.76,145.05 453.37,126.48 453.98,125.94 454.59,132.55 455.20,134.03 455.81,123.45 456.42,157.02 457.03,110.24 457.64,106.59 458.25,129.84 458.87,194.82 459.48,119.64 460.09,162.81 460.70,139.37 461.31,97.46 461.92,95.37 462.53,137.30 463.14,106.43 463.75,193.66 464.36,107.20 464.97,179.55 465.58,134.29 466.19,118.32 466.80,123.55 467.41,86.97 468.02,144.40 468.63,138.93 469.24,96.20 469.85,153.73 470.46,101.19 471.07,159.30 471.68,160.23 472.29,192.54 472.90,99.93 473.51,123.22 474.12,127.99 474.73,121.99 475.34,155.38 475.95,150.80 476.56,141.70 477.17,187.73 477.78,130.45 478.39,111.19 479.00,99.87 479.61,149.57 480.22,181.36 480.84,115.70 481.45,157.66 482.06,177.68 482.67,170.88 483.28,179.28 483.89,143.49 484.50,109.17 485.11,144.82 485.72,149.69 486.33,196.45 486.94,91.44 487.55,140.81 488.16,179.29 488.77,156.68 489.38,112.37 489.99,94.33 490.60,129.57 491.21,134.65 491.82,170.43 492.43,143.73 493.04,85.28 493.65,144.32 494.26,144.37 494.87,185.48 495.48,124.80 496.09,150.11 496.70,91.24 497.31,109.24 497.92,110.11 498.53,114.21 499.14,127.89 499.75,123.21 500.36,119.67 500.97,155.02 501.58,88.67 502.19,155.31 502.81,81.37 503.42,98.62 504.03,189.24 504.64,144.07 505.25,123.10 505.86,154.67 506.47,171.86 507.08,162.03 507.69,106.16 508.30,99.51 508.91,98.81 509.52,159.81 510.13,183.39 510.74,136.19 511.35,81.76 511.96,176.80 512.57,120.76 513.18,127.29 513.79,153.24 514.40,138.40 515.01,164.26 515.62,82.79 516.23,85.58 516.84,84.11 517.45,127.80 518.06,169.68 518.67,187.79 519.28,125.38 519.89,166.63 520.50,123.64 521.11,98.25 521.72,139.92 522.33,145.11 522.94,153.66 523.55,196.78 524.16,92.47 524.78,120.79 525.39,92.97 526.00,126.08 526.61,155.68 527.22,133.90 527.83,172.66 528.44,179.35 529.05,112.30 529.66,126.50 530.27,153.26 530.88,160.36 531.49,163.53 532.10,136.47 532.71,96.60 533.32,91.07 533.93,151.00 534.54,146.59 535.15,101.88 535.76,162.50 536.37,206.21 536.98,116.47 537.59,104.30 538.20,176.25 538.81,91.86 539.42,167.42 540.03,154.75 540.64,101.36 541.25,124.70 541.86,174.42 542.47,184.24 543.08,130.02 543.69,112.51 544.30,105.98 544.91,96.26 545.52,116.91 546.13,139.73 546.75,125.53 547.36,192.11 547.97,160.97 548.58,104.21 549.19,80.69 549.80,122.04 550.41,164.14 551.02,172.93 551.63,152.20 552.24,113.79 552.85,87.04 553.46,133.45 554.07,109.19 554.68,148.54 555.29,175.36 555.90,133.64 556.51,110.68 557.12,140.04 557.73,91.34 558.34,132.77 558.95,179.23 559.56,139.82 560.17,196.56 560.78,142.71 561.39,83.26 562.00,82.31 562.61,146.05 563.22,182.44 563.83,148.58 564.44,181.19 565.05,158.17 565.66,125.53 566.27,147.05 566.88,158.49 567.49,125.44 568.10,147.93 568.72,146.72 569.33,101.56 569.94,96.63 570.55,134.89 571.16,132.91 571.77,170.19 572.38,124.37 572.99,120.50 573.60,123.04 574.21,91.97 574.82,168.75 575.43,118.87 576.04,108.42 576.65,183.88 577.26,119.99 577.87,125.40 578.48,153.40 579.09,85.46 579.70,146.63 580.31,130.01 580.92,163.24 581.53,107.82 582.14,119.50 582.75,150.41 583.36,169.22 583.97,140.87 584.58,150.96 585.19,125.05 585.80,149.27 586.41,119.71 587.02,116.17 587.63,133.76 588.24,140.39 588.85,128.55 589.46,183.58 590.07,95.01 590.69,134.78 591.30,148.86 591.91,99.08 592.52,91.92 593.13,161.46 593.74,131.26 594.35,154.86 594.96,128.72 595.57,157.51 596.18,105.17 596.79,125.74 597.40,163.56 598.01,117.26 598.62,116.91 599.23,210.16 599.84,102.93 600.45,148.92 601.06,131.03 601.67,139.46 602.28,88.65 602.89,133.10 603.50,169.13 604.11,107.86 604.72,156.87 605.33,146.50 605.94,99.45 606.55,141.58 607.16,176.94 607.77,141.87 608.38,102.47 608.99,115.51 609.60,141.19 610.21,119.66 610.82,166.01 611.43,126.86 612.04,164.50 612.66,160.19 613.27,133.43 613.88,99.87 614.49,101.90 615.10,148.17 615.71,142.61 616.32,84.84 616.93,164.87 617.54,112.69 618.15,155.65 618.76,160.63 619.37,113.01 619.98,93.68 620.59,130.18 621.20,128.79 621.81,165.00 622.42,100.51 623.03,208.95 623.64,111.59 624.25,134.94 624.86,100.58 625.47,86.63 626.08,149.86 626.69,156.12 627.30,125.76 627.91,161.74 628.52,137.31 629.13,141.80 629.74,117.59 630.35,167.64 630.96,162.66 631.57,177.88 632.18,83.62 632.79,120.09 633.40,106.85 634.01,83.26 634.63,185.18 635.24,128.56 635.85,160.34 636.46,172.57 637.07,98.35 637.68,118.67 638.29,99.88 638.90,154.68 639.51,199.09 640.12,118.85 640.73,145.86 641.34,92.71 641.95,126.86 642.56,137.85 643.17,113.46 643.78,169.46 644.39,155.81 645.00,156.37 645.61,161.79 646.22,105.38 646.83,147.62 647.44,153.18 648.05,185.89 648.66,85.51 649.27,159.55 649.88,131.34 650.49,93.35 651.10,82.56 651.71,105.89 652.32,111.75 652.93,187.76 653.54,160.82 654.15,171.02 654.76,106.80 655.37,119.29 655.99,122.53 656.60,96.02 657.21,175.36 657.82,163.33 658.43,152.37 659.04,156.88 659.65,102.90 660.26,84.98 660.87,121.17 661.48,186.94 662.09,114.25 662.70,160.27 663.31,192.11 663.92,82.70 664.53,120.23 665.14,102.69 665.75,130.75 666.36,153.31 666.97,149.29 667.58,126.19 668.19,111.69 668.80,163.02 669.41,127.80 670.02,120.00 670.63,166.84 671.24,167.80 671.85,186.07 672.46,118.32 673.07,108.20 673.68,156.00 674.29,141.59 674.90,169.38 675.51,113.44 676.12,113.96 676.73,181.59 677.34,115.19 677.96,183.57 678.57,83.53 679.18,137.93 679.79,173.72 680.40,92.94 681.01,140.42 681.62,100.71 682.23,146.29 682.84,195.90 683.45,82.49 684.06,130.78 684.67,92.03 685.28,90.81 685.89,160.01 686.50,177.61 687.11,110.78 687.72,139.07 688.33,112.30 688.94,121.08 689.55,111.51 690.16,167.16 690.77,147.99 691.38,164.37 691.99,112.61 692.60,110.06 693.21,100.82 693.82,152.09 694.43,211.26 695.04,141.87 695.65,183.12 696.26,143.03 696.87,80.81 697.48,95.24 698.09,181.04 698.70,160.25 699.31,159.97 699.93,146.56 700.54,126.71 701.15,82.03 701.76,159.53 702.37,133.08 702.98,148.76 703.59,153.86 704.20,185.77 704.81,81.35 705.42,106.14 706.03,134.17 706.64,167.29 707.25,172.10 707.86,179.14 708.47,114.37 709.08,95.10 709.69,117.37 710.30,154.77 710.91,147.23 711.52,157.52 712.13,179.40 712.74,107.03 713.35,82.42 713.96,94.42 714.57,98.12 715.18,158.60 715.79,178.51 716.40,177.23 717.01,88.78 717.62,115.35 718.23,209.32 718.84,111.06 719.45,152.14 720.06,188.03 720.67,114.36 721.28,85.23 721.90,87.44 722.51,119.45 723.12,142.69 723.73,152.51 724.34,200.56 724.95,145.85 725.56,105.20 726.17,134.55 726.78,91.11 727.39,124.63 728.00,196.21 728.61,134.09 729.22,144.60 729.83,85.18 730.44,120.94 731.05,91.45 731.66,122.50 732.27,100.19 732.88,189.60 733.49,143.91 734.10,152.29 734.71,127.70 735.32,131.05 735.93,158.89 736.54,142.18 737.15,117.03 737.76,99.46 738.37,124.49 738.98,192.33 739.59,111.73 740.20,107.48 740.81,136.43 741.42,131.16 742.03,156.49 742.64,165.03 743.25,109.75 743.87,119.53 744.48,162.79 745.09,153.56 745.70,89.70 746.31,155.81 746.92,128.32 747.53,148.82 748.14,113.58 748.75,138.54 749.36,137.66 749.97,106.47 750.58,133.71 751.19,174.57 751.80,120.77 752.41,189.31 753.02,161.91 753.63,158.14 754.24,121.00 754.85,93.00 755.46,85.82 756.07,123.10 756.68,156.52 757.29,159.60 757.90,169.16 758.51,141.14 759.12,154.18 759.73,93.89 760.34,115.69 760.95,133.45 761.56,139.68 762.17,137.31 762.78,139.48 763.39,122.94 764.00,119.63 764.61,115.09 765.22,166.83 765.84,172.76 766.45,151.75 767.06,171.37 767.67,102.33 768.28,81.17 768.89,140.96 769.50,148.45 770.11,178.10 770.72,126.88 771.33,190.66 771.94,102.30 772.55,90.39 773.16,107.18 773.77,153.06 774.38,172.59 774.99,195.44 775.60,123.26 776.21,95.89 776.82,83.68 777.43,169.39 778.04,90.88 778.65,129.54 779.26,189.54 779.87,145.34 780.48,91.43 781.09,116.96 781.70,82.65 782.31,153.19 782.92,188.30 783.53,168.51 784.14,91.84 784.75,138.13 785.36,150.09 785.97,83.80 786.58,151.66 787.19,182.03 787.81,161.04 788.42,152.64 789.03,181.92 789.64,102.32 790.25,140.19 790.86,148.13 791.47,100.53 792.08,108.47 792.69,165.90 793.30,88.50 793.91,132.41 794.52,101.32 795.13,107.28 795.74,115.08 796.35,101.63 796.96,120.72 797.57,112.29 798.18,173.62 798.79,199.13 799.40,83.96 800.01,97.51 800.62,108.22 801.23,124.85 801.84,108.64 802.45,131.24 803.06,140.93 803.67,163.44 804.28,165.99 804.89,124.87 805.50,139.50 806.11,172.27 806.72,161.57 807.33,189.20 807.94,94.68 808.55,149.81 809.16,133.05 809.78,124.48 810.39,112.94 811.00,114.70 811.61,179.34 812.22,156.51 812.83,131.87 813.44,156.98 814.05,96.19 814.66,131.72 815.27,160.73 815.88,122.82 816.49,173.60 817.10,130.88 817.71,172.29 818.32,82.39 818.93,121.53 819.54,128.00 820.15,80.80 820.76,168.88 821.37,141.85 821.98,146.02 822.59,162.59 823.20,150.21 823.81,162.16 824.42,115.28 825.03,116.23 825.64,150.38 826.25,97.32 826.86,129.61 827.47,180.33 828.08,83.21 828.69,119.43 829.30,137.48 829.91,120.30 830.52,123.79 831.13,180.10 831.75,103.65 832.36,105.21 832.97,142.39 833.58,178.59 834.19,166.90 834.80,152.25 835.41,186.67 836.02,125.71 836.63,91.58 837.24,164.21 837.85,81.74 838.46,172.19 839.07,132.74 839.68,179.64 840.29,117.40 840.90,118.78 841.51,152.08 842.12,169.47 842.73,157.84 843.34,146.28 843.95,148.17 844.56,136.17 845.17,142.88 845.78,113.99 846.39,169.71 847.00,177.73 847.61,138.80 848.22,83.88 848.83,132.50 849.44,90.66 850.05,154.09 850.66,188.48 851.27,129.95 851.88,167.97 852.49,126.34 853.10,82.31 853.72,161.10 854.33,109.13 854.94,168.34 855.55,146.91 856.16,86.92 856.77,89.28 857.38,106.35 857.99,197.54 858.60,167.00 859.21,157.22 859.82,194.65 860.43,125.20 861.04,81.32 861.65,98.16 862.26,162.52 862.87,112.93 863.48,188.21 864.09,147.67 864.70,111.18 865.31,84.90 865.92,86.99 866.53,91.33 867.14,103.60 867.75,171.04 868.36,216.46 868.97,126.58 869.58,147.72 870.19,127.44 870.80,132.60 871.41,131.48 872.02,166.54 872.63,123.98 873.24,92.09 873.85,117.41 874.46,149.82 875.07,114.28 875.69,159.83 876.30,142.13 876.91,121.34 877.52,193.80 878.13,112.86 878.74,159.27 879.35,109.66 879.96,177.81 880.57,143.68 881.18,94.45 881.79,152.09 882.40,155.84 883.01,137.81 883.62,153.45 884.23,96.65 884.84,134.71 885.45,120.70 886.06,196.00 886.67,158.29 887.28,154.24 887.89,172.13 888.50,153.28 889.11,127.98 889.72,105.23 890.33,136.92 890.94,136.74 891.55,126.31 892.16,182.80 892.77,122.49 893.38,147.68 893.99,142.73 894.60,87.97 895.21,88.92 895.82,130.82 896.43,130.73 897.04,148.76 897.66,105.38 898.27,175.57 898.88,104.27 899.49,104.59 900.10,157.26 900.71,139.11 901.32,142.09 901.93,136.51 902.54,85.18 903.15,97.55 903.76,147.84 904.37,155.21 904.98,148.72 905.59,126.98 906.20,156.65 906.81,158.88 907.42,83.03 908.03,92.26 908.64,142.38 909.25,96.61 909.86,212.33 910.47,127.05 911.08,105.92 911.69,128.53 912.30,121.57 912.91,99.50 913.52,105.82 914.13,171.18 914.74,203.64 915.35,122.44 915.96,162.10 916.57,105.20 917.18,115.91 917.79,163.11 918.40,156.81 919.01,144.81 919.63,122.34 920.24,153.96 920.85,154.36 921.46,118.24 922.07,170.86 922.68,161.69 923.29,157.42 923.90,121.63 924.51,139.49 925.12,109.99 925.73,84.56 926.34,106.83 926.95,134.97 927.56,154.11 928.17,171.15 928.78,95.03 929.39,139.75 930.00,147.23" fill="none" stroke="#1565c0" stroke-width="1.5"/>
<polyline points="75.61,635.35 76.22,632.19 76.83,631.47 77.44,636.88 78.05,634.37 78.66,633.65 79.27,630.23 79.88,638.29 80.49,636.25 81.10,635.85 81.71,635.64 82.32,631.14 82.93,637.50 83.54,637.59 84.15,636.99 84.76,631.19 85.37,640.14 85.99,636.92 86.60,632.39 87.21,635.43 87.82,629.44 88.43,634.97 89.04,632.89 89.65,639.42 90.26,635.09 90.87,641.13 91.48,640.76 92.09,640.18 92.70,630.49 93.31,630.17 93.92,634.45 94.53,638.56 95.14,638.64 95.75,631.04 96.36,636.58 96.97,633.50 97.58,635.79 98.19,639.37 98.80,633.82 99.41,640.34 100.02,636.79 100.63,634.75 101.24,634.64 101.85,634.28 102.46,632.25 103.07,633.79 103.68,634.89 104.29,634.71 104.90,636.11 105.51,629.13 106.12,633.07 106.73,637.40 107.34,639.07 107.96,641.29 108.57,636.09 109.18,633.36 109.79,638.59 110.40,631.72 111.01,629.15 111.62,621.10 112.23,635.04 112.84,634.28 113.45,629.09 114.06,638.33 114.67,640.45 115.28,632.62 115.89,637.83 116.50,626.03 117.11,626.88 117.72,621.97 118.33,641.05 118.94,638.10 119.55,629.83 120.16,628.07 120.77,617.38 121.38,621.94 121.99,635.88 122.60,631.48 123.21,635.74 123.82,637.52 124.43,635.92 125.04,625.59 125.65,611.89 126.26,630.65 126.87,638.66 127.48,633.50 128.09,637.41 128.70,620.58 129.31,616.64 129.93,625.00 130.54,642.37 131.15,636.02 131.76,643.15 132.37,640.88 132.98,628.26 133.59,618.88 134.20,624.62 134.81,631.98 135.42,639.32 136.03,640.88 136.64,637.74 137.25,630.84 137.86,623.00 138.47,624.54 139.08,624.34 139.69,637.76 140.30,640.38 140.91,619.01 141.52,626.82 142.13,636.47 142.74,617.36 143.35,634.26 143.96,632.31 144.57,633.98 145.18,636.21 145.79,630.62 146.40,627.57 147.01,621.94 147.62,625.18 148.23,641.33 148.84,616.78 149.45,633.44 150.06,625.12 150.67,628.13 151.28,631.74 151.90,626.76 152.51,636.59 153.12,636.35 153.73,634.78 154.34,639.58 154.95,631.33 155.56,630.75 156.17,641.47 156.78,628.12 157.39,631.83 158.00,621.42 158.61,617.52 159.22,630.05 159.83,635.56 160.44,630.93 161.05,629.99 161.66,626.84 162.27,632.63 162.88,632.52 163.49,633.43 164.10,634.28 164.71,634.62 165.32,633.67 165.93,626.34 166.54,618.75 167.15,624.41 167.76,626.01 168.37,633.89 168.98,631.25 169.59,627.81 170.20,627.31 170.81,632.76 171.42,628.20 172.03,634.60 172.64,625.09 173.25,637.45 173.87,632.77 174.48,630.22 175.09,623.41 175.70,620.41 176.31,625.64 176.92,632.29 177.53,622.66 178.14,596.69 178.75,630.78 179.36,623.91 179.97,624.51 180.58,637.78 181.19,627.98 181.80,622.48 182.41,627.24 183.02,627.36 183.63,630.11 184.24,625.35 184.85,627.73 185.46,626.14 186.07,627.54 186.68,632.34 187.29,621.06 187.90,624.04 188.51,637.38 189.12,621.75 189.73,631.57 190.34,627.87 190.95,627.57 191.56,632.55 192.17,621.03 192.78,622.06 193.39,619.23 194.00,623.18 194.61,597.20 195.22,623.00 195.84,633.36 196.45,602.74 197.06,625.66 197.67,624.81 198.28,625.76 198.89,627.59 199.50,612.68 200.11,624.60 200.72,622.05 201.33,626.37 201.94,626.43 202.55,627.62 203.16,637.65 203.77,609.64 204.38,624.37 204.99,625.84 205.60,624.90 206.21,622.15 206.82,620.84 207.43,632.50 208.04,626.57 208.65,616.38 209.26,626.69 209.87,619.44 210.48,622.01 211.09,615.20 211.70,628.00 212.31,629.07 212.92,623.39 213.53,627.94 214.14,617.31 214.75,623.07 215.36,627.33 215.97,624.43 216.58,618.43 217.19,625.65 217.81,626.19 218.42,623.50 219.03,628.52 219.64,626.39 220.25,618.91 220.86,635.83 221.47,626.31 222.08,616.71 222.69,623.02 223.30,625.27 223.91,628.20 224.52,627.19 225.13,628.53 225.74,625.18 226.35,617.90 226.96,615.21 227.57,617.80 228.18,616.91 228.79,603.51 229.40,623.58 230.01,623.80 230.62,612.60 231.23,628.57 231.84,621.90 232.45,624.61 233.06,631.95 233.67,631.35 234.28,628.38 234.89,620.63 235.50,629.22 236.11,619.07 236.72,629.11 237.33,621.29 237.94,616.09 238.55,625.92 239.16,614.54 239.78,625.29 240.39,605.95 241.00,621.68 241.61,626.16 242.22,471.86 242.83,629.37 243.44,629.11 244.05,620.33 244.66,617.58 245.27,625.41 245.88,622.00 246.49,610.59 247.10,621.38 247.71,624.90 248.32,621.80 248.93,617.81 249.54,625.19 250.15,627.30 250.76,626.35 251.37,613.69 251.98,619.07 252.59,621.86 253.20,616.83 253.81,625.05 254.42,625.00 255.03,625.42 255.64,628.08 256.25,616.45 256.86,618.13 257.47,621.28 258.08,624.72 258.69,623.89 259.30,629.88 259.91,622.04 260.52,623.22 261.13,627.88 261.75,624.29 262.36,603.28 262.97,628.69 263.58,623.24 264.19,623.58 264.80,618.46 265.41,622.67 266.02,630.02 266.63,614.65 267.24,631.85 267.85,619.17 268.46,618.55 269.07,620.34 269.68,618.77 270.29,628.43 270.90,629.75 271.51,606.99 272.12,621.12 272.73,618.81 273.34,621.87 273.95,620.41 274.56,615.54 275.17,622.72 275.78,629.47 276.39,625.36 277.00,624.55 277.61,617.75 278.22,621.00 278.83,626.93 279.44,622.07 280.05,626.71 280.66,615.86 281.27,618.97 281.88,621.82 282.49,628.99 283.10,631.25 283.72,623.14 284.33,627.00 284.94,620.84 285.55,618.14 286.16,621.45 286.77,624.62 287.38,617.70 287.99,630.81 288.60,619.78 289.21,625.28 289.82,622.12 290.43,620.24 291.04,622.14 291.65,615.94 292.26,624.36 292.87,626.43 293.48,616.84 294.09,629.91 294.70,626.64 295.31,627.98 295.92,621.57 296.53,619.74 297.14,620.64 297.75,626.16 298.36,619.50 298.97,621.62 299.58,627.81 300.19,621.99 300.80,630.21 301.41,621.74 302.02,617.62 302.63,618.60 303.24,606.39 303.85,599.53 304.46,592.03 305.07,623.58 305.69,621.93 306.30,633.63 306.91,614.18 307.52,615.62 308.13,632.71 308.74,624.97 309.35,626.52 309.96,625.30 310.57,621.20 311.18,618.47 311.79,624.17 312.40,612.98 313.01,625.30 313.62,628.01 314.23,622.16 314.84,616.73 315.45,623.22 316.06,629.43 316.67,622.65 317.28,624.81 317.89,598.43 318.50,634.62 319.11,627.59 319.72,620.14 320.33,609.37 320.94,616.17 321.55,614.67 322.16,624.03 322.77,617.78 323.38,619.17 323.99,615.20 324.60,606.68 325.21,632.99 325.82,586.68 326.43,621.34 327.04,618.08 327.66,620.25 328.27,621.66 328.88,629.95 329.49,627.51 330.10,618.27 330.71,626.69 331.32,630.58 331.93,620.44 332.54,610.92 333.15,620.87 333.76,615.40 334.37,602.40 334.98,621.41 335.59,626.44 336.20,625.50 336.81,626.44 337.42,622.17 338.03,631.88 338.64,618.85 339.25,627.56 339.86,625.28 340.47,621.96 341.08,621.28 341.69,617.60 342.30,602.84 342.91,629.69 343.52,619.06 344.13,621.47 344.74,624.24 345.35,607.25 345.96,622.69 346.57,623.40 347.18,623.78 347.79,629.39 348.40,624.46 349.01,617.60 349.63,620.21 350.24,626.26 350.85,630.80 351.46,605.95 352.07,627.10 352.68,624.26 353.29,621.05 353.90,619.29 354.51,630.58 355.12,629.41 355.73,624.65 356.34,617.62 356.95,617.33 357.56,620.49 358.17,616.33 358.78,628.08 359.39,632.04 360.00,623.94 360.61,625.34 361.22,620.59 361.83,617.92 362.44,629.65 363.05,620.11 363.66,617.84 364.27,580.48 364.88,618.62 365.49,588.80 366.10,628.42 366.71,628.86 367.32,622.58 367.93,624.30 368.54,618.53 369.15,619.72 369.76,602.48 370.37,623.31 370.99,616.11 371.60,623.95 372.21,627.01 372.82,618.39 373.43,626.17 374.04,622.64 374.65,608.86 375.26,627.06 375.87,621.59 376.48,619.24 377.09,628.74 377.70,612.55 378.31,622.52 378.92,583.58 379.53,618.07 380.14,618.55 380.75,620.32 381.36,616.52 381.97,625.43 382.58,630.28 383.19,587.19 383.80,599.01 384.41,617.08 385.02,613.60 385.63,622.91 386.24,623.07 386.85,616.22 387.46,619.26 388.07,630.35 388.68,620.63 389.29,622.34 389.90,619.61 390.51,623.26 391.12,623.81 391.73,588.48 392.34,621.23 392.96,629.10 393.57,624.70 394.18,622.79 394.79,614.84 395.40,628.28 396.01,622.35 396.62,622.62 397.23,622.48 397.84,617.89 398.45,614.66 399.06,628.44 399.67,626.49 400.28,627.85 400.89,622.90 401.50,631.84 402.11,615.20 402.72,629.25 403.33,620.95 403.94,617.54 404.55,619.38 405.16,606.88 405.77,617.51 406.38,626.90 406.99,628.67 407.60,628.59 408.21,616.20 408.82,623.21 409.43,618.16 410.04,622.39 410.65,622.19 411.26,624.93 411.87,625.74 412.48,623.29 413.09,620.29 413.70,621.25 414.31,616.38 414.93,629.55 415.54,631.10 416.15,607.33 416.76,621.32 417.37,622.48 417.98,620.21 418.59,627.54 419.20,621.06 419.81,629.54 420.42,620.81 421.03,623.43 421.64,622.98 422.25,617.57 422.86,622.33 423.47,598.75 424.08,620.57 424.69,620.84 425.30,625.65 425.91,619.33 426.52,626.82 427.13,620.28 427.74,627.92 428.35,624.72 428.96,626.28 429.57,625.21 430.18,625.34 430.79,627.94 431.40,630.42 432.01,593.00 432.62,621.93 433.23,619.17 433.84,623.20 434.45,618.06 435.06,620.59 435.67,617.89 436.28,623.10 436.90,594.49 437.51,617.49 438.12,616.08 438.73,625.59 439.34,629.11 439.95,619.48 440.56,621.61 441.17,604.20 441.78,617.27 442.39,602.26 443.00,634.38 443.61,619.76 444.22,620.27 444.83,625.78 445.44,620.82 446.05,621.16 446.66,626.63 447.27,622.42 447.88,634.03 448.49,619.08 449.10,622.15 449.71,616.85 450.32,622.85 450.93,621.53 451.54,622.39 452.15,623.88 452.76,627.81 453.37,625.03 453.98,624.70 454.59,618.55 455.20,626.23 455.81,624.24 456.42,619.63 457.03,621.47 457.64,621.09 458.25,618.75 458.87,615.68 459.48,611.13 460.09,626.96 460.70,625.54 461.31,619.44 461.92,619.00 462.53,519.83 463.14,611.22 463.75,631.50 464.36,621.43 464.97,630.19 465.58,612.64 466.19,623.08 466.80,596.00 467.41,617.36 468.02,607.37 468.63,622.02 469.24,618.99 469.85,612.06 470.46,620.41 471.07,627.46 471.68,623.49 472.29,622.48 472.90,619.97 473.51,620.43 474.12,624.34 474.73,624.02 475.34,629.33 475.95,612.37 476.56,625.59 477.17,629.79 477.78,604.85 478.39,622.28 479.00,620.12 479.61,628.68 480.22,633.31 480.84,622.63 481.45,625.59 482.06,629.13 482.67,612.97 483.28,628.08 483.89,623.98 484.50,621.76 485.11,625.39 485.72,627.58 486.33,609.82 486.94,618.18 487.55,622.78 488.16,629.67 488.77,621.21 489.38,622.54 489.99,619.04 490.60,625.20 491.21,626.29 491.82,628.26 492.43,627.22 493.04,617.18 493.65,624.37 494.26,627.16 494.87,627.38 495.48,622.63 496.09,628.72 496.70,618.36 497.31,621.74 497.92,622.11 498.53,622.01 499.14,624.95 499.75,623.90 500.36,618.80 500.97,615.74 501.58,617.69 502.19,625.54 502.81,616.14 503.42,619.82 504.03,624.23 504.64,625.16 505.25,624.05 505.86,608.08 506.47,630.57 507.08,629.90 507.69,620.90 508.30,620.11 508.91,619.79 509.52,626.85 510.13,624.62 510.74,626.38 511.35,616.23 511.96,628.97 512.57,623.25 513.18,614.51 513.79,629.90 514.40,618.14 515.01,592.92 515.62,616.45 516.23,617.08 516.84,616.68 517.45,624.89 518.06,619.53 518.67,614.16 519.28,624.65 519.89,598.83 520.50,614.29 521.11,619.64 521.72,609.45 522.33,627.89 522.94,625.26 523.55,623.17 524.16,618.70 524.78,616.08 525.39,618.43 526.00,609.68 526.61,622.81 527.22,621.86 527.83,620.79 528.44,618.04 529.05,622.53 529.66,606.33 530.27,611.60 530.88,618.46 531.49,630.92 532.10,624.01 532.71,619.26 533.32,618.22 533.93,602.67 534.54,610.76 535.15,620.52 535.76,626.60 536.37,635.52 536.98,622.88 537.59,620.66 538.20,626.43 538.81,618.48 539.42,626.60 540.03,629.43 540.64,620.11 541.25,622.72 541.86,629.82 542.47,627.70 543.08,625.60 543.69,622.61 544.30,621.25 544.91,619.52 545.52,612.82 546.13,609.47 546.75,624.68 547.36,574.68 547.97,625.25 548.58,620.87 549.19,616.18 549.80,623.17 550.41,627.13 551.02,617.20 551.63,628.68 552.24,620.56 552.85,617.40 553.46,626.16 554.07,621.95 554.68,623.74 555.29,611.00 555.90,624.67 556.51,621.97 557.12,626.87 557.73,618.17 558.34,625.79 558.95,595.72 559.56,590.38 560.17,633.20 560.78,627.13 561.39,616.69 562.00,616.29 562.61,628.33 563.22,633.29 563.83,626.17 564.44,633.99 565.05,626.93 565.66,624.59 566.27,628.21 566.88,624.10 567.49,620.21 568.10,628.55 568.72,628.08 569.33,620.38 569.94,619.56 570.55,624.59 571.16,625.93 571.77,609.54 572.38,624.12 572.99,622.91 573.60,623.02 574.21,618.29 574.82,621.33 575.43,623.42 576.04,621.19 576.65,593.60 577.26,623.44 577.87,625.01 578.48,614.76 579.09,616.98 579.70,588.99 580.31,622.58 580.92,615.94 581.53,621.41 582.14,623.73 582.75,628.68 583.36,625.03 583.97,620.90 584.58,626.71 585.19,624.49 585.80,596.18 586.41,619.79 587.02,622.22 587.63,625.94 588.24,627.38 588.85,625.39 589.46,609.43 590.07,619.08 590.69,625.69 591.30,624.68 591.91,619.84 592.52,618.32 593.13,595.94 593.74,623.63 594.35,598.53 594.96,620.54 595.57,623.79 596.18,620.70 596.79,624.46 597.40,617.98 598.01,620.56 598.62,622.88 599.23,595.87 599.84,620.60 600.45,627.33 601.06,625.45 601.67,626.67 602.28,617.65 602.89,622.78 603.50,604.44 604.11,621.16 604.72,601.65 605.33,621.78 605.94,619.82 606.55,627.15 607.16,622.84 607.77,625.73 608.38,620.57 608.99,623.06 609.60,623.16 610.21,623.79 610.82,629.44 611.43,625.19 612.04,630.13 612.66,610.26 613.27,626.32 613.88,619.79 614.49,620.49 615.10,628.62 615.71,627.18 616.32,617.06 616.93,623.94 617.54,622.55 618.15,621.72 618.76,628.49 619.37,620.25 619.98,618.82 620.59,624.73 621.20,625.42 621.81,631.16 622.42,620.03 623.03,634.15 623.64,622.32 624.25,626.37 624.86,620.13 625.47,617.28 626.08,627.85 626.69,617.94 627.30,624.74 627.91,625.47 628.52,624.63 629.13,620.72 629.74,620.46 630.35,626.39 630.96,626.26 631.57,631.92 632.18,616.64 632.79,624.02 633.40,620.94 634.01,616.54 634.63,625.91 635.24,623.41 635.85,628.86 636.46,628.44 637.07,619.77 637.68,608.22 638.29,619.54 638.90,629.48 639.51,626.06 640.12,622.60 640.73,621.34 641.34,618.40 641.95,624.88 642.56,621.83 643.17,619.46 643.78,632.29 644.39,621.45 645.00,626.46 645.61,620.95 646.22,620.81 646.83,627.88 647.44,629.11 648.05,619.92 648.66,617.31 649.27,626.55 649.88,624.76 650.49,618.82 651.10,616.41 651.71,620.76 652.32,621.45 652.93,608.82 653.54,626.09 654.15,621.82 654.76,620.85 655.37,623.43 655.99,622.67 656.60,619.15 657.21,614.60 657.82,620.90 658.43,605.81 659.04,627.01 659.65,620.78 660.26,616.89 660.87,614.16 661.48,627.30 662.09,622.64 662.70,624.44 663.31,620.44 663.92,616.69 664.53,617.06 665.14,620.43 665.75,624.77 666.36,629.19 666.97,626.41 667.58,624.91 668.19,622.46 668.80,622.64 669.41,625.47 670.02,623.40 670.63,621.93 671.24,610.04 671.85,614.63 672.46,623.01 673.07,621.60 673.68,629.69 674.29,570.73 674.90,622.75 675.51,621.97 676.12,622.41 676.73,624.70 677.34,622.58 677.96,624.87 678.57,616.83 679.18,616.64 679.79,631.79 680.40,618.60 681.01,627.15 681.62,620.06 682.23,615.60 682.84,608.46 683.45,616.55 684.06,625.73 684.67,618.55 685.28,618.04 685.89,629.82 686.50,632.55 687.11,621.89 687.72,623.00 688.33,621.44 688.94,617.91 689.55,622.38 690.16,616.44 690.77,627.98 691.38,627.60 691.99,622.51 692.60,622.06 693.21,620.28 693.82,589.55 694.43,620.06 695.04,627.20 695.65,624.03 696.26,627.35 696.87,615.97 697.48,619.16 698.09,629.31 698.70,612.64 699.31,616.65 699.93,622.37 700.54,613.49 701.15,616.29 701.76,630.07 702.37,626.30 702.98,628.37 703.59,578.01 704.20,619.79 704.81,616.39 705.42,621.04 706.03,626.27 706.64,607.02 707.25,611.85 707.86,627.12 708.47,622.74 709.08,619.16 709.69,623.22 710.30,613.73 710.91,619.26 711.52,629.83 712.13,614.27 712.74,621.40 713.35,616.36 713.96,619.10 714.57,619.84 715.18,628.32 715.79,628.63 716.40,627.58 717.01,617.75 717.62,622.75 718.23,635.81 718.84,622.29 719.45,605.55 720.06,608.21 720.67,622.93 721.28,617.10 721.90,617.58 722.51,623.56 723.12,622.45 723.73,625.80 724.34,566.84 724.95,628.01 725.56,620.88 726.17,626.37 726.78,618.28 727.39,624.47 728.00,624.04 728.61,620.06 729.22,625.30 729.83,617.12 730.44,623.65 731.05,618.25 731.66,623.79 732.27,620.27 732.88,633.56 733.49,625.88 734.10,627.25 734.71,623.23 735.32,624.12 735.93,626.99 736.54,627.69 737.15,622.88 737.76,620.13 738.37,624.08 738.98,619.33 739.59,621.98 740.20,621.44 740.81,626.63 741.42,616.16 742.03,615.43 742.64,626.92 743.25,621.95 743.87,623.49 744.48,623.04 745.09,629.35 745.70,618.09 746.31,621.22 746.92,624.72 747.53,608.09 748.14,617.88 748.75,627.02 749.36,597.03 749.97,620.90 750.58,626.21 751.19,630.28 751.80,623.98 752.41,631.15 753.02,629.37 753.63,625.54 754.24,624.11 754.85,618.53 755.46,617.18 756.07,624.02 756.68,609.00 757.29,602.69 757.90,632.09 758.51,627.13 759.12,617.31 759.73,618.79 760.34,623.29 760.95,625.95 761.56,625.34 762.17,622.64 762.78,608.86 763.39,624.21 764.00,623.68 764.61,622.52 765.22,628.97 765.84,616.50 766.45,622.22 767.06,630.53 767.67,620.71 768.28,616.06 768.89,627.25 769.50,626.18 770.11,627.60 770.72,624.53 771.33,615.48 771.94,620.38 772.55,618.22 773.16,621.31 773.77,629.14 774.38,608.43 774.99,619.59 775.60,614.07 776.21,619.06 776.82,616.72 777.43,615.61 778.04,618.30 778.65,625.52 779.26,545.50 779.87,625.49 780.48,618.39 781.09,621.84 781.70,616.39 782.31,629.41 782.92,624.14 783.53,630.43 784.14,618.43 784.75,626.17 785.36,628.29 785.97,616.60 786.58,614.61 787.19,610.28 787.81,623.47 788.42,623.17 789.03,613.76 789.64,620.34 790.25,627.13 790.86,628.14 791.47,620.08 792.08,621.80 792.69,621.14 793.30,617.92 793.91,626.12 794.52,620.18 795.13,621.39 795.74,622.67 796.35,620.17 796.96,623.84 797.57,620.99 798.18,614.53 798.79,533.98 799.40,616.82 800.01,619.39 800.62,621.58 801.23,619.97 801.84,621.23 802.45,625.96 803.06,523.41 803.67,621.50 804.28,628.99 804.89,620.19 805.50,626.25 806.11,627.88 806.72,629.69 807.33,624.36 807.94,619.02 808.55,593.34 809.16,622.36 809.78,619.13 810.39,622.35 811.00,622.40 811.61,629.92 812.22,618.46 812.83,625.88 813.44,618.99 814.05,618.65 814.66,620.90 815.27,618.57 815.88,623.88 816.49,630.28 817.10,617.78 817.71,629.12 818.32,616.55 818.93,621.88 819.54,624.95 820.15,616.02 820.76,608.87 821.37,616.06 821.98,626.62 822.59,605.35 823.20,628.87 823.81,586.06 824.42,623.02 825.03,599.27 825.64,621.59 826.25,619.36 826.86,625.19 827.47,620.70 828.08,616.81 828.69,623.98 829.30,626.85 829.91,623.56 830.52,615.85 831.13,623.83 831.75,620.68 832.36,620.80 832.97,622.94 833.58,614.36 834.19,623.83 834.80,629.30 835.41,628.41 836.02,624.55 836.63,618.22 837.24,629.41 837.85,616.34 838.46,626.01 839.07,616.94 839.68,625.80 840.29,623.21 840.90,623.46 841.51,624.82 842.12,630.64 842.73,630.12 843.34,623.26 843.95,620.46 844.56,625.96 845.17,593.99 845.78,620.05 846.39,630.71 847.00,627.41 847.61,625.15 848.22,616.84 848.83,618.44 849.44,618.30 850.05,540.14 850.66,632.76 851.27,620.93 851.88,629.69 852.49,625.06 853.10,616.54 853.72,570.98 854.33,620.64 854.94,630.70 855.55,607.53 856.16,617.40 856.77,617.91 857.38,621.29 857.99,628.02 858.60,619.52 859.21,626.95 859.82,622.00 860.43,620.30 861.04,616.11 861.65,619.49 862.26,612.45 862.87,621.36 863.48,614.35 864.09,628.44 864.70,622.06 865.31,616.90 865.92,617.37 866.53,618.17 867.14,620.86 867.75,630.95 868.36,630.70 868.97,623.87 869.58,626.13 870.19,625.25 870.80,614.82 871.41,612.96 872.02,629.41 872.63,621.87 873.24,618.40 873.85,623.65 874.46,628.32 875.07,622.45 875.69,621.97 876.30,617.33 876.91,619.90 877.52,635.17 878.13,622.61 878.74,628.32 879.35,621.78 879.96,626.15 880.57,627.88 881.18,618.75 881.79,604.99 882.40,406.06 883.01,616.16 883.62,613.37 884.23,619.32 884.84,623.07 885.45,622.85 886.06,601.73 886.67,610.59 887.28,623.41 887.89,626.90 888.50,625.15 889.11,624.79 889.72,614.67 890.33,626.60 890.94,621.85 891.55,622.44 892.16,627.48 892.77,623.70 893.38,626.75 893.99,627.55 894.60,617.66 895.21,618.14 895.82,625.41 896.43,615.48 897.04,624.62 897.66,621.03 898.27,616.92 898.88,620.97 899.49,620.58 900.10,570.11 900.71,626.61 901.32,610.84 901.93,600.23 902.54,617.05 903.15,619.65 903.76,621.47 904.37,618.55 904.98,627.39 905.59,620.43 906.20,627.51 906.81,502.64 907.42,616.55 908.03,618.24 908.64,625.24 909.25,619.21 909.86,628.37 910.47,624.94 911.08,620.80 911.69,573.66 912.30,624.31 912.91,619.78 913.52,620.85 914.13,629.94 914.74,629.76 915.35,623.94 915.96,609.82 916.57,620.66 917.18,622.92 917.79,630.35 918.40,623.92 919.01,627.50 919.63,372.50 920.24,624.39 920.85,628.84 921.46,623.40 922.07,627.51 922.68,617.73 923.29,586.27 923.90,624.13 924.51,626.77 925.12,621.59 925.73,616.92 926.34,621.24 926.95,622.54 927.56,629.54 928.17,629.70 928.78,619.03 929.39,625.81 930.00,627.72" fill="none" stroke="#2e7d32" stroke-width="1.5"/>
<text x="18" y="181.25" text-anchor="middle" font-size="13" transform="rotate(-90 18 181.25)">Throughput (Mbps)</text>
<text x="18" y="508.75" text-anchor="middle" font-size="13" transform="rotate(-90 18 508.75)">Reward / Probability</text>
<text x="480.0" y="693" text-anchor="middle" font-size="13">Episode</text>
<line x1="720" y1="58" x2="750" y2="58" stroke="#1565c0" stroke-width="2"/><text x="758" y="62" font-size="12">Train throughput</text>
<line x1="720" y1="78" x2="750" y2="78" stroke="#d32f2f" stroke-width="2"/><text x="758" y="82" font-size="12">Validation throughput</text>
<line x1="720" y1="387.5" x2="750" y2="387.5" stroke="#2e7d32" stroke-width="2"/><text x="758" y="391.5" font-size="12">Mean window reward</text>
<line x1="720" y1="407.5" x2="750" y2="407.5" stroke="#7b1fa2" stroke-width="2"/><text x="758" y="411.5" font-size="12">Validation max probability</text>
</svg>