<svg xmlns="http://www.w3.org/2000/svg" width="800" height="500">
<rect width="100%" height="100%" fill="white"/>
<text x="70.00" y="465" text-anchor="middle" font-size="12">0</text>
<line x1="156.50" y1="30" x2="156.50" y2="440" stroke="#e8e8e8" stroke-dasharray="3,3"/>
<text x="156.50" y="465" text-anchor="middle" font-size="12">5</text>
<line x1="243.01" y1="30" x2="243.01" y2="440" stroke="#e8e8e8" stroke-dasharray="3,3"/>
<text x="243.01" y="465" text-anchor="middle" font-size="12">10</text>
<line x1="329.51" y1="30" x2="329.51" y2="440" stroke="#e8e8e8" stroke-dasharray="3,3"/>
<text x="329.51" y="465" text-anchor="middle" font-size="12">15</text>
<line x1="416.01" y1="30" x2="416.01" y2="440" stroke="#e8e8e8" stroke-dasharray="3,3"/>
<text x="416.01" y="465" text-anchor="middle" font-size="12">20</text>
<line x1="502.52" y1="30" x2="502.52" y2="440" stroke="#e8e8e8" stroke-dasharray="3,3"/>
<text x="502.52" y="465" text-anchor="middle" font-size="12">25</text>
<line x1="589.02" y1="30" x2="589.02" y2="440" stroke="#e8e8e8" stroke-dasharray="3,3"/>
<text x="589.02" y="465" text-anchor="middle" font-size="12">30</text>
<line x1="675.52" y1="30" x2="675.52" y2="440" stroke="#e8e8e8" stroke-dasharray="3,3"/>
<text x="675.52" y="465" text-anchor="middle" font-size="12">35</text>
<line x1="762.02" y1="30" x2="762.02" y2="440" stroke="#e8e8e8" stroke-dasharray="3,3"/>
<text x="762.02" y="465" text-anchor="middle" font-size="12">40</text>
<text x="62" y="444.00" text-anchor="end" font-size="12">0</text>
<line x1="70" y1="371.67" x2="775" y2="371.67" stroke="#e8e8e8" stroke-dasharray="3,3"/>
<text x="62" y="375.67" text-anchor="end" font-size="12">10</text>
<line x1="70" y1="303.33" x2="775" y2="303.33" stroke="#e8e8e8" stroke-dasharray="3,3"/>
<text x="62" y="307.33" text-anchor="end" font-size="12">20</text>
<line x1="70" y1="235.00" x2="775" y2="235.00" stroke="#e8e8e8" stroke-dasharray="3,3"/>
<text x="62" y="239.00" text-anchor="end" font-size="12">30</text>
<line x1="70" y1="166.67" x2="775" y2="166.67" stroke="#e8e8e8" stroke-dasharray="3,3"/>
<text x="62" y="170.67" text-anchor="end" font-size="12">40</text>
<line x1="70" y1="98.33" x2="775" y2="98.33" stroke="#e8e8e8" stroke-dasharray="3,3"/>
<text x="62" y="102.33" text-anchor="end" font-size="12">50</text>
<line x1="70" y1="30.00" x2="775" y2="30.00" stroke="#e8e8e8" stroke-dasharray="3,3"/>
<text x="62" y="34.00" text-anchor="end" font-size="12">60</text>
<line x1="70" y1="30" x2="70" y2="440" stroke="black"/>
<line x1="70" y1="440" x2="775" y2="440" stroke="black"/>
<polyline points="95.95,39.91 100.28,33.35 104.60,33.35 108.93,33.45 113.25,33.18 117.58,33.43 121.90,33.31 126.23,33.41 130.55,33.55 134.88,33.44 139.20,33.20 143.53,33.28 147.85,33.45 152.18,33.39 156.50,33.41 160.83,33.48 165.15,33.29 169.48,33.40 173.80,33.41 178.13,33.48 182.45,33.47 186.78,33.34 191.10,33.55 195.43,33.24 199.75,33.38 204.08,33.28 208.40,33.38 212.73,33.31 217.06,33.46 221.38,33.31 225.71,33.34 230.03,33.41 234.36,33.88 238.68,34.86 243.01,56.14 247.33,74.28 251.66,75.01 255.98,76.47 260.31,108.05 264.63,114.74 268.96,115.33 273.28,116.06 277.61,144.20 281.93,196.21 286.26,196.14 290.58,196.24 294.91,196.13 299.23,196.10 303.56,196.24 307.88,196.18 312.21,196.24 316.53,196.12 320.86,196.21 325.18,196.09 329.51,196.20 333.83,196.13 338.16,196.14 342.48,196.14 346.81,196.29 351.13,196.35 355.46,196.48 359.79,196.73 364.11,197.67 368.44,228.41 372.76,277.64 377.09,277.69 381.41,277.71 385.74,277.64 390.06,277.63 394.39,277.67 398.71,277.64 403.04,277.67 407.36,277.71 411.69,277.66 416.01,277.67 420.34,277.70 424.66,277.83 428.99,277.74 433.31,277.86 437.64,278.11 441.96,278.43 446.29,279.09 450.61,311.64 454.94,318.71 459.26,318.65 463.59,318.68 467.91,318.69 472.24,318.67 476.56,318.75 480.89,318.69 485.21,318.67 489.54,318.73 493.87,318.67 498.19,318.70 502.52,318.75 506.84,318.73 511.17,318.72 515.49,318.71 519.82,318.66 524.14,318.69 528.47,318.70 532.79,318.71 537.12,318.69 541.44,318.78 545.77,318.76 550.09,318.83 554.42,318.96 558.74,319.06 563.07,319.24 567.39,319.71 571.72,342.42 576.04,359.32 580.37,359.31 584.69,359.28 589.02,359.31 593.34,359.32 597.67,359.30 601.99,359.33 606.32,359.33 610.64,359.34 614.97,359.35 619.29,359.29 623.62,359.33 627.94,359.33 632.27,359.31 636.60,359.35 640.92,359.32 645.25,359.32 649.57,359.31 653.90,359.35 658.22,359.34 662.55,359.44 666.87,359.30 671.20,359.43 675.52,359.54 679.85,359.59 684.17,359.60 688.50,359.66 692.82,360.01 697.15,378.82 701.47,400.36 705.80,400.36 710.12,400.33 714.45,400.37 718.77,400.35 723.10,400.33 727.42,400.39 731.75,400.35 736.07,400.36 740.40,400.33 744.72,400.37 749.05,400.35 753.37,400.38 757.70,400.36 762.02,400.34 766.35,400.36 770.67,400.38 775.00,400.34" fill="none" stroke="#1565c0" stroke-width="2"/>
<circle cx="95.95" cy="39.91" r="2.5" fill="#1565c0"/>
<circle cx="100.28" cy="33.35" r="2.5" fill="#1565c0"/>
<circle cx="104.60" cy="33.35" r="2.5" fill="#1565c0"/>
<circle cx="108.93" cy="33.45" r="2.5" fill="#1565c0"/>
<circle cx="113.25" cy="33.18" r="2.5" fill="#1565c0"/>
<circle cx="117.58" cy="33.43" r="2.5" fill="#1565c0"/>
<circle cx="121.90" cy="33.31" r="2.5" fill="#1565c0"/>
<circle cx="126.23" cy="33.41" r="2.5" fill="#1565c0"/>
<circle cx="130.55" cy="33.55" r="2.5" fill="#1565c0"/>
<circle cx="134.88" cy="33.44" r="2.5" fill="#1565c0"/>
<circle cx="139.20" cy="33.20" r="2.5" fill="#1565c0"/>
<circle cx="143.53" cy="33.28" r="2.5" fill="#1565c0"/>
<circle cx="147.85" cy="33.45" r="2.5" fill="#1565c0"/>
<circle cx="152.18" cy="33.39" r="2.5" fill="#1565c0"/>
<circle cx="156.50" cy="33.41" r="2.5" fill="#1565c0"/>
<circle cx="160.83" cy="33.48" r="2.5" fill="#1565c0"/>
<circle cx="165.15" cy="33.29" r="2.5" fill="#1565c0"/>
<circle cx="169.48" cy="33.40" r="2.5" fill="#1565c0"/>
<circle cx="173.80" cy="33.41" r="2.5" fill="#1565c0"/>
<circle cx="178.13" cy="33.48" r="2.5" fill="#1565c0"/>
<circle cx="182.45" cy="33.47" r="2.5" fill="#1565c0"/>
<circle cx="186.78" cy="33.34" r="2.5" fill="#1565c0"/>
<circle cx="191.10" cy="33.55" r="2.5" fill="#1565c0"/>
<circle cx="195.43" cy="33.24" r="2.5" fill="#1565c0"/>
<circle cx="199.75" cy="33.38" r="2.5" fill="#1565c0"/>
<circle cx="204.08" cy="33.28" r="2.5" fill="#1565c0"/>
<circle cx="208.40" cy="33.38" r="2.5" fill="#1565c0"/>
<circle cx="212.73" cy="33.31" r="2.5" fill="#1565c0"/>
<circle cx="217.06" cy="33.46" r="2.5" fill="#1565c0"/>
<circle cx="221.38" cy="33.31" r="2.5" fill="#1565c0"/>
<circle cx="225.71" cy="33.34" r="2.5" fill="#1565c0"/>
<circle cx="230.03" cy="33.41" r="2.5" fill="#1565c0"/>
<circle cx="234.36" cy="33.88" r="2.5" fill="#1565c0"/>
<circle cx="238.68" cy="34.86" r="2.5" fill="#1565c0"/>
<circle cx="243.01" cy="56.14" r="2.5" fill="#1565c0"/>
<circle cx="247.33" cy="74.28" r="2.5" fill="#1565c0"/>
<circle cx="251.66" cy="75.01" r="2.5" fill="#1565c0"/>
<circle cx="255.98" cy="76.47" r="2.5" fill="#1565c0"/>
<circle cx="260.31" cy="108.05" r="2.5" fill="#1565c0"/>
<circle cx="264.63" cy="114.74" r="2.5" fill="#1565c0"/>
<circle cx="268.96" cy="115.33" r="2.5" fill="#1565c0"/>
<circle cx="273.28" cy="116.06" r="2.5" fill="#1565c0"/>
<circle cx="277.61" cy="144.20" r="2.5" fill="#1565c0"/>
<circle cx="281.93" cy="196.21" r="2.5" fill="#1565c0"/>
<circle cx="286.26" cy="196.14" r="2.5" fill="#1565c0"/>
<circle cx="290.58" cy="196.24" r="2.5" fill="#1565c0"/>
<circle cx="294.91" cy="196.13" r="2.5" fill="#1565c0"/>
<circle cx="299.23" cy="196.10" r="2.5" fill="#1565c0"/>
<circle cx="303.56" cy="196.24" r="2.5" fill="#1565c0"/>
<circle cx="307.88" cy="196.18" r="2.5" fill="#1565c0"/>
<circle cx="312.21" cy="196.24" r="2.5" fill="#1565c0"/>
<circle cx="316.53" cy="196.12" r="2.5" fill="#1565c0"/>
<circle cx="320.86" cy="196.21" r="2.5" fill="#1565c0"/>
<circle cx="325.18" cy="196.09" r="2.5" fill="#1565c0"/>
<circle cx="329.51" cy="196.20" r="2.5" fill="#1565c0"/>
<circle cx="333.83" cy="196.13" r="2.5" fill="#1565c0"/>
<circle cx="338.16" cy="196.14" r="2.5" fill="#1565c0"/>
<circle cx="342.48" cy="196.14" r="2.5" fill="#1565c0"/>
<circle cx="346.81" cy="196.29" r="2.5" fill="#1565c0"/>
<circle cx="351.13" cy="196.35" r="2.5" fill="#1565c0"/>
<circle cx="355.46" cy="196.48" r="2.5" fill="#1565c0"/>
<circle cx="359.79" cy="196.73" r="2.5" fill="#1565c0"/>
<circle cx="364.11" cy="197.67" r="2.5" fill="#1565c0"/>
<circle cx="368.44" cy="228.41" r="2.5" fill="#1565c0"/>
<circle cx="372.76" cy="277.64" r="2.5" fill="#1565c0"/>
<circle cx="377.09" cy="277.69" r="2.5" fill="#1565c0"/>
<circle cx="381.41" cy="277.71" r="2.5" fill="#1565c0"/>
<circle cx="385.74" cy="277.64" r="2.5" fill="#1565c0"/>
<circle cx="390.06" cy="277.63" r="2.5" fill="#1565c0"/>
<circle cx="394.39" cy="277.67" r="2.5" fill="#1565c0"/>
<circle cx="398.71" cy="277.64" r="2.5" fill="#1565c0"/>
<circle cx="403.04" cy="277.67" r="2.5" fill="#1565c0"/>
<circle cx="407.36" cy="277.71" r="2.5" fill="#1565c0"/>
<circle cx="411.69" cy="277.66" r="2.5" fill="#1565c0"/>
<circle cx="416.01" cy="277.67" r="2.5" fill="#1565c0"/>
<circle cx="420.34" cy="277.70" r="2.5" fill="#1565c0"/>
<circle cx="424.66" cy="277.83" r="2.5" fill="#1565c0"/>
<circle cx="428.99" cy="277.74" r="2.5" fill="#1565c0"/>
<circle cx="433.31" cy="277.86" r="2.5" fill="#1565c0"/>
<circle cx="437.64" cy="278.11" r="2.5" fill="#1565c0"/>
<circle cx="441.96" cy="278.43" r="2.5" fill="#1565c0"/>
<circle cx="446.29" cy="279.09" r="2.5" fill="#1565c0"/>
<circle cx="450.61" cy="311.64" r="2.5" fill="#1565c0"/>
<circle cx="454.94" cy="318.71" r="2.5" fill="#1565c0"/>
<circle cx="459.26" cy="318.65" r="2.5" fill="#1565c0"/>
<circle cx="463.59" cy="318.68" r="2.5" fill="#1565c0"/>
<circle cx="467.91" cy="318.69" r="2.5" fill="#1565c0"/>
<circle cx="472.24" cy="318.67" r="2.5" fill="#1565c0"/>
<circle cx="476.56" cy="318.75" r="2.5" fill="#1565c0"/>
<circle cx="480.89" cy="318.69" r="2.5" fill="#1565c0"/>
<circle cx="485.21" cy="318.67" r="2.5" fill="#1565c0"/>
<circle cx="489.54" cy="318.73" r="2.5" fill="#1565c0"/>
<circle cx="493.87" cy="318.67" r="2.5" fill="#1565c0"/>
<circle cx="498.19" cy="318.70" r="2.5" fill="#1565c0"/>
<circle cx="502.52" cy="318.75" r="2.5" fill="#1565c0"/>
<circle cx="506.84" cy="318.73" r="2.5" fill="#1565c0"/>
<circle cx="511.17" cy="318.72" r="2.5" fill="#1565c0"/>
<circle cx="515.49" cy="318.71" r="2.5" fill="#1565c0"/>
<circle cx="519.82" cy="318.66" r="2.5" fill="#1565c0"/>
<circle cx="524.14" cy="318.69" r="2.5" fill="#1565c0"/>
<circle cx="528.47" cy="318.70" r="2.5" fill="#1565c0"/>
<circle cx="532.79" cy="318.71" r="2.5" fill="#1565c0"/>
<circle cx="537.12" cy="318.69" r="2.5" fill="#1565c0"/>
<circle cx="541.44" cy="318.78" r="2.5" fill="#1565c0"/>
<circle cx="545.77" cy="318.76" r="2.5" fill="#1565c0"/>
<circle cx="550.09" cy="318.83" r="2.5" fill="#1565c0"/>
<circle cx="554.42" cy="318.96" r="2.5" fill="#1565c0"/>
<circle cx="558.74" cy="319.06" r="2.5" fill="#1565c0"/>
<circle cx="563.07" cy="319.24" r="2.5" fill="#1565c0"/>
<circle cx="567.39" cy="319.71" r="2.5" fill="#1565c0"/>
<circle cx="571.72" cy="342.42" r="2.5" fill="#1565c0"/>
<circle cx="576.04" cy="359.32" r="2.5" fill="#1565c0"/>
<circle cx="580.37" cy="359.31" r="2.5" fill="#1565c0"/>
<circle cx="584.69" cy="359.28" r="2.5" fill="#1565c0"/>
<circle cx="589.02" cy="359.31" r="2.5" fill="#1565c0"/>
<circle cx="593.34" cy="359.32" r="2.5" fill="#1565c0"/>
<circle cx="597.67" cy="359.30" r="2.5" fill="#1565c0"/>
<circle cx="601.99" cy="359.33" r="2.5" fill="#1565c0"/>
<circle cx="606.32" cy="359.33" r="2.5" fill="#1565c0"/>
<circle cx="610.64" cy="359.34" r="2.5" fill="#1565c0"/>
<circle cx="614.97" cy="359.35" r="2.5" fill="#1565c0"/>
<circle cx="619.29" cy="359.29" r="2.5" fill="#1565c0"/>
<circle cx="623.62" cy="359.33" r="2.5" fill="#1565c0"/>
<circle cx="627.94" cy="359.33" r="2.5" fill="#1565c0"/>
<circle cx="632.27" cy="359.31" r="2.5" fill="#1565c0"/>
<circle cx="636.60" cy="359.35" r="2.5" fill="#1565c0"/>
<circle cx="640.92" cy="359.32" r="2.5" fill="#1565c0"/>
<circle cx="645.25" cy="359.32" r="2.5" fill="#1565c0"/>
<circle cx="649.57" cy="359.31" r="2.5" fill="#1565c0"/>
<circle cx="653.90" cy="359.35" r="2.5" fill="#1565c0"/>
<circle cx="658.22" cy="359.34" r="2.5" fill="#1565c0"/>
<circle cx="662.55" cy="359.44" r="2.5" fill="#1565c0"/>
<circle cx="666.87" cy="359.30" r="2.5" fill="#1565c0"/>
<circle cx="671.20" cy="359.43" r="2.5" fill="#1565c0"/>
<circle cx="675.52" cy="359.54" r="2.5" fill="#1565c0"/>
<circle cx="679.85" cy="359.59" r="2.5" fill="#1565c0"/>
<circle cx="684.17" cy="359.60" r="2.5" fill="#1565c0"/>
<circle cx="688.50" cy="359.66" r="2.5" fill="#1565c0"/>
<circle cx="692.82" cy="360.01" r="2.5" fill="#1565c0"/>
<circle cx="697.15" cy="378.82" r="2.5" fill="#1565c0"/>
<circle cx="701.47" cy="400.36" r="2.5" fill="#1565c0"/>
<circle cx="705.80" cy="400.36" r="2.5" fill="#1565c0"/>
<circle cx="710.12" cy="400.33" r="2.5" fill="#1565c0"/>
<circle cx="714.45" cy="400.37" r="2.5" fill="#1565c0"/>
<circle cx="718.77" cy="400.35" r="2.5" fill="#1565c0"/>
<circle cx="723.10" cy="400.33" r="2.5" fill="#1565c0"/>
<circle cx="727.42" cy="400.39" r="2.5" fill="#1565c0"/>
<circle cx="731.75" cy="400.35" r="2.5" fill="#1565c0"/>
<circle cx="736.07" cy="400.36" r="2.5" fill="#1565c0"/>
<circle cx="740.40" cy="400.33" r="2.5" fill="#1565c0"/>
<circle cx="744.72" cy="400.37" r="2.5" fill="#1565c0"/>
<circle cx="749.05" cy="400.35" r="2.5" fill="#1565c0"/>
<circle cx="753.37" cy="400.38" r="2.5" fill="#1565c0"/>
<circle cx="757.70" cy="400.36" r="2.5" fill="#1565c0"/>
<circle cx="762.02" cy="400.34" r="2.5" fill="#1565c0"/>
<circle cx="766.35" cy="400.36" r="2.5" fill="#1565c0"/>
<circle cx="770.67" cy="400.38" r="2.5" fill="#1565c0"/>
<circle cx="775.00" cy="400.34" r="2.5" fill="#1565c0"/>
<polyline points="95.95,71.43 100.28,35.66 104.60,35.95 108.93,33.98 113.25,33.24 117.58,33.38 121.90,33.43 126.23,33.28 130.55,33.24 134.88,33.39 139.20,33.42 143.53,33.33 147.85,33.35 152.18,33.37 156.50,33.38 160.83,33.39 165.15,33.21 169.48,33.25 173.80,33.39 178.13,33.37 182.45,33.37 186.78,33.43 191.10,33.31 195.43,33.24 199.75,33.31 204.08,33.41 208.40,33.38 212.73,33.28 217.06,33.33 221.38,33.37 225.71,33.48 230.03,33.64 234.36,33.88 238.68,35.04 243.01,38.83 247.33,49.49 251.66,73.31 255.98,94.00 260.31,81.00 264.63,90.94 268.96,127.16 273.28,125.89 277.61,120.96 281.93,128.38 286.26,140.14 290.58,163.95 294.91,211.69 299.23,280.24 303.56,268.90 307.88,251.44 312.21,244.54 316.53,237.32 320.86,236.56 325.18,236.58 329.51,236.05 333.83,236.88 338.16,236.48 342.48,236.81 346.81,236.74 351.13,236.18 355.46,236.73 359.79,236.97 364.11,237.08 368.44,238.20 372.76,239.92 377.09,242.17 381.41,247.45 385.74,254.05 390.06,267.06 394.39,285.01 398.71,308.93 403.04,332.32 407.36,308.63 411.69,295.82 416.01,295.65 420.34,295.51 424.66,296.06 428.99,295.33 433.31,295.66 437.64,296.42 441.96,295.70 446.29,296.92 450.61,297.08 454.94,298.01 459.26,300.61 463.59,302.79 467.91,306.74 472.24,313.44 476.56,320.65 480.89,332.50 485.21,346.96 489.54,358.46 493.87,342.25 498.19,331.23 502.52,328.92 506.84,328.40 511.17,328.42 515.49,328.23 519.82,328.31 524.14,328.26 528.47,328.29 532.79,328.64 537.12,328.15 541.44,328.44 545.77,328.39 550.09,328.40 554.42,328.36 558.74,328.87 563.07,328.70 567.39,329.44 571.72,329.58 576.04,330.01 580.37,330.79 584.69,332.44 589.02,334.44 593.34,336.83 597.67,340.24 601.99,345.46 606.32,351.02 610.64,358.61 614.97,369.01 619.29,378.10 623.62,380.52 627.94,375.69 632.27,376.16 636.60,374.34 640.92,369.62 645.25,365.07 649.57,362.78 653.90,362.71 658.22,362.62 662.55,362.75 666.87,362.87 671.20,362.61 675.52,362.87 679.85,362.85 684.17,363.13 688.50,363.15 692.82,363.46 697.15,363.70 701.47,364.03 705.80,364.98 710.12,365.28 714.45,366.63 718.77,367.65 723.10,368.96 727.42,371.49 731.75,374.20 736.07,377.11 740.40,381.80 744.72,387.17 749.05,392.94 753.37,400.88 757.70,408.37 762.02,409.17 766.35,404.19 770.67,404.77 775.00,403.34" fill="none" stroke="#d32f2f" stroke-width="2"/>
<path d="M 92.95 68.43 L 98.95 74.43 M 92.95 74.43 L 98.95 68.43" stroke="#d32f2f"/>
<path d="M 97.28 32.66 L 103.28 38.66 M 97.28 38.66 L 103.28 32.66" stroke="#d32f2f"/>
<path d="M 101.60 32.95 L 107.60 38.95 M 101.60 38.95 L 107.60 32.95" stroke="#d32f2f"/>
<path d="M 105.93 30.98 L 111.93 36.98 M 105.93 36.98 L 111.93 30.98" stroke="#d32f2f"/>
<path d="M 110.25 30.24 L 116.25 36.24 M 110.25 36.24 L 116.25 30.24" stroke="#d32f2f"/>
<path d="M 114.58 30.38 L 120.58 36.38 M 114.58 36.38 L 120.58 30.38" stroke="#d32f2f"/>
<path d="M 118.90 30.43 L 124.90 36.43 M 118.90 36.43 L 124.90 30.43" stroke="#d32f2f"/>
<path d="M 123.23 30.28 L 129.23 36.28 M 123.23 36.28 L 129.23 30.28" stroke="#d32f2f"/>
<path d="M 127.55 30.24 L 133.55 36.24 M 127.55 36.24 L 133.55 30.24" stroke="#d32f2f"/>
<path d="M 131.88 30.39 L 137.88 36.39 M 131.88 36.39 L 137.88 30.39" stroke="#d32f2f"/>
<path d="M 136.20 30.42 L 142.20 36.42 M 136.20 36.42 L 142.20 30.42" stroke="#d32f2f"/>
<path d="M 140.53 30.33 L 146.53 36.33 M 140.53 36.33 L 146.53 30.33" stroke="#d32f2f"/>
<path d="M 144.85 30.35 L 150.85 36.35 M 144.85 36.35 L 150.85 30.35" stroke="#d32f2f"/>
<path d="M 149.18 30.37 L 155.18 36.37 M 149.18 36.37 L 155.18 30.37" stroke="#d32f2f"/>
<path d="M 153.50 30.38 L 159.50 36.38 M 153.50 36.38 L 159.50 30.38" stroke="#d32f2f"/>
<path d="M 157.83 30.39 L 163.83 36.39 M 157.83 36.39 L 163.83 30.39" stroke="#d32f2f"/>
<path d="M 162.15 30.21 L 168.15 36.21 M 162.15 36.21 L 168.15 30.21" stroke="#d32f2f"/>
<path d="M 166.48 30.25 L 172.48 36.25 M 166.48 36.25 L 172.48 30.25" stroke="#d32f2f"/>
<path d="M 170.80 30.39 L 176.80 36.39 M 170.80 36.39 L 176.80 30.39" stroke="#d32f2f"/>
<path d="M 175.13 30.37 L 181.13 36.37 M 175.13 36.37 L 181.13 30.37" stroke="#d32f2f"/>
<path d="M 179.45 30.37 L 185.45 36.37 M 179.45 36.37 L 185.45 30.37" stroke="#d32f2f"/>
<path d="M 183.78 30.43 L 189.78 36.43 M 183.78 36.43 L 189.78 30.43" stroke="#d32f2f"/>
<path d="M 188.10 30.31 L 194.10 36.31 M 188.10 36.31 L 194.10 30.31" stroke="#d32f2f"/>
<path d="M 192.43 30.24 L 198.43 36.24 M 192.43 36.24 L 198.43 30.24" stroke="#d32f2f"/>
<path d="M 196.75 30.31 L 202.75 36.31 M 196.75 36.31 L 202.75 30.31" stroke="#d32f2f"/>
<path d="M 201.08 30.41 L 207.08 36.41 M 201.08 36.41 L 207.08 30.41" stroke="#d32f2f"/>
<path d="M 205.40 30.38 L 211.40 36.38 M 205.40 36.38 L 211.40 30.38" stroke="#d32f2f"/>
<path d="M 209.73 30.28 L 215.73 36.28 M 209.73 36.28 L 215.73 30.28" stroke="#d32f2f"/>
<path d="M 214.06 30.33 L 220.06 36.33 M 214.06 36.33 L 220.06 30.33" stroke="#d32f2f"/>
<path d="M 218.38 30.37 L 224.38 36.37 M 218.38 36.37 L 224.38 30.37" stroke="#d32f2f"/>
<path d="M 222.71 30.48 L 228.71 36.48 M 222.71 36.48 L 228.71 30.48" stroke="#d32f2f"/>
<path d="M 227.03 30.64 L 233.03 36.64 M 227.03 36.64 L 233.03 30.64" stroke="#d32f2f"/>
<path d="M 231.36 30.88 L 237.36 36.88 M 231.36 36.88 L 237.36 30.88" stroke="#d32f2f"/>
<path d="M 235.68 32.04 L 241.68 38.04 M 235.68 38.04 L 241.68 32.04" stroke="#d32f2f"/>
<path d="M 240.01 35.83 L 246.01 41.83 M 240.01 41.83 L 246.01 35.83" stroke="#d32f2f"/>
<path d="M 244.33 46.49 L 250.33 52.49 M 244.33 52.49 L 250.33 46.49" stroke="#d32f2f"/>
<path d="M 248.66 70.31 L 254.66 76.31 M 248.66 76.31 L 254.66 70.31" stroke="#d32f2f"/>
<path d="M 252.98 91.00 L 258.98 97.00 M 252.98 97.00 L 258.98 91.00" stroke="#d32f2f"/>
<path d="M 257.31 78.00 L 263.31 84.00 M 257.31 84.00 L 263.31 78.00" stroke="#d32f2f"/>
<path d="M 261.63 87.94 L 267.63 93.94 M 261.63 93.94 L 267.63 87.94" stroke="#d32f2f"/>
<path d="M 265.96 124.16 L 271.96 130.16 M 265.96 130.16 L 271.96 124.16" stroke="#d32f2f"/>
<path d="M 270.28 122.89 L 276.28 128.89 M 270.28 128.89 L 276.28 122.89" stroke="#d32f2f"/>
<path d="M 274.61 117.96 L 280.61 123.96 M 274.61 123.96 L 280.61 117.96" stroke="#d32f2f"/>
<path d="M 278.93 125.38 L 284.93 131.38 M 278.93 131.38 L 284.93 125.38" stroke="#d32f2f"/>
<path d="M 283.26 137.14 L 289.26 143.14 M 283.26 143.14 L 289.26 137.14" stroke="#d32f2f"/>
<path d="M 287.58 160.95 L 293.58 166.95 M 287.58 166.95 L 293.58 160.95" stroke="#d32f2f"/>
<path d="M 291.91 208.69 L 297.91 214.69 M 291.91 214.69 L 297.91 208.69" stroke="#d32f2f"/>
<path d="M 296.23 277.24 L 302.23 283.24 M 296.23 283.24 L 302.23 277.24" stroke="#d32f2f"/>
<path d="M 300.56 265.90 L 306.56 271.90 M 300.56 271.90 L 306.56 265.90" stroke="#d32f2f"/>
<path d="M 304.88 248.44 L 310.88 254.44 M 304.88 254.44 L 310.88 248.44" stroke="#d32f2f"/>
<path d="M 309.21 241.54 L 315.21 247.54 M 309.21 247.54 L 315.21 241.54" stroke="#d32f2f"/>
<path d="M 313.53 234.32 L 319.53 240.32 M 313.53 240.32 L 319.53 234.32" stroke="#d32f2f"/>
<path d="M 317.86 233.56 L 323.86 239.56 M 317.86 239.56 L 323.86 233.56" stroke="#d32f2f"/>
<path d="M 322.18 233.58 L 328.18 239.58 M 322.18 239.58 L 328.18 233.58" stroke="#d32f2f"/>
<path d="M 326.51 233.05 L 332.51 239.05 M 326.51 239.05 L 332.51 233.05" stroke="#d32f2f"/>
<path d="M 330.83 233.88 L 336.83 239.88 M 330.83 239.88 L 336.83 233.88" stroke="#d32f2f"/>
<path d="M 335.16 233.48 L 341.16 239.48 M 335.16 239.48 L 341.16 233.48" stroke="#d32f2f"/>
<path d="M 339.48 233.81 L 345.48 239.81 M 339.48 239.81 L 345.48 233.81" stroke="#d32f2f"/>
<path d="M 343.81 233.74 L 349.81 239.74 M 343.81 239.74 L 349.81 233.74" stroke="#d32f2f"/>
<path d="M 348.13 233.18 L 354.13 239.18 M 348.13 239.18 L 354.13 233.18" stroke="#d32f2f"/>
<path d="M 352.46 233.73 L 358.46 239.73 M 352.46 239.73 L 358.46 233.73" stroke="#d32f2f"/>
<path d="M 356.79 233.97 L 362.79 239.97 M 356.79 239.97 L 362.79 233.97" stroke="#d32f2f"/>
<path d="M 361.11 234.08 L 367.11 240.08 M 361.11 240.08 L 367.11 234.08" stroke="#d32f2f"/>
<path d="M 365.44 235.20 L 371.44 241.20 M 365.44 241.20 L 371.44 235.20" stroke="#d32f2f"/>
<path d="M 369.76 236.92 L 375.76 242.92 M 369.76 242.92 L 375.76 236.92" stroke="#d32f2f"/>
<path d="M 374.09 239.17 L 380.09 245.17 M 374.09 245.17 L 380.09 239.17" stroke="#d32f2f"/>
<path d="M 378.41 244.45 L 384.41 250.45 M 378.41 250.45 L 384.41 244.45" stroke="#d32f2f"/>
<path d="M 382.74 251.05 L 388.74 257.05 M 382.74 257.05 L 388.74 251.05" stroke="#d32f2f"/>
<path d="M 387.06 264.06 L 393.06 270.06 M 387.06 270.06 L 393.06 264.06" stroke="#d32f2f"/>
<path d="M 391.39 282.01 L 397.39 288.01 M 391.39 288.01 L 397.39 282.01" stroke="#d32f2f"/>
<path d="M 395.71 305.93 L 401.71 311.93 M 395.71 311.93 L 401.71 305.93" stroke="#d32f2f"/>
<path d="M 400.04 329.32 L 406.04 335.32 M 400.04 335.32 L 406.04 329.32" stroke="#d32f2f"/>
<path d="M 404.36 305.63 L 410.36 311.63 M 404.36 311.63 L 410.36 305.63" stroke="#d32f2f"/>
<path d="M 408.69 292.82 L 414.69 298.82 M 408.69 298.82 L 414.69 292.82" stroke="#d32f2f"/>
<path d="M 413.01 292.65 L 419.01 298.65 M 413.01 298.65 L 419.01 292.65" stroke="#d32f2f"/>
<path d="M 417.34 292.51 L 423.34 298.51 M 417.34 298.51 L 423.34 292.51" stroke="#d32f2f"/>
<path d="M 421.66 293.06 L 427.66 299.06 M 421.66 299.06 L 427.66 293.06" stroke="#d32f2f"/>
<path d="M 425.99 292.33 L 431.99 298.33 M 425.99 298.33 L 431.99 292.33" stroke="#d32f2f"/>
<path d="M 430.31 292.66 L 436.31 298.66 M 430.31 298.66 L 436.31 292.66" stroke="#d32f2f"/>
<path d="M 434.64 293.42 L 440.64 299.42 M 434.64 299.42 L 440.64 293.42" stroke="#d32f2f"/>
<path d="M 438.96 292.70 L 444.96 298.70 M 438.96 298.70 L 444.96 292.70" stroke="#d32f2f"/>
<path d="M 443.29 293.92 L 449.29 299.92 M 443.29 299.92 L 449.29 293.92" stroke="#d32f2f"/>
<path d="M 447.61 294.08 L 453.61 300.08 M 447.61 300.08 L 453.61 294.08" stroke="#d32f2f"/>
<path d="M 451.94 295.01 L 457.94 301.01 M 451.94 301.01 L 457.94 295.01" stroke="#d32f2f"/>
<path d="M 456.26 297.61 L 462.26 303.61 M 456.26 303.61 L 462.26 297.61" stroke="#d32f2f"/>
<path d="M 460.59 299.79 L 466.59 305.79 M 460.59 305.79 L 466.59 299.79" stroke="#d32f2f"/>
<path d="M 464.91 303.74 L 470.91 309.74 M 464.91 309.74 L 470.91 303.74" stroke="#d32f2f"/>
<path d="M 469.24 310.44 L 475.24 316.44 M 469.24 316.44 L 475.24 310.44" stroke="#d32f2f"/>
<path d="M 473.56 317.65 L 479.56 323.65 M 473.56 323.65 L 479.56 317.65" stroke="#d32f2f"/>
<path d="M 477.89 329.50 L 483.89 335.50 M 477.89 335.50 L 483.89 329.50" stroke="#d32f2f"/>
<path d="M 482.21 343.96 L 488.21 349.96 M 482.21 349.96 L 488.21 343.96" stroke="#d32f2f"/>
<path d="M 486.54 355.46 L 492.54 361.46 M 486.54 361.46 L 492.54 355.46" stroke="#d32f2f"/>
<path d="M 490.87 339.25 L 496.87 345.25 M 490.87 345.25 L 496.87 339.25" stroke="#d32f2f"/>
<path d="M 495.19 328.23 L 501.19 334.23 M 495.19 334.23 L 501.19 328.23" stroke="#d32f2f"/>
<path d="M 499.52 325.92 L 505.52 331.92 M 499.52 331.92 L 505.52 325.92" stroke="#d32f2f"/>
<path d="M 503.84 325.40 L 509.84 331.40 M 503.84 331.40 L 509.84 325.40" stroke="#d32f2f"/>
<path d="M 508.17 325.42 L 514.17 331.42 M 508.17 331.42 L 514.17 325.42" stroke="#d32f2f"/>
<path d="M 512.49 325.23 L 518.49 331.23 M 512.49 331.23 L 518.49 325.23" stroke="#d32f2f"/>
<path d="M 516.82 325.31 L 522.82 331.31 M 516.82 331.31 L 522.82 325.31" stroke="#d32f2f"/>
<path d="M 521.14 325.26 L 527.14 331.26 M 521.14 331.26 L 527.14 325.26" stroke="#d32f2f"/>
<path d="M 525.47 325.29 L 531.47 331.29 M 525.47 331.29 L 531.47 325.29" stroke="#d32f2f"/>
<path d="M 529.79 325.64 L 535.79 331.64 M 529.79 331.64 L 535.79 325.64" stroke="#d32f2f"/>
<path d="M 534.12 325.15 L 540.12 331.15 M 534.12 331.15 L 540.12 325.15" stroke="#d32f2f"/>
<path d="M 538.44 325.44 L 544.44 331.44 M 538.44 331.44 L 544.44 325.44" stroke="#d32f2f"/>
<path d="M 542.77 325.39 L 548.77 331.39 M 542.77 331.39 L 548.77 325.39" stroke="#d32f2f"/>
<path d="M 547.09 325.40 L 553.09 331.40 M 547.09 331.40 L 553.09 325.40" stroke="#d32f2f"/>
<path d="M 551.42 325.36 L 557.42 331.36 M 551.42 331.36 L 557.42 325.36" stroke="#d32f2f"/>
<path d="M 555.74 325.87 L 561.74 331.87 M 555.74 331.87 L 561.74 325.87" stroke="#d32f2f"/>
<path d="M 560.07 325.70 L 566.07 331.70 M 560.07 331.70 L 566.07 325.70" stroke="#d32f2f"/>
<path d="M 564.39 326.44 L 570.39 332.44 M 564.39 332.44 L 570.39 326.44" stroke="#d32f2f"/>
<path d="M 568.72 326.58 L 574.72 332.58 M 568.72 332.58 L 574.72 326.58" stroke="#d32f2f"/>
<path d="M 573.04 327.01 L 579.04 333.01 M 573.04 333.01 L 579.04 327.01" stroke="#d32f2f"/>
<path d="M 577.37 327.79 L 583.37 333.79 M 577.37 333.79 L 583.37 327.79" stroke="#d32f2f"/>
<path d="M 581.69 329.44 L 587.69 335.44 M 581.69 335.44 L 587.69 329.44" stroke="#d32f2f"/>
<path d="M 586.02 331.44 L 592.02 337.44 M 586.02 337.44 L 592.02 331.44" stroke="#d32f2f"/>
<path d="M 590.34 333.83 L 596.34 339.83 M 590.34 339.83 L 596.34 333.83" stroke="#d32f2f"/>
<path d="M 594.67 337.24 L 600.67 343.24 M 594.67 343.24 L 600.67 337.24" stroke="#d32f2f"/>
<path d="M 598.99 342.46 L 604.99 348.46 M 598.99 348.46 L 604.99 342.46" stroke="#d32f2f"/>
<path d="M 603.32 348.02 L 609.32 354.02 M 603.32 354.02 L 609.32 348.02" stroke="#d32f2f"/>
<path d="M 607.64 355.61 L 613.64 361.61 M 607.64 361.61 L 613.64 355.61" stroke="#d32f2f"/>
<path d="M 611.97 366.01 L 617.97 372.01 M 611.97 372.01 L 617.97 366.01" stroke="#d32f2f"/>
<path d="M 616.29 375.10 L 622.29 381.10 M 616.29 381.10 L 622.29 375.10" stroke="#d32f2f"/>
<path d="M 620.62 377.52 L 626.62 383.52 M 620.62 383.52 L 626.62 377.52" stroke="#d32f2f"/>
<path d="M 624.94 372.69 L 630.94 378.69 M 624.94 378.69 L 630.94 372.69" stroke="#d32f2f"/>
<path d="M 629.27 373.16 L 635.27 379.16 M 629.27 379.16 L 635.27 373.16" stroke="#d32f2f"/>
<path d="M 633.60 371.34 L 639.60 377.34 M 633.60 377.34 L 639.60 371.34" stroke="#d32f2f"/>
<path d="M 637.92 366.62 L 643.92 372.62 M 637.92 372.62 L 643.92 366.62" stroke="#d32f2f"/>
<path d="M 642.25 362.07 L 648.25 368.07 M 642.25 368.07 L 648.25 362.07" stroke="#d32f2f"/>
<path d="M 646.57 359.78 L 652.57 365.78 M 646.57 365.78 L 652.57 359.78" stroke="#d32f2f"/>
<path d="M 650.90 359.71 L 656.90 365.71 M 650.90 365.71 L 656.90 359.71" stroke="#d32f2f"/>
<path d="M 655.22 359.62 L 661.22 365.62 M 655.22 365.62 L 661.22 359.62" stroke="#d32f2f"/>
<path d="M 659.55 359.75 L 665.55 365.75 M 659.55 365.75 L 665.55 359.75" stroke="#d32f2f"/>
<path d="M 663.87 359.87 L 669.87 365.87 M 663.87 365.87 L 669.87 359.87" stroke="#d32f2f"/>
<path d="M 668.20 359.61 L 674.20 365.61 M 668.20 365.61 L 674.20 359.61" stroke="#d32f2f"/>
<path d="M 672.52 359.87 L 678.52 365.87 M 672.52 365.87 L 678.52 359.87" stroke="#d32f2f"/>
<path d="M 676.85 359.85 L 682.85 365.85 M 676.85 365.85 L 682.85 359.85" stroke="#d32f2f"/>
<path d="M 681.17 360.13 L 687.17 366.13 M 681.17 366.13 L 687.17 360.13" stroke="#d32f2f"/>
<path d="M 685.50 360.15 L 691.50 366.15 M 685.50 366.15 L 691.50 360.15" stroke="#d32f2f"/>
<path d="M 689.82 360.46 L 695.82 366.46 M 689.82 366.46 L 695.82 360.46" stroke="#d32f2f"/>
<path d="M 694.15 360.70 L 700.15 366.70 M 694.15 366.70 L 700.15 360.70" stroke="#d32f2f"/>
<path d="M 698.47 361.03 L 704.47 367.03 M 698.47 367.03 L 704.47 361.03" stroke="#d32f2f"/>
<path d="M 702.80 361.98 L 708.80 367.98 M 702.80 367.98 L 708.80 361.98" stroke="#d32f2f"/>
<path d="M 707.12 362.28 L 713.12 368.28 M 707.12 368.28 L 713.12 362.28" stroke="#d32f2f"/>
<path d="M 711.45 363.63 L 717.45 369.63 M 711.45 369.63 L 717.45 363.63" stroke="#d32f2f"/>
<path d="M 715.77 364.65 L 721.77 370.65 M 715.77 370.65 L 721.77 364.65" stroke="#d32f2f"/>
<path d="M 720.10 365.96 L 726.10 371.96 M 720.10 371.96 L 726.10 365.96" stroke="#d32f2f"/>
<path d="M 724.42 368.49 L 730.42 374.49 M 724.42 374.49 L 730.42 368.49" stroke="#d32f2f"/>
<path d="M 728.75 371.20 L 734.75 377.20 M 728.75 377.20 L 734.75 371.20" stroke="#d32f2f"/>
<path d="M 733.07 374.11 L 739.07 380.11 M 733.07 380.11 L 739.07 374.11" stroke="#d32f2f"/>
<path d="M 737.40 378.80 L 743.40 384.80 M 737.40 384.80 L 743.40 378.80" stroke="#d32f2f"/>
<path d="M 741.72 384.17 L 747.72 390.17 M 741.72 390.17 L 747.72 384.17" stroke="#d32f2f"/>
<path d="M 746.05 389.94 L 752.05 395.94 M 746.05 395.94 L 752.05 389.94" stroke="#d32f2f"/>
<path d="M 750.37 397.88 L 756.37 403.88 M 750.37 403.88 L 756.37 397.88" stroke="#d32f2f"/>
<path d="M 754.70 405.37 L 760.70 411.37 M 754.70 411.37 L 760.70 405.37" stroke="#d32f2f"/>
<path d="M 759.02 406.17 L 765.02 412.17 M 759.02 412.17 L 765.02 406.17" stroke="#d32f2f"/>
<path d="M 763.35 401.19 L 769.35 407.19 M 763.35 407.19 L 769.35 401.19" stroke="#d32f2f"/>
<path d="M 767.67 401.77 L 773.67 407.77 M 767.67 407.77 L 773.67 401.77" stroke="#d32f2f"/>
<path d="M 772.00 400.34 L 778.00 406.34 M 772.00 406.34 L 778.00 400.34" stroke="#d32f2f"/>
<polyline points="95.95,39.91 100.28,33.35 104.60,33.35 108.93,33.45 113.25,33.18 117.58,33.43 121.90,33.31 126.23,33.41 130.55,33.55 134.88,33.44 139.20,33.20 143.53,33.28 147.85,33.45 152.18,33.39 156.50,33.41 160.83,33.48 165.15,33.29 169.48,33.40 173.80,33.41 178.13,33.48 182.45,33.47 186.78,33.34 191.10,33.55 195.43,33.24 199.75,33.38 204.08,33.28 208.40,33.38 212.73,33.31 217.06,33.46 221.38,33.31 225.71,33.34 230.03,33.41 234.36,33.88 238.68,34.86 243.01,39.45 247.33,49.18 251.66,70.61 255.98,76.28 260.31,81.59 264.63,90.50 268.96,111.31 273.28,115.98 277.61,118.22 281.93,124.08 286.26,136.04 290.58,170.26 294.91,196.12 299.23,196.13 303.56,196.22 307.88,196.19 312.21,196.21 316.53,196.17 320.86,196.15 325.18,196.13 329.51,196.19 333.83,196.14 338.16,196.14 342.48,196.11 346.81,196.31 351.13,196.39 355.46,196.48 359.79,196.74 364.11,197.28 368.44,198.77 372.76,201.30 377.09,205.53 381.41,212.86 385.74,227.48 390.06,263.24 394.39,277.69 398.71,277.62 403.04,277.70 407.36,277.69 411.69,277.61 416.01,277.74 420.34,277.67 424.66,277.74 428.99,277.74 433.31,277.80 437.64,278.07 441.96,278.32 446.29,278.85 450.61,280.00 454.94,281.61 459.26,284.29 463.59,287.56 467.91,294.10 472.24,306.47 476.56,318.76 480.89,318.71 485.21,318.64 489.54,318.72 493.87,318.71 498.19,318.69 502.52,318.72 506.84,318.73 511.17,318.74 515.49,318.69 519.82,318.71 524.14,318.69 528.47,318.64 532.79,318.70 537.12,318.73 541.44,318.76 545.77,318.80 550.09,318.80 554.42,319.02 558.74,319.08 563.07,319.37 567.39,319.74 571.72,320.38 576.04,321.12 580.37,321.81 584.69,323.79 589.02,326.04 593.34,328.82 597.67,333.02 601.99,338.85 606.32,348.27 610.64,359.35 614.97,359.33 619.29,359.31 623.62,359.35 627.94,359.28 632.27,359.35 636.60,359.34 640.92,359.32 645.25,359.29 649.57,359.36 653.90,359.38 658.22,359.31 662.55,359.38 666.87,359.41 671.20,359.41 675.52,359.45 679.85,359.54 684.17,359.59 688.50,359.80 692.82,359.95 697.15,360.18 701.47,360.66 705.80,361.33 710.12,361.99 714.45,363.00 718.77,364.59 723.10,366.18 727.42,368.65 731.75,372.12 736.07,376.06 740.40,380.90 744.72,386.69 749.05,396.33 753.37,400.39 757.70,400.34 762.02,400.37 766.35,400.34 770.67,400.36 775.00,400.36" fill="none" stroke="#2e7d32" stroke-width="2"/>
<rect x="93.45" y="37.41" width="5" height="5" fill="#2e7d32"/>
<rect x="97.78" y="30.85" width="5" height="5" fill="#2e7d32"/>
<rect x="102.10" y="30.85" width="5" height="5" fill="#2e7d32"/>
<rect x="106.43" y="30.95" width="5" height="5" fill="#2e7d32"/>
<rect x="110.75" y="30.68" width="5" height="5" fill="#2e7d32"/>
<rect x="115.08" y="30.93" width="5" height="5" fill="#2e7d32"/>
<rect x="119.40" y="30.81" width="5" height="5" fill="#2e7d32"/>
<rect x="123.73" y="30.91" width="5" height="5" fill="#2e7d32"/>
<rect x="128.05" y="31.05" width="5" height="5" fill="#2e7d32"/>
<rect x="132.38" y="30.94" width="5" height="5" fill="#2e7d32"/>
<rect x="136.70" y="30.70" width="5" height="5" fill="#2e7d32"/>
<rect x="141.03" y="30.78" width="5" height="5" fill="#2e7d32"/>
<rect x="145.35" y="30.95" width="5" height="5" fill="#2e7d32"/>
<rect x="149.68" y="30.89" width="5" height="5" fill="#2e7d32"/>
<rect x="154.00" y="30.91" width="5" height="5" fill="#2e7d32"/>
<rect x="158.33" y="30.98" width="5" height="5" fill="#2e7d32"/>
<rect x="162.65" y="30.79" width="5" height="5" fill="#2e7d32"/>
<rect x="166.98" y="30.90" width="5" height="5" fill="#2e7d32"/>
<rect x="171.30" y="30.91" width="5" height="5" fill="#2e7d32"/>
<rect x="175.63" y="30.98" width="5" height="5" fill="#2e7d32"/>
<rect x="179.95" y="30.97" width="5" height="5" fill="#2e7d32"/>
<rect x="184.28" y="30.84" width="5" height="5" fill="#2e7d32"/>
<rect x="188.60" y="31.05" width="5" height="5" fill="#2e7d32"/>
<rect x="192.93" y="30.74" width="5" height="5" fill="#2e7d32"/>
<rect x="197.25" y="30.88" width="5" height="5" fill="#2e7d32"/>
<rect x="201.58" y="30.78" width="5" height="5" fill="#2e7d32"/>
<rect x="205.90" y="30.88" width="5" height="5" fill="#2e7d32"/>
<rect x="210.23" y="30.81" width="5" height="5" fill="#2e7d32"/>
<rect x="214.56" y="30.96" width="5" height="5" fill="#2e7d32"/>
<rect x="218.88" y="30.81" width="5" height="5" fill="#2e7d32"/>
<rect x="223.21" y="30.84" width="5" height="5" fill="#2e7d32"/>
<rect x="227.53" y="30.91" width="5" height="5" fill="#2e7d32"/>
<rect x="231.86" y="31.38" width="5" height="5" fill="#2e7d32"/>
<rect x="236.18" y="32.36" width="5" height="5" fill="#2e7d32"/>
<rect x="240.51" y="36.95" width="5" height="5" fill="#2e7d32"/>
<rect x="244.83" y="46.68" width="5" height="5" fill="#2e7d32"/>
<rect x="249.16" y="68.11" width="5" height="5" fill="#2e7d32"/>
<rect x="253.48" y="73.78" width="5" height="5" fill="#2e7d32"/>
<rect x="257.81" y="79.09" width="5" height="5" fill="#2e7d32"/>
<rect x="262.13" y="88.00" width="5" height="5" fill="#2e7d32"/>
<rect x="266.46" y="108.81" width="5" height="5" fill="#2e7d32"/>
<rect x="270.78" y="113.48" width="5" height="5" fill="#2e7d32"/>
<rect x="275.11" y="115.72" width="5" height="5" fill="#2e7d32"/>
<rect x="279.43" y="121.58" width="5" height="5" fill="#2e7d32"/>
<rect x="283.76" y="133.54" width="5" height="5" fill="#2e7d32"/>
<rect x="288.08" y="167.76" width="5" height="5" fill="#2e7d32"/>
<rect x="292.41" y="193.62" width="5" height="5" fill="#2e7d32"/>
<rect x="296.73" y="193.63" width="5" height="5" fill="#2e7d32"/>
<rect x="301.06" y="193.72" width="5" height="5" fill="#2e7d32"/>
<rect x="305.38" y="193.69" width="5" height="5" fill="#2e7d32"/>
<rect x="309.71" y="193.71" width="5" height="5" fill="#2e7d32"/>
<rect x="314.03" y="193.67" width="5" height="5" fill="#2e7d32"/>
<rect x="318.36" y="193.65" width="5" height="5" fill="#2e7d32"/>
<rect x="322.68" y="193.63" width="5" height="5" fill="#2e7d32"/>
<rect x="327.01" y="193.69" width="5" height="5" fill="#2e7d32"/>
<rect x="331.33" y="193.64" width="5" height="5" fill="#2e7d32"/>
<rect x="335.66" y="193.64" width="5" height="5" fill="#2e7d32"/>
<rect x="339.98" y="193.61" width="5" height="5" fill="#2e7d32"/>
<rect x="344.31" y="193.81" width="5" height="5" fill="#2e7d32"/>
<rect x="348.63" y="193.89" width="5" height="5" fill="#2e7d32"/>
<rect x="352.96" y="193.98" width="5" height="5" fill="#2e7d32"/>
<rect x="357.29" y="194.24" width="5" height="5" fill="#2e7d32"/>
<rect x="361.61" y="194.78" width="5" height="5" fill="#2e7d32"/>
<rect x="365.94" y="196.27" width="5" height="5" fill="#2e7d32"/>
<rect x="370.26" y="198.80" width="5" height="5" fill="#2e7d32"/>
<rect x="374.59" y="203.03" width="5" height="5" fill="#2e7d32"/>
<rect x="378.91" y="210.36" width="5" height="5" fill="#2e7d32"/>
<rect x="383.24" y="224.98" width="5" height="5" fill="#2e7d32"/>
<rect x="387.56" y="260.74" width="5" height="5" fill="#2e7d32"/>
<rect x="391.89" y="275.19" width="5" height="5" fill="#2e7d32"/>
<rect x="396.21" y="275.12" width="5" height="5" fill="#2e7d32"/>
<rect x="400.54" y="275.20" width="5" height="5" fill="#2e7d32"/>
<rect x="404.86" y="275.19" width="5" height="5" fill="#2e7d32"/>
<rect x="409.19" y="275.11" width="5" height="5" fill="#2e7d32"/>
<rect x="413.51" y="275.24" width="5" height="5" fill="#2e7d32"/>
<rect x="417.84" y="275.17" width="5" height="5" fill="#2e7d32"/>
<rect x="422.16" y="275.24" width="5" height="5" fill="#2e7d32"/>
<rect x="426.49" y="275.24" width="5" height="5" fill="#2e7d32"/>
<rect x="430.81" y="275.30" width="5" height="5" fill="#2e7d32"/>
<rect x="435.14" y="275.57" width="5" height="5" fill="#2e7d32"/>
<rect x="439.46" y="275.82" width="5" height="5" fill="#2e7d32"/>
<rect x="443.79" y="276.35" width="5" height="5" fill="#2e7d32"/>
<rect x="448.11" y="277.50" width="5" height="5" fill="#2e7d32"/>
<rect x="452.44" y="279.11" width="5" height="5" fill="#2e7d32"/>
<rect x="456.76" y="281.79" width="5" height="5" fill="#2e7d32"/>
<rect x="461.09" y="285.06" width="5" height="5" fill="#2e7d32"/>
<rect x="465.41" y="291.60" width="5" height="5" fill="#2e7d32"/>
<rect x="469.74" y="303.97" width="5" height="5" fill="#2e7d32"/>
<rect x="474.06" y="316.26" width="5" height="5" fill="#2e7d32"/>
<rect x="478.39" y="316.21" width="5" height="5" fill="#2e7d32"/>
<rect x="482.71" y="316.14" width="5" height="5" fill="#2e7d32"/>
<rect x="487.04" y="316.22" width="5" height="5" fill="#2e7d32"/>
<rect x="491.37" y="316.21" width="5" height="5" fill="#2e7d32"/>
<rect x="495.69" y="316.19" width="5" height="5" fill="#2e7d32"/>
<rect x="500.02" y="316.22" width="5" height="5" fill="#2e7d32"/>
<rect x="504.34" y="316.23" width="5" height="5" fill="#2e7d32"/>
<rect x="508.67" y="316.24" width="5" height="5" fill="#2e7d32"/>
<rect x="512.99" y="316.19" width="5" height="5" fill="#2e7d32"/>
<rect x="517.32" y="316.21" width="5" height="5" fill="#2e7d32"/>
<rect x="521.64" y="316.19" width="5" height="5" fill="#2e7d32"/>
<rect x="525.97" y="316.14" width="5" height="5" fill="#2e7d32"/>
<rect x="530.29" y="316.20" width="5" height="5" fill="#2e7d32"/>
<rect x="534.62" y="316.23" width="5" height="5" fill="#2e7d32"/>
<rect x="538.94" y="316.26" width="5" height="5" fill="#2e7d32"/>
<rect x="543.27" y="316.30" width="5" height="5" fill="#2e7d32"/>
<rect x="547.59" y="316.30" width="5" height="5" fill="#2e7d32"/>
<rect x="551.92" y="316.52" width="5" height="5" fill="#2e7d32"/>
<rect x="556.24" y="316.58" width="5" height="5" fill="#2e7d32"/>
<rect x="560.57" y="316.87" width="5" height="5" fill="#2e7d32"/>
<rect x="564.89" y="317.24" width="5" height="5" fill="#2e7d32"/>
<rect x="569.22" y="317.88" width="5" height="5" fill="#2e7d32"/>
<rect x="573.54" y="318.62" width="5" height="5" fill="#2e7d32"/>
<rect x="577.87" y="319.31" width="5" height="5" fill="#2e7d32"/>
<rect x="582.19" y="321.29" width="5" height="5" fill="#2e7d32"/>
<rect x="586.52" y="323.54" width="5" height="5" fill="#2e7d32"/>
<rect x="590.84" y="326.32" width="5" height="5" fill="#2e7d32"/>
<rect x="595.17" y="330.52" width="5" height="5" fill="#2e7d32"/>
<rect x="599.49" y="336.35" width="5" height="5" fill="#2e7d32"/>
<rect x="603.82" y="345.77" width="5" height="5" fill="#2e7d32"/>
<rect x="608.14" y="356.85" width="5" height="5" fill="#2e7d32"/>
<rect x="612.47" y="356.83" width="5" height="5" fill="#2e7d32"/>
<rect x="616.79" y="356.81" width="5" height="5" fill="#2e7d32"/>
<rect x="621.12" y="356.85" width="5" height="5" fill="#2e7d32"/>
<rect x="625.44" y="356.78" width="5" height="5" fill="#2e7d32"/>
<rect x="629.77" y="356.85" width="5" height="5" fill="#2e7d32"/>
<rect x="634.10" y="356.84" width="5" height="5" fill="#2e7d32"/>
<rect x="638.42" y="356.82" width="5" height="5" fill="#2e7d32"/>
<rect x="642.75" y="356.79" width="5" height="5" fill="#2e7d32"/>
<rect x="647.07" y="356.86" width="5" height="5" fill="#2e7d32"/>
<rect x="651.40" y="356.88" width="5" height="5" fill="#2e7d32"/>
<rect x="655.72" y="356.81" width="5" height="5" fill="#2e7d32"/>
<rect x="660.05" y="356.88" width="5" height="5" fill="#2e7d32"/>
<rect x="664.37" y="356.91" width="5" height="5" fill="#2e7d32"/>
<rect x="668.70" y="356.91" width="5" height="5" fill="#2e7d32"/>
<rect x="673.02" y="356.95" width="5" height="5" fill="#2e7d32"/>
<rect x="677.35" y="357.04" width="5" height="5" fill="#2e7d32"/>
<rect x="681.67" y="357.09" width="5" height="5" fill="#2e7d32"/>
<rect x="686.00" y="357.30" width="5" height="5" fill="#2e7d32"/>
<rect x="690.32" y="357.45" width="5" height="5" fill="#2e7d32"/>
<rect x="694.65" y="357.68" width="5" height="5" fill="#2e7d32"/>
<rect x="698.97" y="358.16" width="5" height="5" fill="#2e7d32"/>
<rect x="703.30" y="358.83" width="5" height="5" fill="#2e7d32"/>
<rect x="707.62" y="359.49" width="5" height="5" fill="#2e7d32"/>
<rect x="711.95" y="360.50" width="5" height="5" fill="#2e7d32"/>
<rect x="716.27" y="362.09" width="5" height="5" fill="#2e7d32"/>
<rect x="720.60" y="363.68" width="5" height="5" fill="#2e7d32"/>
<rect x="724.92" y="366.15" width="5" height="5" fill="#2e7d32"/>
<rect x="729.25" y="369.62" width="5" height="5" fill="#2e7d32"/>
<rect x="733.57" y="373.56" width="5" height="5" fill="#2e7d32"/>
<rect x="737.90" y="378.40" width="5" height="5" fill="#2e7d32"/>
<rect x="742.22" y="384.19" width="5" height="5" fill="#2e7d32"/>
<rect x="746.55" y="393.83" width="5" height="5" fill="#2e7d32"/>
<rect x="750.87" y="397.89" width="5" height="5" fill="#2e7d32"/>
<rect x="755.20" y="397.84" width="5" height="5" fill="#2e7d32"/>
<rect x="759.52" y="397.87" width="5" height="5" fill="#2e7d32"/>
<rect x="763.85" y="397.84" width="5" height="5" fill="#2e7d32"/>
<rect x="768.17" y="397.86" width="5" height="5" fill="#2e7d32"/>
<rect x="772.50" y="397.86" width="5" height="5" fill="#2e7d32"/>
<text x="400.0" y="20" text-anchor="middle" font-size="18" font-weight="bold">Scenario 1: A-MPDU Enabled, 20-Run Mean</text>
<text x="400.0" y="492" text-anchor="middle" font-size="14">Distance (m)</text>
<text x="18" y="250.0" text-anchor="middle" font-size="14" transform="rotate(-90 18 250.0)">Throughput (Mbps)</text>
<line x1="520" y1="48" x2="550" y2="48" stroke="#1565c0" stroke-width="2"/>
<text x="558" y="52" font-size="13"> Ideal：29.11 Mbps</text>
<line x1="520" y1="68" x2="550" y2="68" stroke="#d32f2f" stroke-width="2"/>
<text x="558" y="72" font-size="13">Minstrel-HT：28.59 Mbps</text>
<line x1="520" y1="88" x2="550" y2="88" stroke="#2e7d32" stroke-width="2"/>
<text x="558" y="92" font-size="13"> Reinforce：30.39 Mbps</text>
</svg>