<svg xmlns="http://www.w3.org/2000/svg" width="960" height="700">
<rect width="100%" height="100%" fill="white"/>
<text x="480.0" y="24" text-anchor="middle" font-size="18" font-weight="bold">Window-20 Episodic Training Statistics</text>
<line x1="75" y1="45" x2="75" y2="317.5" stroke="black"/>
<line x1="75" y1="317.5" x2="930" y2="317.5" stroke="black"/>
<line x1="75" y1="372.5" x2="75" y2="645.0" stroke="black"/>
<line x1="75" y1="645.0" x2="930" y2="645.0" stroke="black"/>
<line x1="75.00" y1="45" x2="75.00" y2="317.5" stroke="#e5e5e5"/>
<line x1="75.00" y1="372.5" x2="75.00" y2="645.0" stroke="#e5e5e5"/>
<text x="75.00" y="672" text-anchor="middle" font-size="11">0</text>
<line x1="132.00" y1="45" x2="132.00" y2="317.5" stroke="#e5e5e5"/>
<line x1="132.00" y1="372.5" x2="132.00" y2="645.0" stroke="#e5e5e5"/>
<text x="132.00" y="672" text-anchor="middle" font-size="11">50</text>
<line x1="189.00" y1="45" x2="189.00" y2="317.5" stroke="#e5e5e5"/>
<line x1="189.00" y1="372.5" x2="189.00" y2="645.0" stroke="#e5e5e5"/>
<text x="189.00" y="672" text-anchor="middle" font-size="11">100</text>
<line x1="246.00" y1="45" x2="246.00" y2="317.5" stroke="#e5e5e5"/>
<line x1="246.00" y1="372.5" x2="246.00" y2="645.0" stroke="#e5e5e5"/>
<text x="246.00" y="672" text-anchor="middle" font-size="11">150</text>
<line x1="303.00" y1="45" x2="303.00" y2="317.5" stroke="#e5e5e5"/>
<line x1="303.00" y1="372.5" x2="303.00" y2="645.0" stroke="#e5e5e5"/>
<text x="303.00" y="672" text-anchor="middle" font-size="11">200</text>
<line x1="360.00" y1="45" x2="360.00" y2="317.5" stroke="#e5e5e5"/>
<line x1="360.00" y1="372.5" x2="360.00" y2="645.0" stroke="#e5e5e5"/>
<text x="360.00" y="672" text-anchor="middle" font-size="11">250</text>
<line x1="417.00" y1="45" x2="417.00" y2="317.5" stroke="#e5e5e5"/>
<line x1="417.00" y1="372.5" x2="417.00" y2="645.0" stroke="#e5e5e5"/>
<text x="417.00" y="672" text-anchor="middle" font-size="11">300</text>
<line x1="474.00" y1="45" x2="474.00" y2="317.5" stroke="#e5e5e5"/>
<line x1="474.00" y1="372.5" x2="474.00" y2="645.0" stroke="#e5e5e5"/>
<text x="474.00" y="672" text-anchor="middle" font-size="11">350</text>
<line x1="531.00" y1="45" x2="531.00" y2="317.5" stroke="#e5e5e5"/>
<line x1="531.00" y1="372.5" x2="531.00" y2="645.0" stroke="#e5e5e5"/>
<text x="531.00" y="672" text-anchor="middle" font-size="11">400</text>
<line x1="588.00" y1="45" x2="588.00" y2="317.5" stroke="#e5e5e5"/>
<line x1="588.00" y1="372.5" x2="588.00" y2="645.0" stroke="#e5e5e5"/>
<text x="588.00" y="672" text-anchor="middle" font-size="11">450</text>
<line x1="645.00" y1="45" x2="645.00" y2="317.5" stroke="#e5e5e5"/>
<line x1="645.00" y1="372.5" x2="645.00" y2="645.0" stroke="#e5e5e5"/>
<text x="645.00" y="672" text-anchor="middle" font-size="11">500</text>
<line x1="702.00" y1="45" x2="702.00" y2="317.5" stroke="#e5e5e5"/>
<line x1="702.00" y1="372.5" x2="702.00" y2="645.0" stroke="#e5e5e5"/>
<text x="702.00" y="672" text-anchor="middle" font-size="11">550</text>
<line x1="759.00" y1="45" x2="759.00" y2="317.5" stroke="#e5e5e5"/>
<line x1="759.00" y1="372.5" x2="759.00" y2="645.0" stroke="#e5e5e5"/>
<text x="759.00" y="672" text-anchor="middle" font-size="11">600</text>
<line x1="816.00" y1="45" x2="816.00" y2="317.5" stroke="#e5e5e5"/>
<line x1="816.00" y1="372.5" x2="816.00" y2="645.0" stroke="#e5e5e5"/>
<text x="816.00" y="672" text-anchor="middle" font-size="11">650</text>
<line x1="873.00" y1="45" x2="873.00" y2="317.5" stroke="#e5e5e5"/>
<line x1="873.00" y1="372.5" x2="873.00" y2="645.0" stroke="#e5e5e5"/>
<text x="873.00" y="672" text-anchor="middle" font-size="11">700</text>
<line x1="930.00" y1="45" x2="930.00" y2="317.5" stroke="#e5e5e5"/>
<line x1="930.00" y1="372.5" x2="930.00" y2="645.0" stroke="#e5e5e5"/>
<text x="930.00" y="672" text-anchor="middle" font-size="11">750</text>
<polyline points="76.14,259.73 77.28,258.33 78.42,258.51 79.56,258.43 80.70,257.75 81.84,258.03 82.98,258.62 84.12,257.68 85.26,257.43 86.40,258.68 87.54,258.38 88.68,257.74 89.82,258.49 90.96,257.80 92.10,257.80 93.24,256.94 94.38,257.32 95.52,257.48 96.66,257.30 97.80,257.62 98.94,256.76 100.08,257.36 101.22,256.65 102.36,256.43 103.50,256.75 104.64,255.97 105.78,256.55 106.92,257.11 108.06,256.20 109.20,255.53 110.34,255.59 111.48,255.97 112.62,255.65 113.76,254.57 114.90,255.38 116.04,255.54 117.18,254.61 118.32,254.80 119.46,254.82 120.60,254.91 121.74,254.21 122.88,254.54 124.02,253.84 125.16,253.34 126.30,253.93 127.44,253.56 128.58,253.45 129.72,252.99 130.86,252.75 132.00,252.76 133.14,252.19 134.28,251.92 135.42,252.30 136.56,251.70 137.70,251.32 138.84,251.60 139.98,250.38 141.12,250.75 142.26,250.53 143.40,250.53 144.54,249.71 145.68,249.79 146.82,249.98 147.96,249.37 149.10,250.06 150.24,249.25 151.38,249.27 152.52,249.46 153.66,249.06 154.80,249.02 155.94,248.91 157.08,248.68 158.22,249.20 159.36,248.45 160.50,248.64 161.64,248.32 162.78,249.40 163.92,248.44 165.06,248.80 166.20,247.98 167.34,247.95 168.48,247.50 169.62,247.48 170.76,248.12 171.90,247.55 173.04,247.25 174.18,246.41 175.32,246.44 176.46,246.51 177.60,246.21 178.74,245.96 179.88,245.72 181.02,245.86 182.16,244.76 183.30,244.79 184.44,245.17 185.58,244.30 186.72,244.27 187.86,244.20 189.00,243.57 190.14,243.35 191.28,243.26 192.42,242.75 193.56,242.97 194.70,241.84 195.84,242.16 196.98,241.37 198.12,241.54 199.26,240.82 200.40,240.67 201.54,241.02 202.68,240.73 203.82,239.76 204.96,239.34 206.10,240.49 207.24,239.30 208.38,239.03 209.52,238.12 210.66,237.53 211.80,237.39 212.94,237.10 214.08,237.30 215.22,236.66 216.36,236.64 217.50,235.28 218.64,234.93 219.78,235.02 220.92,234.93 222.06,234.79 223.20,233.91 224.34,233.93 225.48,233.60 226.62,233.07 227.76,232.23 228.90,232.44 230.04,232.44 231.18,231.68 232.32,231.07 233.46,230.49 234.60,230.58 235.74,230.27 236.88,229.20 238.02,229.32 239.16,228.83 240.30,228.01 241.44,228.24 242.58,227.45 243.72,227.34 244.86,226.64 246.00,226.85 247.14,225.39 248.28,225.48 249.42,225.61 250.56,225.42 251.70,224.42 252.84,224.66 253.98,223.82 255.12,224.09 256.26,223.81 257.40,222.83 258.54,223.50 259.68,222.73 260.82,222.10 261.96,221.84 263.10,221.96 264.24,221.05 265.38,220.71 266.52,220.22 267.66,220.07 268.80,219.96 269.94,219.64 271.08,219.02 272.22,219.33 273.36,219.33 274.50,218.50 275.64,218.15 276.78,217.79 277.92,217.20 279.06,217.13 280.20,216.65 281.34,215.65 282.48,216.69 283.62,216.10 284.76,216.22 285.90,216.30 287.04,215.55 288.18,214.65 289.32,214.93 290.46,215.08 291.60,214.11 292.74,214.21 293.88,214.52 295.02,214.32 296.16,214.45 297.30,213.59 298.44,213.48 299.58,213.07 300.72,213.48 301.86,213.44 303.00,213.12 304.14,212.53 305.28,212.42 306.42,212.94 307.56,211.77 308.70,212.37 309.84,211.89 310.98,211.22 312.12,211.97 313.26,212.06 314.40,212.04 315.54,211.14 316.68,210.56 317.82,211.16 318.96,210.84 320.10,211.61 321.24,210.79 322.38,210.64 323.52,210.51 324.66,210.37 325.80,209.55 326.94,210.64 328.08,210.33 329.22,210.16 330.36,210.37 331.50,209.54 332.64,210.02 333.78,209.96 334.92,209.63 336.06,209.97 337.20,210.02 338.34,209.38 339.48,209.38 340.62,210.22 341.76,209.25 342.90,209.91 344.04,209.52 345.18,209.35 346.32,209.44 347.46,209.33 348.60,209.15 349.74,209.18 350.88,209.00 352.02,208.37 353.16,208.49 354.30,209.39 355.44,209.26 356.58,208.56 357.72,209.05 358.86,208.20 360.00,208.92 361.14,208.55 362.28,208.21 363.42,208.10 364.56,208.55 365.70,208.12 366.84,207.77 367.98,208.97 369.12,208.84 370.26,208.36 371.40,208.20 372.54,208.15 373.68,208.91 374.82,208.10 375.96,208.64 377.10,208.69 378.24,207.86 379.38,208.33 380.52,208.25 381.66,208.06 382.80,207.74 383.94,208.32 385.08,208.27 386.22,208.00 387.36,207.35 388.50,208.13 389.64,208.38 390.78,208.79 391.92,207.41 393.06,209.10 394.20,207.92 395.34,208.43 396.48,208.61 397.62,207.92 398.76,208.17 399.90,208.12 401.04,208.27 402.18,207.30 403.32,208.31 404.46,208.07 405.60,207.88 406.74,208.38 407.88,208.42 409.02,207.76 410.16,208.07 411.30,208.06 412.44,208.18 413.58,208.14 414.72,207.67 415.86,207.79 417.00,208.14 418.14,207.21 419.28,208.56 420.42,208.50 421.56,209.03 422.70,208.14 423.84,207.57 424.98,208.27 426.12,207.65 427.26,207.55 428.40,208.81 429.54,207.88 430.68,207.74 431.82,207.77 432.96,207.94 434.10,207.93 435.24,208.04 436.38,208.01 437.52,207.64 438.66,208.20 439.80,207.95 440.94,208.15 442.08,208.56 443.22,207.90 444.36,208.34 445.50,206.97 446.64,207.95 447.78,207.16 448.92,207.26 450.06,208.42 451.20,207.44 452.34,207.77 453.48,207.67 454.62,207.14 455.76,207.30 456.90,207.17 458.04,207.32 459.18,207.74 460.32,207.83 461.46,207.26 462.60,207.13 463.74,207.99 464.88,208.49 466.02,207.41 467.16,207.62 468.30,207.07 469.44,207.28 470.58,207.83 471.72,207.23 472.86,207.93 474.00,208.31 475.14,207.56 476.28,207.79 477.42,207.21 478.56,207.64 479.70,208.35 480.84,207.93 481.98,206.99 483.12,207.49 484.26,207.51 485.40,208.14 486.54,207.67 487.68,207.68 488.82,207.19 489.96,208.12 491.10,207.47 492.24,207.45 493.38,208.11 494.52,207.99 495.66,207.18 496.80,207.23 497.94,207.60 499.08,207.10 500.22,207.95 501.36,207.16 502.50,207.63 503.64,207.42 504.78,206.96 505.92,207.21 507.06,206.48 508.20,207.96 509.34,206.82 510.48,207.51 511.62,207.64 512.76,207.48 513.90,207.30 515.04,207.30 516.18,207.22 517.32,207.97 518.46,206.63 519.60,207.40 520.74,207.19 521.88,207.51 523.02,207.28 524.16,208.16 525.30,207.31 526.44,207.28 527.58,207.48 528.72,206.64 529.86,207.26 531.00,207.63 532.14,207.09 533.28,206.96 534.42,207.76 535.56,207.15 536.70,207.01 537.84,207.29 538.98,207.08 540.12,206.14 541.26,207.26 542.40,206.70 543.54,206.92 544.68,207.19 545.82,206.89 546.96,207.38 548.10,207.36 549.24,206.61 550.38,206.65 551.52,206.59 552.66,206.51 553.80,206.01 554.94,205.62 556.08,207.05 557.22,207.14 558.36,205.71 559.50,207.40 560.64,206.35 561.78,205.99 562.92,206.50 564.06,206.90 565.20,205.55 566.34,206.80 567.48,207.60 568.62,206.17 569.76,206.54 570.90,205.74 572.04,206.62 573.18,206.43 574.32,207.03 575.46,206.44 576.60,205.98 577.74,206.99 578.88,206.47 580.02,206.89 581.16,206.57 582.30,206.23 583.44,206.63 584.58,206.32 585.72,206.41 586.86,205.83 588.00,206.48 589.14,206.42 590.28,206.68 591.42,205.95 592.56,206.64 593.70,206.20 594.84,205.86 595.98,206.01 597.12,205.99 598.26,206.23 599.40,205.67 600.54,207.24 601.68,205.23 602.82,207.11 603.96,205.59 605.10,206.17 606.24,205.70 607.38,206.39 608.52,206.24 609.66,205.09 610.80,206.41 611.94,205.55 613.08,204.96 614.22,206.44 615.36,205.64 616.50,206.26 617.64,206.40 618.78,205.66 619.92,205.21 621.06,206.31 622.20,206.52 623.34,206.02 624.48,206.05 625.62,205.78 626.76,205.89 627.90,206.10 629.04,206.03 630.18,205.20 631.32,205.87 632.46,205.51 633.60,206.41 634.74,205.02 635.88,206.04 637.02,205.22 638.16,205.82 639.30,205.83 640.44,206.22 641.58,205.64 642.72,205.27 643.86,205.62 645.00,205.57 646.14,206.11 647.28,205.67 648.42,206.06 649.56,205.16 650.70,205.97 651.84,204.67 652.98,206.01 654.12,205.24 655.26,205.62 656.40,206.12 657.54,205.95 658.68,205.45 659.82,205.95 660.96,205.69 662.10,205.16 663.24,205.56 664.38,205.63 665.52,205.81 666.66,204.83 667.80,205.61 668.94,206.40 670.08,205.52 671.22,206.01 672.36,205.89 673.50,205.61 674.64,205.37 675.78,205.15 676.92,206.28 678.06,204.99 679.20,205.38 680.34,205.93 681.48,205.72 682.62,205.98 683.76,206.22 684.90,206.03 686.04,205.99 687.18,205.23 688.32,205.36 689.46,205.92 690.60,205.25 691.74,205.33 692.88,205.80 694.02,205.31 695.16,205.95 696.30,205.69 697.44,205.49 698.58,205.62 699.72,205.33 700.86,205.57 702.00,205.70 703.14,206.02 704.28,205.07 705.42,205.16 706.56,205.77 707.70,205.82 708.84,205.67 709.98,205.37 711.12,205.99 712.26,205.52 713.40,205.63 714.54,205.97 715.68,205.53 716.82,205.77 717.96,205.66 719.10,205.12 720.24,205.75 721.38,205.34 722.52,205.01 723.66,204.89 724.80,205.57 725.94,204.29 727.08,205.01 728.22,205.18 729.36,205.52 730.50,205.76 731.64,205.75 732.78,205.59 733.92,204.75 735.06,205.01 736.20,205.68 737.34,205.15 738.48,205.60 739.62,205.46 740.76,206.03 741.90,204.96 743.04,205.80 744.18,205.33 745.32,206.10 746.46,204.41 747.60,206.16 748.74,206.35 749.88,205.39 751.02,205.61 752.16,205.25 753.30,205.31 754.44,205.70 755.58,205.07 756.72,205.90 757.86,205.53 759.00,205.66 760.14,205.93 761.28,205.06 762.42,205.46 763.56,205.07 764.70,205.37 765.84,206.28 766.98,205.04 768.12,205.45 769.26,205.58 770.40,205.28 771.54,205.25 772.68,205.48 773.82,205.41 774.96,205.44 776.10,204.67 777.24,204.60 778.38,205.13 779.52,205.31 780.66,205.40 781.80,205.43 782.94,205.42 784.08,205.32 785.22,205.04 786.36,205.79 787.50,204.72 788.64,205.59 789.78,206.00 790.92,205.58 792.06,205.33 793.20,206.89 794.34,205.09 795.48,204.88 796.62,205.72 797.76,205.22 798.90,205.49 800.04,204.97 801.18,205.56 802.32,205.37 803.46,206.16 804.60,205.30 805.74,204.96 806.88,205.69 808.02,204.74 809.16,204.96 810.30,204.75 811.44,205.47 812.58,204.88 813.72,205.10 814.86,204.85 816.00,205.47 817.14,204.61 818.28,205.16 819.42,205.26 820.56,205.65 821.70,204.54 822.84,204.84 823.98,204.83 825.12,205.09 826.26,204.61 827.40,205.49 828.54,205.59 829.68,205.07 830.82,204.62 831.96,205.22 833.10,205.14 834.24,204.71 835.38,205.29 836.52,204.87 837.66,205.43 838.80,205.99 839.94,204.82 841.08,205.65 842.22,205.28 843.36,205.02 844.50,204.61 845.64,205.47 846.78,205.03 847.92,205.73 849.06,205.48 850.20,205.14 851.34,205.52 852.48,205.24 853.62,204.95 854.76,205.56 855.90,205.46 857.04,204.68 858.18,204.86 859.32,205.69 860.46,205.48 861.60,204.81 862.74,206.05 863.88,205.42 865.02,205.21 866.16,205.50 867.30,204.89 868.44,205.77 869.58,205.00 870.72,204.60 871.86,205.84 873.00,205.53 874.14,205.26 875.28,204.97 876.42,205.30 877.56,205.99 878.70,205.59 879.84,205.23 880.98,205.16 882.12,204.95 883.26,204.94 884.40,204.91 885.54,204.45 886.68,205.26 887.82,205.10 888.96,204.59 890.10,205.41 891.24,206.05 892.38,206.76 893.52,205.30 894.66,204.84 895.80,205.22 896.94,204.88 898.08,204.81 899.22,205.80 900.36,204.82 901.50,205.17 902.64,205.05 903.78,205.66 904.92,205.43 906.06,205.37 907.20,205.33 908.34,204.75 909.48,205.58 910.62,205.68 911.76,205.20 912.90,205.17 914.04,204.49 915.18,204.85 916.32,205.44 917.46,205.32 918.60,205.19 919.74,205.53 920.88,205.41 922.02,205.31 923.16,205.65 924.30,205.17 925.44,205.12 926.58,205.61 927.72,206.10 928.86,205.12 930.00,205.17" fill="none" stroke="#1565c0" stroke-width="1.5"/>
<polyline points="76.14,634.20 77.28,633.72 78.42,633.91 79.56,634.46 80.70,632.68 81.84,622.89 82.98,634.02 84.12,633.99 85.26,633.88 86.40,633.51 87.54,634.23 88.68,633.54 89.82,634.00 90.96,480.20 92.10,631.26 93.24,633.74 94.38,633.62 95.52,633.44 96.66,633.70 97.80,633.70 98.94,631.68 100.08,633.72 101.22,633.49 102.36,633.93 103.50,633.54 104.64,633.34 105.78,633.55 106.92,633.00 108.06,633.05 109.20,633.12 110.34,633.24 111.48,632.51 112.62,633.34 113.76,632.78 114.90,631.22 116.04,632.90 117.18,632.54 118.32,632.05 119.46,617.17 120.60,632.77 121.74,632.58 122.88,630.33 124.02,632.22 125.16,632.02 126.30,632.25 127.44,632.33 128.58,631.88 129.72,631.92 130.86,631.40 132.00,631.53 133.14,631.44 134.28,631.69 135.42,630.39 136.56,630.69 137.70,631.08 138.84,631.04 139.98,631.10 141.12,630.99 142.26,630.61 143.40,630.46 144.54,630.38 145.68,630.40 146.82,630.50 147.96,630.14 149.10,630.33 150.24,630.20 151.38,630.24 152.52,630.42 153.66,629.50 154.80,630.00 155.94,629.63 157.08,630.14 158.22,629.51 159.36,629.36 160.50,629.68 161.64,629.88 162.78,629.32 163.92,629.56 165.06,629.62 166.20,630.13 167.34,629.86 168.48,629.88 169.62,629.01 170.76,629.28 171.90,628.56 173.04,628.58 174.18,628.95 175.32,629.15 176.46,628.88 177.60,628.39 178.74,629.20 179.88,628.97 181.02,628.40 182.16,628.55 183.30,628.34 184.44,628.52 185.58,628.57 186.72,628.75 187.86,628.89 189.00,628.41 190.14,611.93 191.28,627.85 192.42,628.67 193.56,628.17 194.70,628.02 195.84,614.78 196.98,627.84 198.12,627.41 199.26,627.52 200.40,619.97 201.54,626.22 202.68,626.93 203.82,627.22 204.96,627.44 206.10,622.49 207.24,628.00 208.38,627.66 209.52,626.50 210.66,616.26 211.80,627.16 212.94,627.26 214.08,627.18 215.22,626.88 216.36,626.82 217.50,626.67 218.64,626.93 219.78,626.49 220.92,626.79 222.06,626.92 223.20,626.80 224.34,626.11 225.48,626.73 226.62,626.16 227.76,604.73 228.90,626.06 230.04,626.62 231.18,625.58 232.32,626.48 233.46,625.65 234.60,625.77 235.74,626.35 236.88,613.54 238.02,625.69 239.16,625.98 240.30,625.57 241.44,624.07 242.58,622.44 243.72,625.73 244.86,617.10 246.00,625.59 247.14,624.61 248.28,593.64 249.42,625.15 250.56,625.44 251.70,621.09 252.84,624.19 253.98,623.12 255.12,625.13 256.26,623.36 257.40,623.25 258.54,624.79 259.68,624.78 260.82,623.40 261.96,624.94 263.10,621.37 264.24,623.58 265.38,622.03 266.52,623.18 267.66,624.67 268.80,624.56 269.94,623.83 271.08,624.18 272.22,624.53 273.36,591.18 274.50,621.05 275.64,620.25 276.78,621.46 277.92,621.92 279.06,572.10 280.20,623.24 281.34,616.27 282.48,622.49 283.62,624.03 284.76,621.70 285.90,622.67 287.04,620.92 288.18,622.73 289.32,620.77 290.46,623.62 291.60,612.82 292.74,622.63 293.88,597.84 295.02,618.64 296.16,618.34 297.30,611.94 298.44,621.22 299.58,617.57 300.72,623.23 301.86,623.10 303.00,615.24 304.14,613.83 305.28,618.50 306.42,449.42 307.56,618.79 308.70,620.33 309.84,616.15 310.98,615.49 312.12,621.59 313.26,620.40 314.40,619.62 315.54,617.71 316.68,612.28 317.82,622.61 318.96,602.46 320.10,622.62 321.24,615.04 322.38,621.41 323.52,622.65 324.66,605.39 325.80,620.10 326.94,618.87 328.08,622.37 329.22,621.47 330.36,622.28 331.50,622.43 332.64,611.20 333.78,606.84 334.92,618.57 336.06,621.78 337.20,621.70 338.34,622.20 339.48,621.36 340.62,621.45 341.76,614.70 342.90,622.34 344.04,619.54 345.18,611.73 346.32,607.78 347.46,616.45 348.60,603.30 349.74,621.77 350.88,620.86 352.02,622.33 353.16,622.48 354.30,601.18 355.44,622.00 356.58,621.49 357.72,620.82 358.86,619.60 360.00,611.86 361.14,622.18 362.28,599.57 363.42,621.09 364.56,613.00 365.70,616.69 366.84,616.87 367.98,622.58 369.12,602.90 370.26,589.26 371.40,619.80 372.54,601.84 373.68,615.10 374.82,622.34 375.96,613.38 377.10,620.56 378.24,590.64 379.38,618.65 380.52,622.19 381.66,621.07 382.80,622.16 383.94,619.75 385.08,621.94 386.22,618.61 387.36,620.80 388.50,609.75 389.64,621.81 390.78,619.98 391.92,622.06 393.06,525.69 394.20,619.51 395.34,622.14 396.48,620.38 397.62,618.80 398.76,622.11 399.90,595.19 401.04,618.96 402.18,614.80 403.32,621.25 404.46,621.93 405.60,615.16 406.74,594.14 407.88,619.68 409.02,622.13 410.16,619.11 411.30,621.61 412.44,588.22 413.58,619.62 414.72,622.03 415.86,622.14 417.00,619.44 418.14,622.18 419.28,618.48 420.42,611.32 421.56,617.38 422.70,621.51 423.84,535.96 424.98,618.12 426.12,620.86 427.26,597.85 428.40,609.26 429.54,612.11 430.68,622.10 431.82,618.85 432.96,621.48 434.10,585.67 435.24,621.72 436.38,585.86 437.52,618.56 438.66,610.83 439.80,612.25 440.94,619.58 442.08,619.12 443.22,598.28 444.36,621.07 445.50,621.93 446.64,621.75 447.78,617.63 448.92,612.41 450.06,619.47 451.20,622.09 452.34,622.06 453.48,621.85 454.62,621.69 455.76,604.10 456.90,620.53 458.04,609.91 459.18,619.77 460.32,617.03 461.46,615.89 462.60,621.99 463.74,622.14 464.88,617.23 466.02,620.36 467.16,601.55 468.30,615.96 469.44,621.50 470.58,582.77 471.72,620.08 472.86,553.94 474.00,621.79 475.14,611.73 476.28,622.07 477.42,620.54 478.56,606.18 479.70,621.68 480.84,621.04 481.98,598.87 483.12,614.66 484.26,618.27 485.40,622.24 486.54,621.36 487.68,621.99 488.82,620.10 489.96,621.70 491.10,620.82 492.24,621.74 493.38,622.07 494.52,622.02 495.66,620.20 496.80,621.93 497.94,621.78 499.08,597.88 500.22,621.83 501.36,616.66 502.50,622.09 503.64,622.01 504.78,603.15 505.92,616.12 507.06,621.68 508.20,621.77 509.34,607.84 510.48,621.13 511.62,621.97 512.76,579.74 513.90,615.72 515.04,618.71 516.18,596.29 517.32,620.33 518.46,607.82 519.60,619.96 520.74,523.87 521.88,577.70 523.02,621.87 524.16,621.89 525.30,620.60 526.44,622.02 527.58,621.42 528.72,621.68 529.86,611.33 531.00,621.81 532.14,620.11 533.28,621.66 534.42,621.41 535.56,621.91 536.70,619.31 537.84,619.82 538.98,614.55 540.12,621.49 541.26,611.25 542.40,592.14 543.54,621.88 544.68,621.72 545.82,621.87 546.96,618.62 548.10,621.77 549.24,620.06 550.38,621.33 551.52,583.25 552.66,620.47 553.80,621.38 554.94,621.66 556.08,600.29 557.22,621.77 558.36,619.60 559.50,620.95 560.64,621.53 561.78,621.49 562.92,621.28 564.06,523.85 565.20,620.83 566.34,620.77 567.48,618.76 568.62,614.17 569.76,604.31 570.90,615.86 572.04,614.19 573.18,605.70 574.32,621.73 575.46,621.59 576.60,614.93 577.74,612.12 578.88,613.61 580.02,619.78 581.16,597.94 582.30,621.39 583.44,621.30 584.58,618.31 585.72,621.35 586.86,620.91 588.00,614.53 589.14,621.33 590.28,612.59 591.42,612.32 592.56,621.80 593.70,620.39 594.84,621.41 595.98,609.37 597.12,621.23 598.26,620.87 599.40,621.68 600.54,614.02 601.68,621.53 602.82,621.46 603.96,613.13 605.10,621.49 606.24,619.27 607.38,614.66 608.52,621.27 609.66,605.69 610.80,614.33 611.94,621.24 613.08,620.95 614.22,620.07 615.36,591.44 616.50,613.52 617.64,621.36 618.78,621.28 619.92,621.10 621.06,476.21 622.20,621.43 623.34,621.40 624.48,621.53 625.62,598.02 626.76,618.35 627.90,618.96 629.04,621.50 630.18,612.16 631.32,620.21 632.46,608.44 633.60,617.25 634.74,621.11 635.88,621.41 637.02,619.80 638.16,621.71 639.30,596.59 640.44,600.04 641.58,621.22 642.72,531.63 643.86,616.56 645.00,621.06 646.14,621.37 647.28,621.32 648.42,620.93 649.56,621.06 650.70,619.46 651.84,614.48 652.98,621.13 654.12,604.40 655.26,620.91 656.40,593.53 657.54,621.03 658.68,609.79 659.82,621.24 660.96,618.58 662.10,618.64 663.24,621.20 664.38,617.79 665.52,621.03 666.66,620.67 667.80,611.05 668.94,620.28 670.08,620.86 671.22,604.09 672.36,606.40 673.50,620.67 674.64,620.27 675.78,620.54 676.92,621.42 678.06,620.98 679.20,621.05 680.34,617.79 681.48,616.70 682.62,609.34 683.76,621.03 684.90,621.12 686.04,611.94 687.18,621.14 688.32,592.37 689.46,616.23 690.60,621.17 691.74,619.56 692.88,620.66 694.02,603.29 695.16,620.30 696.30,617.80 697.44,621.01 698.58,620.92 699.72,621.41 700.86,596.84 702.00,593.73 703.14,615.91 704.28,620.53 705.42,618.83 706.56,621.08 707.70,620.31 708.84,616.31 709.98,618.58 711.12,621.29 712.26,618.96 713.40,598.06 714.54,621.10 715.68,609.23 716.82,621.21 717.96,616.49 719.10,602.34 720.24,618.63 721.38,620.90 722.52,608.49 723.66,614.28 724.80,621.21 725.94,596.04 727.08,613.11 728.22,592.79 729.36,610.74 730.50,621.29 731.64,562.16 732.78,621.15 733.92,620.02 735.06,611.68 736.20,621.13 737.34,620.07 738.48,610.34 739.62,619.07 740.76,615.93 741.90,604.91 743.04,620.84 744.18,621.22 745.32,620.38 746.46,609.96 747.60,588.24 748.74,619.91 749.88,621.29 751.02,621.05 752.16,619.04 753.30,621.03 754.44,619.83 755.58,618.04 756.72,616.18 757.86,621.03 759.00,621.32 760.14,612.27 761.28,604.55 762.42,620.97 763.56,599.46 764.70,620.44 765.84,620.25 766.98,620.26 768.12,616.43 769.26,619.07 770.40,620.23 771.54,620.92 772.68,610.86 773.82,617.58 774.96,619.19 776.10,620.99 777.24,620.67 778.38,620.72 779.52,616.64 780.66,620.87 781.80,621.19 782.94,617.15 784.08,614.53 785.22,620.65 786.36,621.48 787.50,620.84 788.64,621.12 789.78,579.97 790.92,573.46 792.06,620.92 793.20,619.12 794.34,621.17 795.48,620.68 796.62,621.04 797.76,619.26 798.90,619.00 800.04,620.98 801.18,603.89 802.32,615.85 803.46,615.48 804.60,605.07 805.74,620.46 806.88,613.33 808.02,602.21 809.16,619.35 810.30,617.93 811.44,615.87 812.58,620.77 813.72,618.75 814.86,606.63 816.00,617.45 817.14,615.87 818.28,618.44 819.42,620.97 820.56,620.91 821.70,620.96 822.84,619.29 823.98,578.91 825.12,620.45 826.26,620.77 827.40,613.42 828.54,618.36 829.68,619.13 830.82,601.59 831.96,615.09 833.10,617.94 834.24,620.21 835.38,619.48 836.52,618.62 837.66,620.83 838.80,613.88 839.94,621.15 841.08,613.59 842.22,602.97 843.36,602.87 844.50,619.21 845.64,620.91 846.78,620.95 847.92,621.29 849.06,621.12 850.20,621.06 851.34,621.27 852.48,600.17 853.62,617.13 854.76,616.20 855.90,617.23 857.04,604.13 858.18,617.80 859.32,620.60 860.46,620.94 861.60,617.34 862.74,504.27 863.88,621.11 865.02,615.71 866.16,613.47 867.30,619.41 868.44,605.27 869.58,620.80 870.72,591.00 871.86,621.16 873.00,620.77 874.14,604.09 875.28,600.29 876.42,620.99 877.56,613.60 878.70,621.36 879.84,596.87 880.98,621.35 882.12,621.04 883.26,531.39 884.40,618.68 885.54,605.21 886.68,620.52 887.82,602.91 888.96,607.51 890.10,618.00 891.24,618.98 892.38,454.39 893.52,621.19 894.66,620.66 895.80,620.85 896.94,619.50 898.08,617.46 899.22,598.19 900.36,619.71 901.50,588.01 902.64,621.22 903.78,617.87 904.92,372.50 906.06,614.76 907.20,620.43 908.34,621.06 909.48,621.03 910.62,621.08 911.76,621.05 912.90,617.47 914.04,620.44 915.18,619.17 916.32,609.35 917.46,620.80 918.60,619.55 919.74,618.60 920.88,621.29 922.02,617.61 923.16,620.66 924.30,619.15 925.44,621.14 926.58,613.23 927.72,620.91 928.86,612.92 930.00,563.67" fill="none" stroke="#2e7d32" stroke-width="1.5"/>
<text x="18" y="181.25" text-anchor="middle" font-size="13" transform="rotate(-90 18 181.25)">Throughput (Mbps)</text>
<text x="18" y="508.75" text-anchor="middle" font-size="13" transform="rotate(-90 18 508.75)">Reward / Probability</text>
<text x="480.0" y="693" text-anchor="middle" font-size="13">Episode</text>
<line x1="720" y1="58" x2="750" y2="58" stroke="#1565c0" stroke-width="2"/><text x="758" y="62" font-size="12">Train throughput</text>
<line x1="720" y1="78" x2="750" y2="78" stroke="#d32f2f" stroke-width="2"/><text x="758" y="82" font-size="12">Validation throughput</text>
<line x1="720" y1="387.5" x2="750" y2="387.5" stroke="#2e7d32" stroke-width="2"/><text x="758" y="391.5" font-size="12">Mean window reward</text>
<line x1="720" y1="407.5" x2="750" y2="407.5" stroke="#7b1fa2" stroke-width="2"/><text x="758" y="411.5" font-size="12">Validation max probability</text>
</svg>